SplineFontDB: 3.2
FontName: Sapota
FullName: Sapota Regular
FamilyName: Sapota
Weight: Regular
Copyright: Copyright (c) 2023, 
Version: 001.000
ItalicAngle: 0
UnderlinePosition: -100
UnderlineWidth: 50
Ascent: 800
Descent: 200
InvalidEm: 0
sfntRevision: 0x00010000
woffMajor: 1
woffMinor: 0
LayerCount: 2
Layer: 0 0 "+gMyXYgAA" 1
Layer: 1 0 "+Uk2XYgAA" 0
XUID: [1021 386 1071978211 5054293]
StyleMap: 0x0000
FSType: 0
OS2Version: 4
OS2_WeightWidthSlopeOnly: 0
OS2_UseTypoMetrics: 1
CreationTime: 1673398754
ModificationTime: 1721486448
PfmFamily: 17
TTFWeight: 400
TTFWidth: 5
LineGap: 90
VLineGap: 0
Panose: 2 0 5 3 0 0 0 0 0 0
OS2TypoAscent: 800
OS2TypoAOffset: 0
OS2TypoDescent: -200
OS2TypoDOffset: 0
OS2TypoLinegap: 90
OS2WinAscent: 934
OS2WinAOffset: 0
OS2WinDescent: 342
OS2WinDOffset: 0
HheadAscent: 934
HheadAOffset: 0
HheadDescent: -342
HheadDOffset: 0
OS2SubXSize: 650
OS2SubYSize: 700
OS2SubXOff: 0
OS2SubYOff: 140
OS2SupXSize: 650
OS2SupYSize: 700
OS2SupXOff: 0
OS2SupYOff: 480
OS2StrikeYSize: 49
OS2StrikeYPos: 258
OS2Vendor: 'PfEd'
OS2CodePages: 00000001.00000000
OS2UnicodeRanges: 00000001.10000000.00000000.00000000
MarkAttachClasses: 1
DEI: 91125
LangName: 1033 "" "" "" "FontForge : Sapota Regular : 2-3-2024" "" "Version 001.000"
Encoding: UnicodeBmp
UnicodeInterp: none
NameList: AGL For New Fonts
DisplaySize: -48
AntiAlias: 1
FitToEm: 0
WidthSeparation: 100
WinInfo: 57264 24 18
BeginPrivate: 5
BlueShift 2 18
StdHW 4 [84]
StdVW 4 [72]
StemSnapH 10 [72 84 89]
StemSnapV 7 [72 85]
EndPrivate
BeginChars: 65537 647

StartChar: .notdef
Encoding: 65536 -1 0
Width: 500
GlyphClass: 1
Flags: MW
HStem: 0 50<100 400 100 450> 483 50<100 400 100 100>
VStem: 50 50<50 50 50 483> 400 50<50 483 483 483>
LayerCount: 2
Fore
SplineSet
50 0 m 1
 50 533 l 1
 450 533 l 1
 450 0 l 1
 50 0 l 1
100 50 m 1
 400 50 l 1
 400 483 l 1
 100 483 l 1
 100 50 l 1
EndSplineSet
EndChar

StartChar: unie000
Encoding: 57344 57344 2
Width: 631
VWidth: 1202
GlyphClass: 1
Flags: HMW
LayerCount: 2
Fore
SplineSet
472.3125 722.284179688 m 0
 32 722.284179688 32 722.284179688 32 722.284179688 c 1
 32 642.284179688 l 1
 472.3125 642.284179688 l 2
 490.334960938 642.284179688 498.990234375 638.169921875 502.662109375 635.233398438 c 0
 506.501953125 632.159179688 512.3125 625 512.3125 602.284179688 c 0
 512.3125 563.57421875 511.098632812 355.569335938 484.8828125 223.264648438 c 0
 477.162109375 184.561523438 469.534179688 151.919921875 462.102539062 125.461914062 c 0
 454.599609375 98.98046875 447.831054688 81.1494140625 445.384765625 76.583984375 c 0
 445.362304688 76.5419921875 418.370117188 26.6328125 418.09765625 26.1279296875 c 2
 488.469726562 -11.9306640625 l 1
 515.802734375 38.6103515625 l 2
 535.327148438 75.0546875 554.4921875 163.211914062 563.336914062 207.553710938 c 0
 569.295898438 237.627929688 592.3125 369.348632812 592.3125 602.284179688 c 0
 592.3125 631.668945312 585.893554688 659.885742188 567.759765625 682.551757812 c 0
 544.49609375 711.633789062 508.85546875 722.284179688 472.3125 722.284179688 c 0
EndSplineSet
EndChar

StartChar: unie001
Encoding: 57345 57345 3
Width: 638
VWidth: 1199
GlyphClass: 1
Flags: HMW
LayerCount: 2
Fore
SplineSet
42 119.915039062 m 0
 42 50.1220703125 80.9951171875 -0.0849609375 162 -0.0849609375 c 0
 602.3125 -0.0849609375 602.3125 -0.0849609375 602.3125 -0.0849609375 c 1
 602.3125 79.916015625 l 1
 162 79.916015625 l 2
 143.977539062 79.916015625 135.322265625 84.0302734375 131.650390625 86.966796875 c 0
 127.810546875 90.041015625 122 97.2001953125 122 119.915039062 c 0
 122 158.625976562 123.213867188 366.629882812 149.4296875 498.934570312 c 0
 157.150390625 537.638671875 164.778320312 570.280273438 172.209960938 596.73828125 c 0
 179.712890625 623.219726562 186.481445312 641.05078125 188.927734375 645.616210938 c 2
 216.21484375 696.072265625 l 1
 145.842773438 734.129882812 l 1
 118.509765625 683.58984375 l 2
 98.9853515625 647.145507812 79.8203125 558.987304688 70.9755859375 514.646484375 c 0
 65.0166015625 484.572265625 42 352.8515625 42 119.915039062 c 0
EndSplineSet
EndChar

StartChar: unie002
Encoding: 57346 57346 4
Width: 657
VWidth: 1201
GlyphClass: 1
Flags: HMW
LayerCount: 2
Fore
SplineSet
128.831054688 85.58203125 m 1
 128.328125 94.470703125 128.328125 94.470703125 128.328125 601.099609375 c 0
 128.328125 619.014648438 128.649414062 632.456054688 132.810546875 640.59765625 c 1
 141.698242188 641.099609375 141.698242188 641.099609375 488.641601562 641.099609375 c 0
 506.555664062 641.099609375 519.997070312 640.779296875 528.138671875 636.618164062 c 1
 528.640625 627.729492188 528.640625 627.729492188 528.640625 121.099609375 c 0
 528.640625 103.185546875 528.3203125 89.744140625 524.158203125 81.6015625 c 1
 515.271484375 81.1005859375 515.271484375 81.1005859375 168.328125 81.1005859375 c 0
 150.4140625 81.1005859375 136.97265625 81.419921875 128.831054688 85.58203125 c 1
48.328125 601.099609375 m 2
 48.328125 121.099609375 l 2
 48.328125 96.3662109375 48.328125 75.3583984375 51.4521484375 59.6865234375 c 0
 58.904296875 22.2958984375 84.583984375 6.146484375 118.1796875 2.5341796875 c 0
 145.162109375 -0.3662109375 148.533203125 1.099609375 168.328125 1.099609375 c 2
 488.641601562 1.099609375 l 2
 513.374023438 1.099609375 534.381835938 1.099609375 550.053710938 4.22265625 c 0
 587.4453125 11.6748046875 603.59375 37.35546875 607.206054688 70.9521484375 c 0
 610.106445312 97.9345703125 608.641601562 101.3046875 608.641601562 121.099609375 c 2
 608.641601562 601.099609375 l 2
 608.641601562 625.833984375 608.641601562 646.841796875 605.517578125 662.513671875 c 0
 598.065429688 699.904296875 572.385742188 716.053710938 538.7890625 719.666015625 c 0
 511.806640625 722.56640625 508.436523438 721.099609375 488.641601562 721.099609375 c 0
 131.529296875 721.099609375 131.529296875 721.099609375 118.1796875 719.666015625 c 0
 84.57421875 716.052734375 58.90234375 699.897460938 51.4521484375 662.513671875 c 0
 46.505859375 637.697265625 48.328125 625.833984375 48.328125 601.099609375 c 2
EndSplineSet
EndChar

StartChar: unie003
Encoding: 57347 57347 5
Width: 790
VWidth: 1201
GlyphClass: 1
Flags: HMW
LayerCount: 2
Fore
SplineSet
240.102539062 1.099609375 m 0
 383.737304688 1.099609375 500.103515625 117.559570312 500.103515625 261.100585938 c 0
 500.103515625 375.626953125 426.025390625 472.913085938 323.124023438 507.563476562 c 1
 456.661132812 641.099609375 l 1
 581.197265625 641.099609375 l 1
 581.197265625 1.099609375 l 1
 661.197265625 1.099609375 l 1
 661.197265625 641.099609375 l 1
 760.180664062 641.099609375 l 1
 760.180664062 721.099609375 l 1
 661.197265625 721.099609375 l 1
 581.197265625 721.099609375 l 1
 129.166015625 721.099609375 l 1
 129.166015625 641.099609375 l 1
 343.545898438 641.099609375 l 1
 143.546875 441.100585938 l 1
 240.102539062 441.100585938 l 2
 339.594726562 441.100585938 420.102539062 360.528320312 420.102539062 261.100585938 c 0
 420.102539062 161.671875 339.594726562 81.1005859375 240.102539062 81.1005859375 c 0
 190.3046875 81.1005859375 145.421875 101.16796875 112.834960938 133.75390625 c 2
 84.556640625 162.032226562 l 1
 28 105.475585938 l 1
 56.2783203125 77.1953125 l 2
 103.37890625 30.0947265625 168.33984375 1.099609375 240.102539062 1.099609375 c 0
EndSplineSet
EndChar

StartChar: unie004
Encoding: 57348 57348 6
Width: 652
VWidth: 1201
GlyphClass: 1
Flags: HMW
LayerCount: 2
Fore
SplineSet
94.9775390625 -14.896484375 m 1
 623.302734375 689.08203125 l 1
 559.325195312 737.095703125 l 1
 31 33.1181640625 l 1
 94.9775390625 -14.896484375 l 1
EndSplineSet
EndChar

StartChar: unie005
Encoding: 57349 57349 7
Width: 656
VWidth: 1201
GlyphClass: 1
Flags: HMW
LayerCount: 2
Fore
SplineSet
127 241.021484375 m 2
 127 388.444335938 199.235351562 441.177734375 327.143554688 441.177734375 c 0
 473.955078125 441.130859375 527.3125 369.458984375 527.3125 241.021484375 c 2
 527.3125 201.021484375 l 1
 527.3125 1.099609375 l 1
 607.3125 1.099609375 l 1
 607.3125 201.021484375 l 1
 607.3125 241.021484375 l 1
 607.3125 601.099609375 l 2
 607.3125 630.484375 600.893554688 658.701171875 582.759765625 681.3671875 c 0
 559.49609375 710.44921875 523.85546875 721.099609375 487.3125 721.099609375 c 0
 47 721.099609375 47 721.099609375 47 721.099609375 c 1
 47 641.099609375 l 1
 487.3125 641.099609375 l 2
 505.334960938 641.099609375 513.990234375 636.985351562 517.662109375 634.048828125 c 0
 521.501953125 630.974609375 527.3125 623.815429688 527.3125 601.099609375 c 2
 527.3125 457.266601562 l 1
 485.680664062 494.715820312 422.56640625 521.147460938 327 521.177734375 c 0
 250.673828125 521.177734375 47 506.0859375 47 241.021484375 c 2
 47 1.099609375 l 1
 127 1.099609375 l 1
 127 241.021484375 l 2
EndSplineSet
EndChar

StartChar: unie006
Encoding: 57350 57350 8
Width: 653
VWidth: 1201
GlyphClass: 1
Flags: HMW
LayerCount: 2
Fore
SplineSet
127.0078125 281.25 m 2
 127.0078125 721.09375 l 1
 47.0078125 721.09375 l 1
 47.0078125 281.25 l 2
 47.0078125 207.08984375 46.4462890625 154.15625 54.7978515625 111.010742188 c 0
 71.58203125 24.2998046875 129.106445312 5.4375 184.411132812 -1.7109375 c 0
 222.0390625 -6.57421875 267.609375 -6.875 327.1640625 -6.875 c 0
 441.478515625 -6.875 505.471679688 -5.4580078125 548.888671875 24.6328125 c 0
 578.34375 45.0478515625 592.89453125 76.7314453125 599.530273438 111.010742188 c 0
 607.881835938 154.15625 607.3203125 207.08984375 607.3203125 281.25 c 2
 607.3203125 569.0625 l 2
 607.3203125 603.1640625 607.138671875 635.420898438 592.513671875 664.408203125 c 0
 560.07421875 728.7109375 476.556640625 729.140625 447.2421875 729.140625 c 0
 379.982421875 729.140625 301.23046875 714.297851562 289.29296875 620.357421875 c 0
 287.1640625 603.610351562 287.1640625 585.4375 287.1640625 569.0625 c 2
 287.1640625 73.2763671875 l 1
 182.360351562 74.2236328125 153.5859375 81.109375 142.299804688 99.6806640625 c 0
 127.0078125 124.841796875 127.0078125 189.935546875 127.0078125 281.25 c 2
367.1640625 569.0625 m 2
 367.1640625 625.354492188 370.294921875 634.625 391.75 642.197265625 c 0
 418.217773438 651.538085938 476.275390625 651.534179688 502.734375 642.197265625 c 0
 524.205078125 634.619140625 527.3203125 625.310546875 527.3203125 569.0625 c 0
 527.3203125 178.934570312 527.3203125 178.934570312 523.926757812 146.673828125 c 0
 521.310546875 121.810546875 516.556640625 107.131835938 512.028320312 99.6806640625 c 0
 506.369140625 90.369140625 497.678710938 82.55078125 459.580078125 77.6259765625 c 0
 437.081054688 74.7177734375 406.44921875 73.6318359375 367.1640625 78.28125 c 1
 367.1640625 569.0625 l 2
EndSplineSet
EndChar

StartChar: unie007
Encoding: 57351 57351 9
Width: 653
VWidth: 1201
GlyphClass: 1
Flags: HMW
LayerCount: 2
Fore
SplineSet
127.0078125 281.25 m 2
 127.0078125 721.09375 l 1
 47.0078125 721.09375 l 1
 47.0078125 281.25 l 2
 47.0078125 207.08984375 46.4462890625 154.15625 54.7978515625 111.010742188 c 0
 71.58203125 24.2998046875 129.106445312 5.4375 184.411132812 -1.7109375 c 0
 222.0390625 -6.57421875 267.609375 -6.875 327.1640625 -6.875 c 0
 441.478515625 -6.875 505.471679688 -5.4580078125 548.888671875 24.6328125 c 0
 578.34375 45.0478515625 592.89453125 76.7314453125 599.530273438 111.010742188 c 0
 607.881835938 154.15625 607.3203125 207.08984375 607.3203125 281.25 c 2
 607.3203125 569.0625 l 2
 607.3203125 603.1640625 607.138671875 635.420898438 592.513671875 664.408203125 c 0
 560.07421875 728.7109375 476.556640625 729.140625 447.2421875 729.140625 c 0
 379.982421875 729.140625 301.23046875 714.297851562 289.29296875 620.357421875 c 0
 287.1640625 603.610351562 287.1640625 585.4375 287.1640625 569.0625 c 2
 287.1640625 73.2763671875 l 1
 182.360351562 74.2236328125 153.5859375 81.109375 142.299804688 99.6806640625 c 0
 127.0078125 124.841796875 127.0078125 189.935546875 127.0078125 281.25 c 2
367.1640625 569.0625 m 2
 367.1640625 625.354492188 370.294921875 634.625 391.75 642.197265625 c 0
 418.217773438 651.538085938 476.275390625 651.534179688 502.734375 642.197265625 c 0
 524.205078125 634.619140625 527.3203125 625.310546875 527.3203125 569.0625 c 0
 527.3203125 178.934570312 527.3203125 178.934570312 523.926757812 146.673828125 c 0
 521.310546875 121.810546875 516.556640625 107.131835938 512.028320312 99.6806640625 c 0
 506.369140625 90.369140625 497.678710938 82.55078125 459.580078125 77.6259765625 c 0
 437.081054688 74.7177734375 406.44921875 73.6318359375 367.1640625 78.28125 c 1
 367.1640625 569.0625 l 2
EndSplineSet
EndChar

StartChar: unie008
Encoding: 57352 57352 10
Width: 767
VWidth: 1202
GlyphClass: 1
Flags: HMW
LayerCount: 2
Fore
SplineSet
361.600585938 197.987304688 m 0
 197.280273438 197.987304688 113.919921875 171.266601562 113.919921875 118.625976562 c 0
 113.919921875 89.02734375 148.240234375 73.986328125 216.000976562 73.986328125 c 0
 341.760742188 73.986328125 382.479492188 107.346679688 392.879882812 196.546875 c 1
 382.880859375 197.506835938 372.400390625 197.987304688 361.600585938 197.987304688 c 0
66.5595703125 642.146484375 m 1
 66.5595703125 722.146484375 l 1
 563.83984375 722.146484375 l 1
 643.840820312 722.146484375 l 1
 736.16015625 722.146484375 l 1
 736.16015625 642.146484375 l 1
 643.840820312 642.146484375 l 1
 643.840820312 263.266601562 l 1
 563.83984375 263.266601562 l 1
 563.83984375 642.146484375 l 1
 432.639648438 642.146484375 l 1
 299.040039062 508.546875 l 1
 401.83984375 473.826171875 476 376.546875 476 262.147460938 c 2
 476 261.827148438 l 1
 642.080078125 212.38671875 707.599609375 65.5068359375 710.80078125 57.986328125 c 2
 726.640625 21.2666015625 l 1
 653.267578125 -10.384765625 l 1
 637.439453125 26.3076171875 l 2
 635.040039062 31.666015625 587.760742188 135.506835938 470.80078125 179.02734375 c 1
 454 65.3466796875 392.16015625 -5.93359375 216.080078125 -5.93359375 c 0
 57.6806640625 -5.93359375 34 72.146484375 34 118.70703125 c 0
 34 261.586914062 220.959960938 278.067382812 361.6796875 278.067382812 c 0
 373.280273438 278.067382812 384.559570312 277.586914062 395.520507812 276.706054688 c 1
 388.080078125 369.186523438 310.479492188 442.147460938 216.080078125 442.147460938 c 2
 119.520507812 442.147460938 l 1
 319.520507812 642.146484375 l 1
 66.5595703125 642.146484375 l 1
653.267578125 -10.384765625 m 1
 653.200195312 -10.4130859375 l 1
 653.280273438 -10.4130859375 l 1
 653.267578125 -10.384765625 l 1
EndSplineSet
EndChar

StartChar: unie009
Encoding: 57353 57353 11
Width: 654
VWidth: 1201
GlyphClass: 1
Flags: HMW
LayerCount: 2
Fore
SplineSet
130 145.428710938 m 1
 130 721.034179688 l 1
 50 721.034179688 l 1
 50 42.0498046875 l 2
 50 25.671875 61.021484375 6.794921875 82.5390625 2.5751953125 c 0
 88.091796875 1.486328125 88.7783203125 1.3515625 110.260742188 3.7392578125 c 1
 626.7890625 578.911132812 l 1
 567.278320312 632.354492188 l 1
 130 145.428710938 l 1
EndSplineSet
EndChar

StartChar: unie00a
Encoding: 57354 57354 12
Width: 637
VWidth: 1201
GlyphClass: 1
Flags: HMW
LayerCount: 2
Fore
SplineSet
480.3125 721.994140625 m 0
 40 721.994140625 40 721.994140625 40 721.994140625 c 1
 40 641.993164062 l 1
 480.3125 641.993164062 l 2
 498.334960938 641.993164062 506.990234375 637.87890625 510.662109375 634.942382812 c 0
 514.501953125 631.868164062 520.3125 624.708984375 520.3125 601.994140625 c 0
 520.3125 589.84765625 520.126953125 560.842773438 518.651367188 521.993164062 c 1
 40 521.993164062 l 1
 40 441.994140625 l 1
 514.296875 441.994140625 l 1
 510.310546875 386.244140625 503.705078125 323.01953125 492.76953125 263.169921875 c 0
 489.603515625 245.953125 468.267578125 131.477539062 450.696289062 79.26953125 c 0
 450.686523438 79.2412109375 429.796875 17.556640625 429.5859375 16.9326171875 c 2
 505.373046875 -8.732421875 l 1
 535.196289062 79.3291015625 535.196289062 79.3291015625 547.545898438 132.1640625 c 0
 590.022460938 315.09765625 600.3125 467.19921875 600.3125 601.994140625 c 0
 600.3125 631.37890625 593.893554688 659.594726562 575.759765625 682.26171875 c 0
 552.49609375 711.342773438 516.85546875 721.994140625 480.3125 721.994140625 c 0
EndSplineSet
EndChar

StartChar: unie00b
Encoding: 57355 57355 13
Width: 643
VWidth: 1200
GlyphClass: 1
Flags: HMW
LayerCount: 2
Fore
SplineSet
41 120.206054688 m 0
 41 50.4130859375 79.9951171875 0.2060546875 161 0.2060546875 c 0
 601.3125 0.2060546875 601.3125 0.2060546875 601.3125 0.2060546875 c 1
 601.3125 80.20703125 l 1
 161 80.20703125 l 2
 142.977539062 80.20703125 134.322265625 84.3212890625 130.650390625 87.2578125 c 0
 126.810546875 90.33203125 121 97.490234375 121 120.206054688 c 0
 121 152.30078125 122.294921875 302.107421875 145.260742188 440.20703125 c 1
 601.3125 440.20703125 l 1
 601.3125 520.206054688 l 1
 160.48828125 520.206054688 l 1
 168.936523438 561.282226562 180.411132812 612.608398438 190.616210938 642.930664062 c 2
 211.7265625 705.267578125 l 1
 135.939453125 730.932617188 l 1
 106.116210938 642.87109375 106.116210938 642.87109375 93.7666015625 590.03515625 c 0
 51.2900390625 407.102539062 41 255.000976562 41 120.206054688 c 0
EndSplineSet
EndChar

StartChar: unie00c
Encoding: 57356 57356 14
Width: 642
VWidth: 1200
GlyphClass: 1
Flags: HMW
LayerCount: 2
Fore
SplineSet
482.3125 0.2060546875 m 2
 552.106445312 0.2060546875 602.3125 39.2001953125 602.3125 120.206054688 c 0
 602.3125 156.508789062 600.82421875 323.735351562 573.44921875 473.5703125 c 0
 549.626953125 603.094726562 535.166015625 648.866210938 520.209960938 693.028320312 c 2
 507.373046875 730.932617188 l 1
 431.5859375 705.267578125 l 1
 460.16796875 620.870117188 460.16796875 620.870117188 471.641601562 571.782226562 c 0
 475.701171875 554.30078125 479.454101562 537.11328125 482.921875 520.206054688 c 1
 42 520.206054688 l 1
 42 440.20703125 l 1
 497.61328125 440.20703125 l 1
 516.90625 321.127929688 522.3125 216.305664062 522.3125 120.206054688 c 0
 522.3125 102.18359375 518.197265625 93.5283203125 515.259765625 89.857421875 c 0
 512.1875 86.015625 505.028320312 80.20703125 482.3125 80.20703125 c 0
 42 80.20703125 42 80.20703125 42 80.20703125 c 1
 42 0.2060546875 l 1
 482.3125 0.2060546875 l 2
EndSplineSet
EndChar

StartChar: unie00d
Encoding: 57357 57357 15
Width: 768
VWidth: 1202
GlyphClass: 1
Flags: HMW
LayerCount: 2
Fore
SplineSet
361.600585938 197.987304688 m 0
 197.280273438 197.987304688 113.919921875 171.266601562 113.919921875 118.625976562 c 0
 113.919921875 89.02734375 148.240234375 73.986328125 216.000976562 73.986328125 c 0
 341.760742188 73.986328125 382.479492188 107.346679688 392.879882812 196.546875 c 1
 382.880859375 197.506835938 372.400390625 197.987304688 361.600585938 197.987304688 c 0
66.5595703125 642.146484375 m 1
 66.5595703125 722.146484375 l 1
 736.16015625 722.146484375 l 1
 736.16015625 642.146484375 l 1
 432.639648438 642.146484375 l 1
 299.040039062 508.546875 l 1
 401.83984375 473.826171875 476 376.546875 476 262.147460938 c 2
 476 261.827148438 l 1
 642.080078125 212.38671875 707.599609375 65.5068359375 710.80078125 57.986328125 c 2
 726.640625 21.2666015625 l 1
 653.267578125 -10.384765625 l 1
 637.439453125 26.3076171875 l 2
 635.040039062 31.666015625 587.760742188 135.506835938 470.80078125 179.02734375 c 1
 454 65.3466796875 392.16015625 -5.93359375 216.080078125 -5.93359375 c 0
 57.6806640625 -5.93359375 34 72.146484375 34 118.70703125 c 0
 34 261.586914062 220.959960938 278.067382812 361.6796875 278.067382812 c 0
 373.280273438 278.067382812 384.559570312 277.586914062 395.520507812 276.706054688 c 1
 388.080078125 369.186523438 310.479492188 442.147460938 216.080078125 442.147460938 c 2
 119.520507812 442.147460938 l 1
 319.520507812 642.146484375 l 1
 66.5595703125 642.146484375 l 1
653.267578125 -10.384765625 m 1
 653.200195312 -10.4130859375 l 1
 653.280273438 -10.4130859375 l 1
 653.267578125 -10.384765625 l 1
EndSplineSet
EndChar

StartChar: unie00e
Encoding: 57358 57358 16
Width: 656
VWidth: 1199
GlyphClass: 1
Flags: HMW
LayerCount: 2
Fore
SplineSet
29 -0.154296875 m 1
 621.079101562 -0.154296875 l 1
 621.079101562 79.845703125 l 1
 172.532226562 79.845703125 l 1
 551.604492188 692.826171875 l 1
 483.565429688 734.90234375 l 1
 29 -0.154296875 l 1
EndSplineSet
EndChar

StartChar: unie00f
Encoding: 57359 57359 17
Width: 642
VWidth: 1201
GlyphClass: 1
Flags: HMW
LayerCount: 2
Fore
SplineSet
40 154.080078125 m 0
 40 65.6875 111.686523438 -5.998046875 200.078125 -5.998046875 c 0
 288.469726562 -5.998046875 360.15625 65.6875 360.15625 154.080078125 c 0
 360.15625 242.47265625 288.469726562 314.158203125 200.078125 314.158203125 c 0
 171.883789062 314.158203125 145.388671875 306.864257812 122.37890625 294.0625 c 1
 124.659179688 325.484375 129.125976562 347.434570312 137.876953125 367.80859375 c 0
 149.359375 394.543945312 174.564453125 442.048828125 320.390625 442.048828125 c 0
 364.865234375 442.048828125 443.5546875 433.275390625 494.59375 377.513671875 c 0
 502.387695312 368.997070312 505.859375 363.295898438 506.420898438 362.338867188 c 2
 518.471679688 340.234375 l 1
 515.426757812 230.8359375 509.114257812 159.528320312 503.466796875 115.413085938 c 0
 498.005859375 72.7529296875 493.15625 55.546875 492.709960938 54.02734375 c 0
 488.611328125 41.46875 484.51171875 28.9111328125 480.412109375 16.3515625 c 1
 556.477539062 -8.4765625 l 1
 568.89453125 29.5634765625 l 2
 571.15234375 36.4775390625 600.3125 129.938476562 600.3125 481.814453125 c 0
 600.3125 542.173828125 593.040039062 651.205078125 493.799804688 696.489257812 c 0
 440.75390625 720.694335938 378.704101562 721.970703125 310.703125 721.970703125 c 0
 177.939453125 721.970703125 97.83203125 677.192382812 93.7919921875 674.896484375 c 2
 58.9736328125 655.104492188 l 1
 98.5068359375 585.553710938 l 1
 133.23828125 605.294921875 l 2
 134.778320312 606.251953125 200.66015625 641.970703125 310.703125 641.970703125 c 0
 445.6328125 641.970703125 485.67578125 625.322265625 506.063476562 575.7734375 c 0
 514.600585938 555.025390625 520.3125 524.579101562 520.3125 481.814453125 c 0
 520.3125 474.950195312 520.30078125 468.188476562 520.278320312 461.526367188 c 1
 480.205078125 491.8046875 416.19921875 522.048828125 320.390625 522.048828125 c 0
 236.69921875 522.048828125 112.078125 510.490234375 64.3310546875 399.3203125 c 0
 52.7265625 372.299804688 46.9921875 343.466796875 43.8408203125 313.618164062 c 0
 40 277.225585938 40 259.873046875 40 155.876953125 c 1
 40.009765625 155.876953125 l 1
 40.0029296875 155.278320312 40 154.6796875 40 154.080078125 c 0
120 154.080078125 m 0
 120 198.34375 155.813476562 234.158203125 200.078125 234.158203125 c 0
 244.342773438 234.158203125 280.15625 198.34375 280.15625 154.080078125 c 0
 280.15625 109.81640625 244.342773438 74.001953125 200.078125 74.001953125 c 0
 155.813476562 74.001953125 120 109.81640625 120 154.080078125 c 0
EndSplineSet
EndChar

StartChar: unie010
Encoding: 57360 57360 18
Width: 647
VWidth: 1201
GlyphClass: 1
Flags: HMW
LayerCount: 2
Fore
SplineSet
123.182617188 308.501953125 m 0
 123.182617188 192.059570312 130.314453125 125.850585938 202.095703125 93.490234375 c 0
 228.86328125 81.421875 267.833007812 73.1123046875 323.18359375 73.1123046875 c 0
 489.678710938 73.1123046875 512.0703125 120.116210938 519.8828125 182.415039062 c 0
 522.563476562 203.795898438 523.071289062 229.219726562 520.888671875 257.374023438 c 1
 396.333984375 242.649414062 290.177734375 250.31640625 252.555664062 345.421875 c 0
 235.83984375 387.6796875 235.83984375 435.126953125 235.83984375 500.612304688 c 0
 235.83984375 579.1328125 240.591796875 686.986328125 339.44140625 718.750976562 c 0
 378.069335938 731.165039062 453.025390625 735.405273438 502.173828125 715.754882812 c 0
 595.805664062 678.31640625 603.182617188 562.79296875 603.182617188 455.768554688 c 0
 603.182617188 203.68359375 603.182617188 203.68359375 599.2578125 172.379882812 c 0
 584.943359375 58.2197265625 516.86328125 -6.8876953125 323.18359375 -6.8876953125 c 0
 254.66015625 -6.8876953125 119.204101562 1.8701171875 67.421875 123.709960938 c 0
 39.283203125 189.915039062 43.18359375 250.1640625 43.18359375 308.501953125 c 0
 43.18359375 558.793945312 63.8388671875 685.517578125 64.1826171875 687.606445312 c 2
 70.6650390625 727.043945312 l 1
 149.615234375 714.068359375 l 1
 143.12109375 674.5546875 l 1
 143.12109375 674.5546875 123.182617188 555.873046875 123.182617188 308.501953125 c 0
523.18359375 455.768554688 m 2
 523.18359375 621.022460938 490.206054688 634.368164062 472.518554688 641.440429688 c 0
 444.801757812 652.522460938 388.62109375 650.508789062 363.91015625 642.568359375 c 0
 344.754882812 636.413085938 315.838867188 627.12109375 315.838867188 499.747070312 c 0
 315.838867188 399.537109375 318.463867188 359.517578125 358.809570312 342.625976562 c 0
 403.23046875 324.028320312 483.703125 333.541992188 523.18359375 338.208984375 c 1
 523.18359375 455.768554688 l 2
EndSplineSet
EndChar

StartChar: unie011
Encoding: 57361 57361 19
Width: 650
VWidth: 1201
GlyphClass: 1
Flags: HMW
LayerCount: 2
Fore
SplineSet
326.151367188 353.727539062 m 1
 359.659179688 324.366210938 411.4140625 321.770507812 446.131835938 321.771484375 c 0
 468.36328125 321.771484375 495.930664062 322.922851562 521.517578125 330.392578125 c 1
 498.106445312 74.5625 392.228515625 73.7236328125 357.303710938 73.7236328125 c 0
 300.811523438 73.7236328125 250.698242188 75.931640625 207.1484375 80.24609375 c 0
 162.995117188 84.62109375 132.638671875 89.373046875 121.287109375 92.47265625 c 0
 58.07421875 109.73046875 58.07421875 109.73046875 58.07421875 109.73046875 c 1
 37 32.541015625 l 1
 100.1953125 15.287109375 l 2
 121.033203125 9.5986328125 208.31640625 -6.2763671875 357.303710938 -6.2763671875 c 0
 436.67578125 -6.2763671875 537.260742188 31.51953125 581.677734375 204.634765625 c 0
 598.323242188 269.51171875 606.131835938 347.928710938 606.131835938 440.676757812 c 2
 606.131835938 521.770507812 l 1
 606.131835938 721.770507812 l 1
 526.1328125 721.770507812 l 1
 526.1328125 521.770507812 l 2
 526.1328125 437.725585938 526.1328125 437.130859375 515.586914062 416.684570312 c 0
 506.395507812 398.934570312 420.530273438 398.10546875 389.481445312 408.267578125 c 0
 379.502929688 411.502929688 377.921875 414.28125 376.70703125 416.62890625 c 0
 368.938476562 431.689453125 366.131835938 438.756835938 366.131835938 481.770507812 c 2
 366.131835938 521.770507812 l 1
 366.131835938 721.770507812 l 1
 286.1328125 721.770507812 l 1
 286.1328125 521.770507812 l 2
 286.1328125 437.725585938 286.1328125 437.130859375 275.586914062 416.684570312 c 0
 266.395507812 398.934570312 180.530273438 398.10546875 149.481445312 408.267578125 c 0
 139.502929688 411.502929688 137.921875 414.28125 136.70703125 416.62890625 c 0
 128.938476562 431.689453125 126.131835938 438.756835938 126.131835938 481.770507812 c 0
 126.131835938 721.770507812 126.131835938 721.770507812 126.131835938 721.770507812 c 1
 46.1328125 721.770507812 l 1
 46.1328125 481.770507812 l 2
 46.1328125 431.811523438 49.068359375 412.009765625 65.5576171875 380.038085938 c 0
 93.6552734375 325.771484375 163.025390625 321.771484375 206.131835938 321.771484375 c 0
 242.5390625 321.771484375 293.256835938 324.859375 326.151367188 353.727539062 c 1
EndSplineSet
EndChar

StartChar: unie012
Encoding: 57362 57362 20
Width: 876
VWidth: 1201
GlyphClass: 1
Flags: HMW
LayerCount: 2
Fore
SplineSet
339.439453125 230.43359375 m 0
 189.838867188 230.43359375 114.078125 192.672851562 114.078125 118.2734375 c 0
 114.078125 88.673828125 148.399414062 73.6328125 216.159179688 73.6328125 c 0
 354.239257812 73.6328125 389.758789062 113.874023438 395.279296875 224.11328125 c 1
 378.638671875 228.353515625 359.999023438 230.43359375 339.439453125 230.43359375 c 0
216.078125 -6.3662109375 m 1
 57.6787109375 -6.3662109375 34 71.712890625 34 118.2734375 c 0
 34 190.033203125 73.6796875 310.43359375 339.358398438 310.43359375 c 0
 357.278320312 310.43359375 374.319335938 309.154296875 390.399414062 306.672851562 c 1
 370.399414062 384.2734375 299.838867188 441.712890625 216.078125 441.712890625 c 2
 119.51953125 441.712890625 l 1
 319.598632812 641.79296875 l 1
 76.87890625 641.79296875 l 1
 76.87890625 721.79296875 l 1
 590.87890625 721.79296875 l 1
 670.877929688 721.79296875 l 1
 815.678710938 721.79296875 l 1
 815.678710938 641.79296875 l 1
 670.877929688 641.79296875 l 1
 670.877929688 319.233398438 l 1
 590.87890625 319.233398438 l 1
 590.87890625 641.79296875 l 1
 432.717773438 641.79296875 l 1
 299.0390625 508.11328125 l 1
 397.278320312 474.913085938 469.359375 384.59375 475.599609375 276.833984375 c 1
 492.87890625 266.353515625 508.319335938 253.552734375 521.838867188 238.353515625 c 0
 539.212890625 218.732421875 551.549804688 196.967773438 560.264648438 175.206054688 c 1
 586.983398438 208.4921875 625.702148438 237.953125 679.0390625 237.953125 c 0
 777.918945312 237.953125 824.87890625 118.913085938 836.958984375 48.59375 c 2
 843.758789062 9.2333984375 l 1
 765.1171875 -4.353515625 l 1
 758.239257812 34.9130859375 l 2
 753.678710938 60.9130859375 726.798828125 157.954101562 679.119140625 157.954101562 c 0
 619.599609375 157.954101562 588.159179688 60.4326171875 587.838867188 59.47265625 c 2
 577.807617188 26.6982421875 l 1
 574.23828125 -2.6865234375 l 1
 495.119140625 6.75390625 l 1
 499.678710938 46.353515625 l 2
 499.678710938 47.1533203125 507.758789062 121.79296875 470.239257812 174.75390625 c 1
 452.638671875 63.2333984375 390.239257812 -6.52734375 216.078125 -6.52734375 c 1
 216.078125 -6.3662109375 l 1
765.1171875 -4.353515625 m 1
 765.038085938 -4.3671875 l 1
 765.119140625 -4.3671875 l 1
 765.119140625 -4.3623046875 765.1171875 -4.3583984375 765.1171875 -4.353515625 c 1
EndSplineSet
EndChar

StartChar: unie013
Encoding: 57363 57363 21
Width: 575
VWidth: 1201
GlyphClass: 1
Flags: HMW
LayerCount: 2
Fore
SplineSet
524.702148438 678.991210938 m 2
 524.702148438 701.3125 506.576171875 719.631835938 484.138671875 719.631835938 c 0
 469.387695312 719.631835938 455.750976562 711.176757812 448.854492188 699.106445312 c 2
 448.854492188 699.106445312 242.594726562 365.537109375 128.999023438 181.84375 c 1
 128.999023438 721.099609375 l 1
 49 721.099609375 l 1
 49 43.208984375 l 2
 49 20.1591796875 68.466796875 2.5908203125 89.5908203125 2.5908203125 c 0
 103.565429688 2.5908203125 117.079101562 9.5458984375 124.139648438 21.9033203125 c 0
 124.65234375 22.7646484375 330.747070312 356.076171875 444.702148438 540.372070312 c 1
 444.702148438 1.099609375 l 1
 524.702148438 1.099609375 l 1
 524.702148438 678.991210938 l 2
EndSplineSet
EndChar

StartChar: unie014
Encoding: 57364 57364 22
Width: 654
VWidth: 1201
GlyphClass: 1
Flags: HMW
LayerCount: 2
Fore
SplineSet
227.588867188 82.8310546875 m 0
 199.03125 81.1005859375 199.03125 81.1005859375 46 81.1005859375 c 1
 46 1.099609375 l 1
 253.8515625 1.099609375 253.8515625 1.099609375 306.280273438 16.8291015625 c 0
 333.4140625 24.93359375 345.399414062 33.3759765625 372.0390625 60.9091796875 c 0
 390.159179688 79.88671875 400.651367188 101.755859375 408.938476562 146.28125 c 0
 415.716796875 183.291015625 417.22265625 243.329101562 397.927734375 299.010742188 c 0
 395.826171875 305.044921875 393.084960938 312.046875 387.895507812 320.458984375 c 1
 406.447265625 319.79296875 424.314453125 318.609375 441.494140625 316.918945312 c 0
 476.2734375 313.49609375 482.278320312 312.904296875 526.3125 303.209960938 c 1
 526.3125 1.099609375 l 1
 606.3125 1.099609375 l 1
 606.3125 481.568359375 l 2
 606.3125 546.370117188 592.0234375 602.133789062 558.1484375 644.475585938 c 0
 515.208007812 698.151367188 447.595703125 721.099609375 366.78125 721.099609375 c 0
 46 721.099609375 46 721.099609375 46 721.099609375 c 1
 46 641.099609375 l 1
 366.78125 641.099609375 l 2
 484.615234375 641.099609375 526.3125 584.892578125 526.3125 481.568359375 c 2
 526.3125 385.098632812 l 1
 492.7890625 392.26171875 483.490234375 393.176757812 449.412109375 396.53125 c 0
 418.329101562 399.58984375 385.663085938 401.099609375 351.390625 401.099609375 c 2
 113.5 401.099609375 l 1
 46 401.099609375 l 1
 46 321.100585938 l 1
 113.5 321.100585938 l 2
 234.197265625 321.100585938 242.055664062 321.100585938 283.331054688 308.716796875 c 0
 291.118164062 306.390625 295.383789062 303.8828125 296.162109375 303.298828125 c 0
 301.068359375 299.092773438 307.243164062 293.233398438 314.365234375 285.874023438 c 0
 331.126953125 268.318359375 343.43359375 190.306640625 322.333984375 129.421875 c 0
 320.918945312 125.358398438 318.3203125 117.893554688 296.162109375 98.9013671875 c 0
 295.587890625 98.4931640625 271.357421875 85.3359375 227.588867188 82.8310546875 c 0
EndSplineSet
EndChar

StartChar: unie015
Encoding: 57365 57365 23
Width: 651
VWidth: 1201
GlyphClass: 1
Flags: HMW
LayerCount: 2
Fore
SplineSet
425.723632812 319.369140625 m 0
 454.28125 321.100585938 454.28125 321.100585938 607.3125 321.100585938 c 1
 607.3125 401.099609375 l 1
 581.853515625 401.099609375 559.513671875 401.0703125 539.8125 401.0703125 c 1
 539.8125 401.099609375 l 1
 419.115234375 401.099609375 411.256835938 401.099609375 369.981445312 413.482421875 c 0
 362.194335938 415.80859375 357.928710938 418.31640625 357.150390625 418.901367188 c 0
 352.244140625 423.107421875 346.069335938 428.966796875 338.947265625 436.326171875 c 0
 322.185546875 453.881835938 309.87890625 531.893554688 330.978515625 592.778320312 c 0
 332.393554688 596.841796875 334.9921875 604.306640625 357.150390625 623.298828125 c 0
 357.724609375 623.70703125 381.955078125 636.864257812 425.723632812 639.369140625 c 0
 454.28125 641.099609375 454.28125 641.099609375 607.3125 641.099609375 c 1
 607.3125 721.099609375 l 1
 399.4609375 721.099609375 399.4609375 721.099609375 347.032226562 705.37109375 c 0
 319.8984375 697.266601562 307.913085938 688.82421875 281.2734375 661.291015625 c 0
 263.153320312 642.313476562 252.661132812 620.444335938 244.374023438 575.918945312 c 0
 237.595703125 538.908203125 236.08984375 478.87109375 255.384765625 423.189453125 c 0
 260.203125 409.356445312 268.379882812 390.435546875 301.724609375 361.099609375 c 1
 295.669921875 355.828125 289.104492188 349.384765625 281.2734375 341.291015625 c 0
 263.153320312 322.313476562 252.661132812 300.443359375 244.374023438 255.91796875 c 0
 237.595703125 218.908203125 236.08984375 158.872070312 255.384765625 103.190429688 c 0
 257.485351562 97.158203125 260.225585938 90.1591796875 265.411132812 81.7509765625 c 1
 163.669921875 88.27734375 127 143.736328125 127 240.630859375 c 0
 127 721.099609375 127 721.099609375 127 721.099609375 c 1
 47 721.099609375 l 1
 47 240.630859375 l 2
 47 144.258789062 81.50390625 1.099609375 286.53125 1.099609375 c 2
 539.8125 1.099609375 l 1
 607.3125 1.099609375 l 1
 607.3125 81.1005859375 l 1
 539.8125 81.1005859375 l 2
 419.115234375 81.1005859375 411.256835938 81.1005859375 369.981445312 93.482421875 c 0
 362.194335938 95.80859375 357.928710938 98.3173828125 357.150390625 98.9013671875 c 0
 352.244140625 103.107421875 346.069335938 108.967773438 338.947265625 116.327148438 c 0
 322.185546875 133.8828125 309.87890625 211.89453125 330.978515625 272.778320312 c 0
 332.393554688 276.840820312 334.9921875 284.305664062 357.150390625 303.298828125 c 0
 357.724609375 303.706054688 381.955078125 316.864257812 425.723632812 319.369140625 c 0
EndSplineSet
EndChar

StartChar: unie016
Encoding: 57366 57366 24
Width: 652
VWidth: 1201
GlyphClass: 1
Flags: HMW
LayerCount: 2
Fore
SplineSet
305.280273438 705.37109375 m 0
 252.8515625 721.099609375 252.8515625 721.099609375 45 721.099609375 c 1
 45 641.099609375 l 1
 199.64453125 641.099609375 234.21484375 641.099609375 254.985351562 636.1796875 c 0
 255.396484375 636.0859375 287.850585938 628.490234375 295.162109375 623.298828125 c 0
 300.068359375 619.092773438 306.059570312 613.424804688 313.1796875 606.065429688 c 0
 330.490234375 587.935546875 342.223632812 509.702148438 321.353515625 449.479492188 c 0
 319.900390625 445.303710938 317.305664062 437.85546875 295.0703125 418.831054688 c 0
 294.506835938 418.409179688 270.178710938 405.325195312 226.454101562 402.822265625 c 0
 198.02734375 401.099609375 197.78125 401.099609375 112.5 401.099609375 c 1
 112.5 401.0703125 l 1
 92.798828125 401.099609375 70.458984375 401.099609375 45 401.099609375 c 1
 45 321.100585938 l 1
 199.64453125 321.100585938 234.21484375 321.100585938 254.985351562 316.180664062 c 0
 255.396484375 316.0859375 287.850585938 308.490234375 295.162109375 303.298828125 c 0
 300.068359375 299.092773438 306.059570312 293.423828125 313.1796875 286.064453125 c 0
 330.490234375 267.935546875 342.223632812 189.703125 321.353515625 129.478515625 c 0
 319.900390625 125.303710938 317.305664062 117.85546875 295.0703125 98.8310546875 c 0
 294.506835938 98.4091796875 270.178710938 85.3251953125 226.454101562 82.8232421875 c 0
 198.02734375 81.1005859375 197.78125 81.1005859375 112.5 81.1005859375 c 2
 45 81.1005859375 l 1
 45 1.099609375 l 1
 112.5 1.099609375 l 1
 365.78125 1.099609375 l 2
 462.153320312 1.099609375 605.3125 35.6044921875 605.3125 240.630859375 c 0
 605.3125 721.099609375 605.3125 721.099609375 605.3125 721.099609375 c 1
 525.3125 721.099609375 l 1
 525.3125 240.630859375 l 2
 525.3125 143.765625 488.66796875 88.2763671875 386.891601562 81.75 c 1
 396.014648438 97.2470703125 402.455078125 116.819335938 407.91796875 146.168945312 c 0
 414.793945312 183.708984375 416.115234375 243.639648438 396.947265625 298.953125 c 0
 392.393554688 312.02734375 384.701171875 331.0859375 350.58984375 361.098632812 c 1
 356.59765625 366.326171875 363.108398438 372.7109375 370.854492188 380.716796875 c 0
 389.282226562 400.016601562 399.705078125 422.04296875 407.91796875 466.16796875 c 0
 414.793945312 503.708984375 416.115234375 563.639648438 396.947265625 618.952148438 c 0
 392.24609375 632.452148438 384.197265625 652.330078125 347.181640625 684.05859375 c 0
 334.662109375 694.788085938 320.517578125 700.819335938 305.280273438 705.37109375 c 0
EndSplineSet
EndChar

StartChar: unie017
Encoding: 57367 57367 25
Width: 763
VWidth: 1201
GlyphClass: 1
Flags: HMW
LayerCount: 2
Fore
SplineSet
722.159179688 1.7802734375 m 1
 682.159179688 1.7802734375 l 2
 616.798828125 1.7802734375 493.19921875 32.66015625 493.19921875 149.620117188 c 0
 493.19921875 191.248046875 507.142578125 222.470703125 527.641601562 245.5 c 1
 511.244140625 246.876953125 493.901367188 248.196289062 475.919921875 249.379882812 c 1
 473.599609375 95.310546875 426.166992188 -6.365234375 216.04296875 -6.3798828125 c 0
 57.67578125 -6.3681640625 34 71.703125 34 118.259765625 c 0
 34 220.419921875 158.319335938 334.340820312 336.719726562 334.340820312 c 0
 351.51953125 334.340820312 366.319335938 334.1796875 381.0390625 333.780273438 c 1
 353.200195312 397.299804688 289.6796875 441.780273438 216.079101562 441.780273438 c 2
 119.51953125 441.780273438 l 1
 319.51953125 641.779296875 l 1
 76.798828125 641.779296875 l 1
 76.798828125 721.780273438 l 1
 727.19921875 721.780273438 l 1
 727.19921875 641.779296875 l 1
 432.638671875 641.779296875 l 1
 299.0390625 508.1796875 l 1
 380.559570312 480.66015625 444.079101562 413.779296875 466.87890625 330.180664062 c 1
 579.83984375 323.459960938 670.639648438 310.740234375 675.83984375 310.01953125 c 2
 715.439453125 304.5 l 1
 704.240234375 225.299804688 l 1
 701.078125 225.740234375 l 1
 701.119140625 224.819335938 l 1
 661.279296875 223.140625 l 2
 652 222.580078125 573.19921875 216.259765625 573.19921875 149.620117188 c 0
 573.19921875 82.580078125 681.120117188 81.7802734375 682.159179688 81.7802734375 c 2
 722.159179688 81.7802734375 l 1
 722.159179688 1.7802734375 l 1
336.799804688 254.33984375 m 2
 192.719726562 254.33984375 114.079101562 164.419921875 114.079101562 118.259765625 c 0
 114.079101562 88.66015625 148.399414062 73.619140625 216.16015625 73.619140625 c 0
 365.83984375 73.619140625 394.959960938 120.900390625 396.16015625 253.299804688 c 1
 376.479492188 253.940429688 356.639648438 254.33984375 336.87890625 254.33984375 c 2
 336.799804688 254.33984375 l 2
216.04296875 -6.3798828125 m 0
 216.028320312 -6.3798828125 216.013671875 -6.3798828125 215.999023438 -6.3798828125 c 1
 216.079101562 -6.3798828125 l 1
 216.067382812 -6.3798828125 216.0546875 -6.3798828125 216.04296875 -6.3798828125 c 0
EndSplineSet
EndChar

StartChar: unie018
Encoding: 57368 57368 26
Width: 637
VWidth: 1201
GlyphClass: 1
Flags: HMW
LayerCount: 2
Fore
SplineSet
28 1.099609375 m 1
 601.087890625 1.099609375 l 1
 601.087890625 81.1005859375 l 1
 176.364257812 81.1005859375 l 1
 597.301757812 721.099609375 l 1
 67.1044921875 721.099609375 l 1
 67.1044921875 641.099609375 l 1
 448.9375 641.099609375 l 1
 28 1.099609375 l 1
EndSplineSet
EndChar

StartChar: unie019
Encoding: 57369 57369 27
Width: 633
VWidth: 1201
GlyphClass: 1
Flags: HMW
LayerCount: 2
Fore
SplineSet
291.715820312 692.55078125 m 0
 247.7421875 721.338867188 194.764648438 721.338867188 31 721.338867188 c 1
 31 641.337890625 l 1
 166.337890625 641.337890625 223.892578125 641.337890625 247.978515625 625.569335938 c 0
 269.8125 611.275390625 271 561.638671875 271 441.338867188 c 0
 271 209.405273438 216.40234375 54.4423828125 216.40234375 54.4423828125 c 1
 203.290039062 16.6591796875 l 1
 278.8828125 -9.5732421875 l 1
 292.002929688 28.2353515625 l 2
 292.958007812 30.986328125 350.999023438 198.551757812 350.999023438 441.338867188 c 0
 350.999023438 471.322265625 351.100585938 497.716796875 350.635742188 521.337890625 c 1
 350.999023438 521.337890625 l 1
 350.999023438 598.923828125 350.999023438 610.490234375 357.825195312 625.165039062 c 0
 361.125976562 632.264648438 364.474609375 636.784179688 376.990234375 641.752929688 c 0
 403.5 652.279296875 460.317382812 651.65234375 485.606445312 642.081054688 c 0
 507.733398438 633.706054688 511 621.322265625 511 561.338867188 c 0
 511 176.395507812 484.220703125 49.3310546875 484.220703125 49.3310546875 c 1
 476.251953125 10.0966796875 l 1
 554.6640625 -5.8291015625 l 1
 562.62109375 33.34765625 l 2
 587.514648438 155.909179688 595.693359375 558.341796875 588.909179688 615.219726562 c 0
 576.686523438 717.717773438 490.815429688 729.385742188 430.999023438 729.385742188 c 0
 383.671875 729.385742188 333.260742188 720.678710938 302.083007812 684.80859375 c 0
 298.844726562 687.556640625 295.392578125 690.143554688 291.715820312 692.55078125 c 0
EndSplineSet
EndChar

StartChar: unie01a
Encoding: 57370 57370 28
Width: 637
VWidth: 1201
GlyphClass: 1
Flags: HMW
LayerCount: 2
Fore
SplineSet
238 1.099609375 m 0
 595.578125 1.099609375 595.578125 1.099609375 595.578125 1.099609375 c 1
 595.578125 81.1005859375 l 1
 238 81.1005859375 l 2
 163.747070312 81.1005859375 141.427734375 84.6591796875 128 122.73046875 c 0
 114.52734375 160.928710938 114.51953125 241.25 128 279.470703125 c 0
 141.4296875 317.548828125 163.765625 321.100585938 238 321.100585938 c 0
 443.204101562 321.100585938 443.204101562 321.100585938 464.682617188 323.830078125 c 0
 570.110351562 337.225585938 598 417.463867188 598 521.099609375 c 0
 598 626.537109375 568.97265625 705.119140625 464.682617188 718.37109375 c 0
 433.458984375 722.338867188 419.833984375 721.099609375 398 721.099609375 c 0
 70.421875 721.099609375 70.421875 721.099609375 70.421875 721.099609375 c 1
 70.421875 641.099609375 l 1
 398 641.099609375 l 2
 472.252929688 641.099609375 494.572265625 637.541015625 508 599.469726562 c 0
 521.47265625 561.271484375 521.48046875 480.950195312 508 442.729492188 c 0
 494.5703125 404.651367188 472.234375 401.099609375 398 401.099609375 c 0
 192.795898438 401.099609375 192.795898438 401.099609375 171.317382812 398.370117188 c 0
 65.8896484375 384.974609375 38 304.736328125 38 201.100585938 c 0
 38 95.6630859375 67.02734375 17.0810546875 171.317382812 3.8291015625 c 0
 202.541015625 -0.138671875 216.166015625 1.099609375 238 1.099609375 c 0
EndSplineSet
EndChar

StartChar: unie01b
Encoding: 57371 57371 29
Width: 644
VWidth: 1201
GlyphClass: 1
Flags: HMW
LayerCount: 2
Fore
SplineSet
520 240.859375 m 2
 520 137.466796875 478.284179688 81.1708984375 360.3125 81.1708984375 c 0
 40 81.1708984375 40 81.1708984375 40 81.1708984375 c 1
 40 1.171875 l 1
 360.3125 1.171875 l 2
 425.16015625 1.171875 480.958984375 15.47265625 523.327148438 49.3662109375 c 0
 577.03515625 92.33203125 600 159.986328125 600 240.859375 c 2
 600 481.40625 l 2
 600 546.252929688 585.69921875 602.052734375 551.8046875 644.420898438 c 0
 508.83984375 698.127929688 441.184570312 721.09375 360.3125 721.09375 c 0
 40 721.09375 40 721.09375 40 721.09375 c 1
 40 641.092773438 l 1
 360.3125 641.092773438 l 2
 463.705078125 641.092773438 520 599.377929688 520 481.40625 c 2
 520 240.859375 l 2
EndSplineSet
EndChar

StartChar: unie01c
Encoding: 57372 57372 30
Width: 656
VWidth: 1201
GlyphClass: 1
Flags: HMW
LayerCount: 2
Fore
SplineSet
367.921875 641.099609375 m 2
 486.228515625 641.099609375 528.077148438 584.625 528.077148438 480.944335938 c 0
 528.077148438 1.099609375 528.077148438 1.099609375 528.077148438 1.099609375 c 1
 608.077148438 1.099609375 l 1
 608.077148438 480.944335938 l 2
 608.077148438 545.930664062 593.747070312 601.836914062 559.790039062 644.282226562 c 0
 516.74609375 698.086914062 448.966796875 721.099609375 367.921875 721.099609375 c 2
 288.155273438 721.099609375 l 2
 223.168945312 721.099609375 167.26171875 706.76953125 124.81640625 672.8125 c 0
 71.01171875 629.768554688 48 561.990234375 48 480.944335938 c 0
 48 1.099609375 48 1.099609375 48 1.099609375 c 1
 127.999023438 1.099609375 l 1
 127.999023438 480.944335938 l 2
 127.999023438 599.250976562 184.474609375 641.099609375 288.155273438 641.099609375 c 2
 367.921875 641.099609375 l 2
EndSplineSet
EndChar

StartChar: unie01d
Encoding: 57373 57373 31
Width: 634
VWidth: 1202
GlyphClass: 1
Flags: HMW
LayerCount: 2
Fore
SplineSet
79.666015625 98.1044921875 m 0
 65.818359375 76.9609375 65.818359375 76.9609375 34 34.2509765625 c 1
 98.1474609375 -13.5361328125 l 1
 148.049804688 53.4482421875 153.518554688 60.791015625 200.49609375 154.348632812 c 0
 237.634765625 228.234375 285.826171875 342.689453125 312.65234375 479.591796875 c 0
 323.479492188 534.578125 329.831054688 576.286132812 331.25390625 607.288085938 c 2
 332.866210938 642.4296875 l 1
 475.359375 642.4296875 l 2
 493.380859375 642.4296875 502.037109375 638.315429688 505.708007812 635.37890625 c 0
 509.548828125 632.3046875 515.358398438 625.146484375 515.358398438 602.430664062 c 0
 515.358398438 563.719726562 514.14453125 355.715820312 487.928710938 223.411132812 c 0
 480.208007812 184.708007812 472.580078125 152.06640625 465.1484375 125.607421875 c 0
 457.646484375 99.126953125 450.876953125 81.2958984375 448.430664062 76.7294921875 c 0
 448.408203125 76.6875 421.416015625 26.7783203125 421.143554688 26.2734375 c 2
 491.515625 -11.7841796875 l 1
 518.848632812 38.7568359375 l 2
 538.373046875 75.2001953125 557.538085938 163.358398438 566.3828125 207.700195312 c 0
 572.341796875 237.7734375 595.359375 369.494140625 595.359375 602.430664062 c 0
 595.359375 631.815429688 588.939453125 660.03125 570.805664062 682.698242188 c 0
 547.541992188 711.779296875 511.901367188 722.430664062 475.359375 722.430664062 c 0
 35.0458984375 722.430664062 35.0458984375 722.430664062 35.0458984375 722.430664062 c 1
 35.0458984375 642.4296875 l 1
 252.780273438 642.4296875 l 1
 252.009765625 625.638671875 251.33984375 611.02734375 251.338867188 611.009765625 c 0
 251.12890625 606.6328125 239.646484375 410.385742188 128.971679688 190.19921875 c 0
 104.56640625 141.594726562 87.10546875 109.485351562 79.666015625 98.1044921875 c 0
EndSplineSet
EndChar

StartChar: unie01e
Encoding: 57374 57374 32
Width: 640
VWidth: 1200
GlyphClass: 1
Flags: HMW
LayerCount: 2
Fore
SplineSet
343.48046875 29.6494140625 m 0
 387.454101562 0.861328125 440.431640625 0.861328125 604.196289062 0.861328125 c 1
 604.196289062 80.861328125 l 1
 468.858398438 80.861328125 411.303710938 80.861328125 387.217773438 96.630859375 c 0
 365.383789062 110.924804688 364.196289062 160.560546875 364.196289062 280.861328125 c 0
 364.196289062 512.794921875 418.793945312 667.7578125 418.793945312 667.7578125 c 1
 431.90625 705.541015625 l 1
 356.313476562 731.7734375 l 1
 343.193359375 693.96484375 l 2
 342.23828125 691.213867188 284.197265625 523.6484375 284.197265625 280.861328125 c 0
 284.197265625 250.877929688 284.095703125 224.483398438 284.560546875 200.861328125 c 1
 284.197265625 200.861328125 l 1
 284.197265625 123.276367188 284.197265625 111.709960938 277.37109375 97.03515625 c 0
 274.0703125 89.935546875 270.721679688 85.416015625 258.206054688 80.447265625 c 0
 231.696289062 69.9208984375 174.87890625 70.5478515625 149.58984375 80.119140625 c 0
 127.462890625 88.494140625 124.196289062 100.876953125 124.196289062 160.861328125 c 0
 124.196289062 545.8046875 150.975585938 672.869140625 150.975585938 672.869140625 c 1
 158.944335938 712.103515625 l 1
 80.5322265625 728.029296875 l 1
 72.5751953125 688.852539062 l 2
 47.681640625 566.291015625 39.5029296875 163.858398438 46.287109375 106.98046875 c 0
 58.509765625 4.482421875 144.380859375 -7.185546875 204.197265625 -7.185546875 c 0
 251.524414062 -7.185546875 301.935546875 1.521484375 333.11328125 37.3916015625 c 0
 336.3515625 34.6435546875 339.803710938 32.056640625 343.48046875 29.6494140625 c 0
EndSplineSet
EndChar

StartChar: unie01f
Encoding: 57375 57375 33
Width: 654
VWidth: 1201
GlyphClass: 1
Flags: HMW
LayerCount: 2
Fore
SplineSet
287.155273438 81.1005859375 m 2
 168.848632812 81.1005859375 127 137.575195312 127 241.255859375 c 0
 127 721.099609375 127 721.099609375 127 721.099609375 c 1
 47 721.099609375 l 1
 47 241.255859375 l 2
 47 176.26953125 61.3310546875 120.36328125 95.287109375 77.91796875 c 0
 138.331054688 24.11328125 206.110351562 1.099609375 287.155273438 1.099609375 c 2
 366.921875 1.099609375 l 2
 431.908203125 1.099609375 487.815429688 15.4306640625 530.260742188 49.38671875 c 0
 584.065429688 92.431640625 607.077148438 160.209960938 607.077148438 241.255859375 c 0
 607.077148438 721.099609375 607.077148438 721.099609375 607.077148438 721.099609375 c 1
 527.078125 721.099609375 l 1
 527.078125 241.255859375 l 2
 527.078125 122.94921875 470.602539062 81.1005859375 366.921875 81.1005859375 c 2
 287.155273438 81.1005859375 l 2
EndSplineSet
EndChar

StartChar: unie020
Encoding: 57376 57376 34
Width: 642
VWidth: 1201
GlyphClass: 1
Flags: HMW
LayerCount: 2
Fore
SplineSet
282.6875 721.028320312 m 2
 186.223632812 721.028320312 43 686.486328125 43 481.340820312 c 2
 43 240.793945312 l 2
 43 175.947265625 57.30078125 120.146484375 91.1953125 77.779296875 c 0
 134.16015625 24.072265625 201.815429688 1.1064453125 282.6875 1.1064453125 c 0
 603 1.1064453125 603 1.1064453125 603 1.1064453125 c 1
 603 81.107421875 l 1
 282.6875 81.107421875 l 2
 179.294921875 81.107421875 123 122.822265625 123 240.793945312 c 2
 123 481.340820312 l 2
 123 584.733398438 164.715820312 641.029296875 282.6875 641.029296875 c 0
 603 641.029296875 603 641.029296875 603 641.029296875 c 1
 603 721.028320312 l 1
 282.6875 721.028320312 l 2
EndSplineSet
EndChar

StartChar: unie021
Encoding: 57377 57377 35
Width: 637
VWidth: 1199
GlyphClass: 1
Flags: HMW
LayerCount: 2
Fore
SplineSet
557.693359375 624.095703125 m 0
 571.541015625 645.239257812 571.541015625 645.239257812 603.359375 687.94921875 c 1
 539.211914062 735.736328125 l 1
 489.309570312 668.751953125 483.840820312 661.409179688 436.86328125 567.8515625 c 0
 399.724609375 493.965820312 351.533203125 379.510742188 324.70703125 242.607421875 c 0
 313.879882812 187.622070312 307.528320312 145.9140625 306.10546875 114.912109375 c 2
 304.493164062 79.76953125 l 1
 162 79.76953125 l 2
 143.978515625 79.76953125 135.322265625 83.884765625 131.651367188 86.8212890625 c 0
 127.810546875 89.89453125 122.000976562 97.0537109375 122.000976562 119.76953125 c 0
 122.000976562 158.48046875 123.21484375 366.484375 149.430664062 498.7890625 c 0
 157.151367188 537.4921875 164.779296875 570.133789062 172.2109375 596.592773438 c 0
 179.712890625 623.073242188 186.482421875 640.904296875 188.928710938 645.470703125 c 2
 216.215820312 695.926757812 l 1
 145.84375 733.984375 l 1
 118.510742188 683.443359375 l 2
 98.986328125 647 79.8212890625 558.841796875 70.9765625 514.5 c 0
 65.017578125 484.426757812 42 352.705078125 42 119.76953125 c 0
 42 49.9765625 80.99609375 -0.23046875 162 -0.23046875 c 0
 602.313476562 -0.23046875 602.313476562 -0.23046875 602.313476562 -0.23046875 c 1
 602.313476562 79.76953125 l 1
 384.579101562 79.76953125 l 1
 386.020507812 111.190429688 l 2
 386.23046875 115.567382812 397.712890625 311.814453125 508.387695312 532.000976562 c 0
 532.79296875 580.60546875 550.25390625 612.71484375 557.693359375 624.095703125 c 0
EndSplineSet
EndChar

StartChar: unie022
Encoding: 57378 57378 36
Width: 639
VWidth: 1200
GlyphClass: 1
Flags: HMW
LayerCount: 2
Fore
SplineSet
362.825195312 97.03515625 m 0
 355.999023438 111.709960938 355.999023438 123.276367188 355.999023438 200.861328125 c 1
 355.635742188 200.861328125 l 1
 356.100585938 224.483398438 355.999023438 250.877929688 355.999023438 280.861328125 c 0
 355.999023438 523.6484375 297.958984375 691.213867188 297.00390625 693.96484375 c 2
 283.8828125 731.7734375 l 1
 208.290039062 705.541015625 l 1
 221.40234375 667.7578125 l 1
 221.40234375 667.7578125 276 512.794921875 276 280.861328125 c 0
 276 160.686523438 274.827148438 110.934570312 252.978515625 96.630859375 c 0
 228.892578125 80.861328125 171.338867188 80.861328125 36 80.861328125 c 1
 36 0.861328125 l 1
 199.764648438 0.861328125 252.743164062 0.861328125 296.716796875 29.6494140625 c 0
 300.416992188 32.072265625 303.889648438 34.6767578125 307.146484375 37.4453125 c 0
 341.674804688 -2.310546875 397.999023438 -7.185546875 436 -7.185546875 c 0
 509.717773438 -7.185546875 582.657226562 12.623046875 593.91015625 106.98046875 c 0
 597.08984375 133.651367188 595.999023438 143.500976562 595.999023438 160.861328125 c 0
 595.999023438 547.030273438 568.345703125 685.290039062 567.62109375 688.852539062 c 2
 559.6640625 728.029296875 l 1
 481.252929688 712.103515625 l 1
 489.221679688 672.869140625 l 1
 489.221679688 672.869140625 516 545.8046875 516 160.861328125 c 0
 516 100.856445312 512.7265625 88.490234375 490.606445312 80.119140625 c 0
 465.31640625 70.546875 408.498046875 69.921875 381.990234375 80.447265625 c 0
 369.474609375 85.416015625 366.126953125 89.935546875 362.825195312 97.03515625 c 0
EndSplineSet
EndChar

StartChar: unie023
Encoding: 57379 57379 37
Width: 638
VWidth: 1201
GlyphClass: 1
Flags: HMW
LayerCount: 2
Fore
SplineSet
400 81.1005859375 m 2
 42.421875 81.1005859375 l 1
 42.421875 1.099609375 l 1
 400 1.099609375 l 2
 444.09375 1.099609375 485.16796875 1.283203125 521.095703125 19.412109375 c 0
 596.375 57.396484375 600 153.850585938 600 201.100585938 c 0
 600 306.536132812 570.97265625 385.120117188 466.682617188 398.370117188 c 0
 435.458984375 402.337890625 421.833984375 401.099609375 400 401.099609375 c 0
 199.916992188 401.099609375 199.916992188 401.099609375 183.483398438 403.1875 c 0
 147.365234375 407.77734375 137.639648438 421.068359375 130 442.729492188 c 0
 116.52734375 480.928710938 116.51953125 561.249023438 130 599.469726562 c 0
 143.4296875 637.547851562 165.765625 641.099609375 240 641.099609375 c 0
 567.578125 641.099609375 567.578125 641.099609375 567.578125 641.099609375 c 1
 567.578125 721.099609375 l 1
 240 721.099609375 l 2
 195.90625 721.099609375 154.83203125 720.916992188 118.904296875 702.788085938 c 0
 43.625 664.802734375 40 568.349609375 40 521.099609375 c 0
 40 415.6640625 69.02734375 337.080078125 173.317382812 323.830078125 c 0
 204.541015625 319.861328125 218.166015625 321.100585938 240 321.100585938 c 0
 440.083007812 321.100585938 440.083007812 321.100585938 456.516601562 319.01171875 c 0
 492.634765625 314.422851562 502.360351562 301.131835938 510 279.470703125 c 0
 523.47265625 241.271484375 523.48046875 160.951171875 510 122.73046875 c 0
 496.5703125 84.65234375 474.234375 81.1005859375 400 81.1005859375 c 2
EndSplineSet
EndChar

StartChar: unie024
Encoding: 57380 57380 38
Width: 675
VWidth: 1201
GlyphClass: 1
Flags: HMW
LayerCount: 2
Fore
SplineSet
547.99609375 241.241210938 m 2
 547.99609375 137.641601562 506.177734375 81.2412109375 387.99609375 81.2412109375 c 2
 187.9921875 81.2412109375 l 1
 547.99609375 561.227539062 l 1
 547.99609375 241.241210938 l 2
627.99609375 678.584960938 m 2
 627.99609375 713.637695312 588.776367188 730.758789062 562.8671875 711.545898438 c 0
 557.390625 707.485351562 556.603515625 706.928710938 554.415039062 703.099609375 c 0
 549.59765625 695.766601562 537.359375 680.359375 28 1.2412109375 c 1
 387.99609375 1.2412109375 l 2
 452.936523438 1.2412109375 508.807617188 15.5615234375 551.227539062 49.498046875 c 0
 604.999023438 92.5146484375 627.99609375 160.252929688 627.99609375 241.241210938 c 2
 627.99609375 678.584960938 l 2
EndSplineSet
EndChar

StartChar: unie025
Encoding: 57381 57381 39
Width: 633
VWidth: 1201
GlyphClass: 1
Flags: HMW
LayerCount: 2
Fore
SplineSet
275.349609375 623.313476562 m 0
 282.180664062 608.6171875 282.180664062 597.036132812 282.180664062 519.444335938 c 1
 282.543945312 519.444335938 l 1
 282.079101562 495.822265625 282.180664062 469.427734375 282.180664062 439.443359375 c 0
 282.180664062 196.657226562 340.220703125 29.091796875 341.17578125 26.341796875 c 2
 354.296875 -11.4677734375 l 1
 429.889648438 14.763671875 l 1
 416.77734375 52.546875 l 1
 416.77734375 52.546875 362.1796875 207.510742188 362.1796875 439.443359375 c 0
 362.1796875 559.619140625 363.352539062 609.37109375 385.201171875 623.67578125 c 0
 409.287109375 639.444335938 466.840820312 639.444335938 602.1796875 639.444335938 c 1
 602.1796875 719.444335938 l 1
 438.415039062 719.444335938 385.436523438 719.444335938 341.462890625 690.655273438 c 0
 337.771484375 688.23828125 334.306640625 685.640625 331.056640625 682.879882812 c 0
 296.516601562 722.69921875 240.149414062 727.569335938 202.1796875 727.569335938 c 0
 128.413085938 727.569335938 55.517578125 707.701171875 44.2685546875 613.334960938 c 0
 41.0908203125 586.66796875 42.1806640625 576.8046875 42.1806640625 559.443359375 c 0
 42.1806640625 173.274414062 69.833984375 35.015625 70.55859375 31.4521484375 c 2
 78.515625 -7.724609375 l 1
 156.926757812 8.201171875 l 1
 148.958007812 47.4365234375 l 1
 148.958007812 47.4365234375 122.1796875 174.501953125 122.1796875 559.443359375 c 0
 122.1796875 619.458984375 125.455078125 631.873046875 147.586914062 640.2578125 c 0
 172.861328125 649.833984375 229.662109375 650.467773438 256.17578125 639.930664062 c 0
 268.686523438 634.958007812 272.041015625 630.431640625 275.349609375 623.313476562 c 0
EndSplineSet
EndChar

StartChar: unie026
Encoding: 57382 57382 40
Width: 676
VWidth: 1200
GlyphClass: 1
Flags: HMW
LayerCount: 2
Fore
SplineSet
128 480.958984375 m 2
 128 584.55859375 169.818359375 640.958007812 288 640.958007812 c 2
 488.00390625 640.958007812 l 1
 128 160.97265625 l 1
 128 480.958984375 l 2
48 43.615234375 m 2
 48 8.5615234375 87.2197265625 -8.5595703125 113.12890625 10.6533203125 c 0
 118.60546875 14.7138671875 119.392578125 15.2705078125 121.581054688 19.1005859375 c 0
 124.081054688 22.904296875 642.731445312 713.940429688 647.99609375 720.958984375 c 1
 288 720.958984375 l 2
 223.059570312 720.958984375 167.188476562 706.638671875 124.768554688 672.702148438 c 0
 70.9970703125 629.684570312 48 561.947265625 48 480.958984375 c 0
 48 43.615234375 48 43.615234375 48 43.615234375 c 2
EndSplineSet
EndChar

StartChar: unie027
Encoding: 57383 57383 41
Width: 288
VWidth: 1201
GlyphClass: 1
Flags: HMW
LayerCount: 2
Fore
SplineSet
158.28125 401.099609375 m 1
 130 401.099609375 l 1
 130 720.241210938 l 1
 50 720.241210938 l 1
 50 401.099609375 l 1
 50 321.100585938 l 1
 50 1.958984375 l 1
 130 1.958984375 l 1
 130 321.100585938 l 1
 158.28125 321.100585938 l 1
 158.28125 1.958984375 l 1
 238.28125 1.958984375 l 1
 238.28125 321.100585938 l 1
 238.28125 401.099609375 l 1
 238.28125 720.241210938 l 1
 158.28125 720.241210938 l 1
 158.28125 401.099609375 l 1
EndSplineSet
EndChar

StartChar: unie028
Encoding: 57384 57384 42
Width: 654
VWidth: 1201
GlyphClass: 1
Flags: HMW
LayerCount: 2
Fore
SplineSet
245.489257812 641.099609375 m 1
 182.369140625 641.099609375 127.809570312 598.30078125 118.609375 541.5 c 0
 112.76953125 505.5 122.2890625 470.620117188 145.489257812 443.33984375 c 0
 168.369140625 416.4609375 201.728515625 401.01953125 236.928710938 401.01953125 c 2
 525.80859375 401.01953125 l 1
 525.80859375 641.01953125 l 1
 245.489257812 641.01953125 l 1
 245.489257812 641.099609375 l 1
365.969726562 1.099609375 m 2
 45.8896484375 1.099609375 l 1
 45.8896484375 81.1005859375 l 1
 366.048828125 81.1005859375 l 2
 443.409179688 81.1005859375 499.329101562 81.1005859375 512.608398438 94.3798828125 c 0
 525.889648438 107.66015625 525.889648438 163.5 525.889648438 240.939453125 c 2
 523.96875 321.100585938 l 1
 237.009765625 321.100585938 l 2
 178.2890625 321.100585938 122.689453125 346.779296875 84.609375 391.580078125 c 0
 46.529296875 436.379882812 30.12890625 495.66015625 39.6494140625 554.379882812 c 0
 55.169921875 649.419921875 143.6484375 721.099609375 245.489257812 721.099609375 c 2
 605.80859375 721.099609375 l 1
 605.80859375 240.939453125 l 2
 605.80859375 19.099609375 587.888671875 1.099609375 365.969726562 1.099609375 c 2
EndSplineSet
EndChar

StartChar: unie029
Encoding: 57385 57385 43
Width: 655
VWidth: 1201
GlyphClass: 1
Flags: HMW
LayerCount: 2
Fore
SplineSet
538.912109375 201.100585938 m 0
 538.912109375 127.0546875 473.821289062 81.1005859375 410.311523438 81.1005859375 c 2
 129.999023438 81.1005859375 l 1
 129.999023438 81.1005859375 129.999023438 321.100585938 131.874023438 321.100585938 c 0
 418.827148438 321.100585938 418.827148438 321.100585938 418.827148438 321.100585938 c 2
 485.154296875 321.100585938 538.912109375 267.366210938 538.912109375 201.100585938 c 0
410.311523438 1.099609375 m 2
 515.774414062 1.099609375 618.911132812 79.857421875 618.911132812 201.100585938 c 0
 618.911132812 311.55078125 529.250976562 401.099609375 418.827148438 401.099609375 c 2
 131.874023438 401.099609375 l 2
 129.999023438 401.099609375 129.999023438 641.099609375 129.999023438 641.099609375 c 1
 572.264648438 641.099609375 l 1
 572.264648438 721.099609375 l 1
 50 721.099609375 l 1
 50 1.099609375 l 1
 410.311523438 1.099609375 l 2
EndSplineSet
EndChar

StartChar: unie02a
Encoding: 57386 57386 44
Width: 647
VWidth: 1201
GlyphClass: 1
Flags: HMW
LayerCount: 2
Fore
SplineSet
114.70703125 574.399414062 m 2
 122.579101562 582.6796875 190.573242188 641.0859375 287.181640625 641.0859375 c 0
 341.802734375 641.0859375 394.948242188 639.599609375 434.602539062 617.883789062 c 0
 480.80078125 592.583984375 526.556640625 532.815429688 526.556640625 361.0859375 c 0
 526.556640625 164.474609375 461.583007812 120.250976562 432.297851562 104.365234375 c 0
 391.942382812 82.4716796875 339.067382812 81.0869140625 287.181640625 81.0869140625 c 0
 188.41796875 81.0869140625 114.447265625 152.326171875 114.447265625 152.326171875 c 1
 85.791015625 180.216796875 l 1
 30.00390625 122.899414062 l 1
 58.666015625 95.0029296875 l 2
 63.169921875 90.6201171875 156.751953125 1.0859375 287.181640625 1.0859375 c 0
 410.365234375 1.0859375 606.555664062 6.4169921875 606.555664062 361.0859375 c 0
 606.555664062 544.912109375 554.993164062 643.16796875 472.944335938 688.1015625 c 0
 404.57421875 725.543945312 340.754882812 721.0859375 287.181640625 721.0859375 c 0
 148.166015625 721.0859375 61.18359375 633.962890625 58.40625 631.2109375 c 2
 30 603.057617188 l 1
 86.3037109375 546.248046875 l 1
 114.70703125 574.399414062 l 2
EndSplineSet
EndChar

StartChar: unie02b
Encoding: 57387 57387 45
Width: 647
VWidth: 1201
GlyphClass: 1
Flags: HMW
LayerCount: 2
Fore
SplineSet
359.374023438 721.111328125 m 0
 238.278320312 721.111328125 40 721.111328125 40 361.111328125 c 0
 40 260.3046875 53.998046875 100.30859375 176.193359375 34.0205078125 c 0
 244.520507812 -3.044921875 308.342773438 1.111328125 359.374023438 1.111328125 c 0
 419.461914062 1.111328125 470.83203125 19.9345703125 509.244140625 40.111328125 c 0
 557.348632812 65.3798828125 586.088867188 93.275390625 587.889648438 95.0283203125 c 2
 616.551757812 122.924804688 l 1
 560.764648438 180.2421875 l 1
 532.108398438 152.3515625 l 1
 532.108398438 152.3515625 458.137695312 81.1123046875 359.374023438 81.1123046875 c 0
 257.958007812 81.1123046875 182.849609375 88.5205078125 144.215820312 191.784179688 c 0
 129.681640625 230.631835938 119.999023438 285.471679688 119.999023438 361.111328125 c 0
 119.999023438 532.840820312 165.754882812 592.609375 211.953125 617.909179688 c 0
 251.607421875 639.625 304.752929688 641.111328125 359.374023438 641.111328125 c 0
 455.966796875 641.111328125 523.961914062 582.720703125 531.848632812 574.424804688 c 2
 560.251953125 546.2734375 l 1
 616.555664062 603.083007812 l 1
 588.149414062 631.236328125 l 2
 585.372070312 633.98828125 498.389648438 721.111328125 359.374023438 721.111328125 c 0
EndSplineSet
EndChar

StartChar: unie02c
Encoding: 57388 57388 46
Width: 180
VWidth: 1201
GlyphClass: 1
Flags: HMW
LayerCount: 2
Fore
SplineSet
130 1.099609375 m 1
 130 721.099609375 l 1
 50 721.099609375 l 1
 50 1.099609375 l 1
 130 1.099609375 l 1
EndSplineSet
EndChar

StartChar: unie02d
Encoding: 57389 57389 47
Width: 647
VWidth: 1201
GlyphClass: 1
Flags: HMW
LayerCount: 2
Fore
SplineSet
604 401.099609375 m 1
 44 401.099609375 l 1
 44 321.100585938 l 1
 604 321.100585938 l 1
 604 401.099609375 l 1
EndSplineSet
EndChar

StartChar: unie02e
Encoding: 57390 57390 48
Width: 645
VWidth: 1201
GlyphClass: 1
Flags: HMW
LayerCount: 2
Fore
SplineSet
43 1.099609375 m 1
 603 1.099609375 l 1
 603 81.1005859375 l 1
 43 81.1005859375 l 1
 43 1.099609375 l 1
603 721.099609375 m 1
 43 721.099609375 l 1
 43 641.099609375 l 1
 603 641.099609375 l 1
 603 721.099609375 l 1
EndSplineSet
EndChar

StartChar: unie02f
Encoding: 57391 57391 49
Width: 637
VWidth: 1201
GlyphClass: 1
Flags: HMW
LayerCount: 2
Fore
SplineSet
359 81.1005859375 m 1
 359 641.099609375 l 1
 599 641.099609375 l 1
 599 721.099609375 l 1
 359 721.099609375 l 1
 279 721.099609375 l 1
 39 721.099609375 l 1
 39 641.099609375 l 1
 279 641.099609375 l 1
 279 81.1005859375 l 1
 39 81.1005859375 l 1
 39 1.099609375 l 1
 279 1.099609375 l 1
 359 1.099609375 l 1
 599 1.099609375 l 1
 599 81.1005859375 l 1
 359 81.1005859375 l 1
EndSplineSet
EndChar

StartChar: unie030
Encoding: 57392 57392 50
Width: 654
VWidth: 1188
GlyphClass: 1
Flags: HMW
LayerCount: 2
Fore
SplineSet
245.489257812 628.526367188 m 1
 182.369140625 628.526367188 127.809570312 585.7265625 118.609375 528.92578125 c 0
 112.76953125 492.92578125 122.2890625 458.046875 145.489257812 430.766601562 c 0
 168.369140625 403.887695312 201.728515625 388.446289062 236.928710938 388.446289062 c 2
 525.80859375 388.446289062 l 1
 525.80859375 628.446289062 l 1
 245.489257812 628.446289062 l 1
 245.489257812 628.526367188 l 1
277.408203125 815.40625 m 0
 277.408203125 839.70703125 297.109375 859.40625 321.409179688 859.40625 c 0
 345.708984375 859.40625 365.409179688 839.70703125 365.409179688 815.40625 c 0
 365.409179688 791.106445312 345.708984375 771.407226562 321.409179688 771.407226562 c 0
 297.109375 771.407226562 277.408203125 791.106445312 277.408203125 815.40625 c 0
365.969726562 -11.4736328125 m 2
 45.8896484375 -11.4736328125 l 1
 45.8896484375 68.52734375 l 1
 366.048828125 68.52734375 l 2
 443.409179688 68.52734375 499.329101562 68.52734375 512.608398438 81.806640625 c 0
 525.889648438 95.0869140625 525.889648438 150.926757812 525.889648438 228.366210938 c 2
 523.96875 308.52734375 l 1
 237.009765625 308.52734375 l 2
 178.2890625 308.52734375 122.689453125 334.206054688 84.609375 379.006835938 c 0
 46.529296875 423.806640625 30.12890625 483.086914062 39.6494140625 541.806640625 c 0
 55.169921875 636.846679688 143.6484375 708.526367188 245.489257812 708.526367188 c 2
 605.80859375 708.526367188 l 1
 605.80859375 228.366210938 l 2
 605.80859375 6.5263671875 587.888671875 -11.4736328125 365.969726562 -11.4736328125 c 2
EndSplineSet
EndChar

StartChar: unie031
Encoding: 57393 57393 51
Width: 655
VWidth: 1188
GlyphClass: 1
Flags: HMW
LayerCount: 2
Fore
SplineSet
538.912109375 188.52734375 m 0
 538.912109375 114.481445312 473.821289062 68.52734375 410.311523438 68.52734375 c 2
 129.999023438 68.52734375 l 1
 129.999023438 68.52734375 129.999023438 308.52734375 131.874023438 308.52734375 c 0
 418.827148438 308.52734375 418.827148438 308.52734375 418.827148438 308.52734375 c 2
 485.154296875 308.52734375 538.912109375 254.79296875 538.912109375 188.52734375 c 0
410.311523438 -11.4736328125 m 2
 515.774414062 -11.4736328125 618.911132812 67.2841796875 618.911132812 188.52734375 c 0
 618.911132812 298.977539062 529.250976562 388.526367188 418.827148438 388.526367188 c 2
 131.874023438 388.526367188 l 2
 129.999023438 388.526367188 129.999023438 628.526367188 129.999023438 628.526367188 c 1
 572.264648438 628.526367188 l 1
 572.264648438 708.526367188 l 1
 50 708.526367188 l 1
 50 -11.4736328125 l 1
 410.311523438 -11.4736328125 l 2
290.452148438 815.40625 m 0
 290.452148438 839.70703125 310.15234375 859.40625 334.452148438 859.40625 c 0
 358.752929688 859.40625 378.453125 839.70703125 378.453125 815.40625 c 0
 378.453125 791.106445312 358.752929688 771.407226562 334.452148438 771.407226562 c 0
 310.15234375 771.407226562 290.452148438 791.106445312 290.452148438 815.40625 c 0
EndSplineSet
EndChar

StartChar: unie032
Encoding: 57394 57394 52
Width: 647
VWidth: 1188
GlyphClass: 1
Flags: HMW
LayerCount: 2
Fore
SplineSet
114.70703125 561.83984375 m 2
 122.579101562 570.120117188 190.573242188 628.526367188 287.181640625 628.526367188 c 0
 341.802734375 628.526367188 394.948242188 627.040039062 434.602539062 605.32421875 c 0
 480.80078125 580.024414062 526.556640625 520.255859375 526.556640625 348.526367188 c 0
 526.556640625 151.915039062 461.583007812 107.69140625 432.297851562 91.8056640625 c 0
 391.942382812 69.912109375 339.067382812 68.52734375 287.181640625 68.52734375 c 0
 188.41796875 68.52734375 114.447265625 139.766601562 114.447265625 139.766601562 c 1
 85.791015625 167.657226562 l 1
 30.00390625 110.33984375 l 1
 58.666015625 82.443359375 l 2
 63.169921875 78.060546875 156.751953125 -11.4736328125 287.181640625 -11.4736328125 c 0
 410.365234375 -11.4736328125 606.555664062 -6.142578125 606.555664062 348.526367188 c 0
 606.555664062 532.352539062 554.993164062 630.608398438 472.944335938 675.541992188 c 0
 404.57421875 712.984375 340.754882812 708.526367188 287.181640625 708.526367188 c 0
 148.166015625 708.526367188 61.18359375 621.403320312 58.40625 618.650390625 c 2
 30 590.498046875 l 1
 86.3037109375 533.688476562 l 1
 114.70703125 561.83984375 l 2
282.555664062 815.40625 m 0
 282.555664062 839.70703125 302.256835938 859.40625 326.556640625 859.40625 c 0
 350.856445312 859.40625 370.556640625 839.70703125 370.556640625 815.40625 c 0
 370.556640625 791.106445312 350.856445312 771.407226562 326.556640625 771.407226562 c 0
 302.256835938 771.407226562 282.555664062 791.106445312 282.555664062 815.40625 c 0
EndSplineSet
EndChar

StartChar: unie033
Encoding: 57395 57395 53
Width: 647
VWidth: 1188
GlyphClass: 1
Flags: HMW
LayerCount: 2
Fore
SplineSet
359.374023438 708.538085938 m 0
 238.278320312 708.538085938 40 708.538085938 40 348.538085938 c 0
 40 247.731445312 53.998046875 87.7353515625 176.193359375 21.447265625 c 0
 244.520507812 -15.6181640625 308.342773438 -11.4619140625 359.374023438 -11.4619140625 c 0
 419.461914062 -11.4619140625 470.83203125 7.361328125 509.244140625 27.5380859375 c 0
 557.348632812 52.806640625 586.088867188 80.701171875 587.889648438 82.455078125 c 2
 616.551757812 110.3515625 l 1
 560.764648438 167.668945312 l 1
 532.108398438 139.778320312 l 1
 532.108398438 139.778320312 458.137695312 68.5390625 359.374023438 68.5390625 c 0
 257.958007812 68.5390625 182.849609375 75.947265625 144.215820312 179.2109375 c 0
 129.681640625 218.05859375 119.999023438 272.8984375 119.999023438 348.538085938 c 0
 119.999023438 520.267578125 165.754882812 580.036132812 211.953125 605.3359375 c 0
 251.607421875 627.051757812 304.752929688 628.538085938 359.374023438 628.538085938 c 0
 455.966796875 628.538085938 523.961914062 570.146484375 531.848632812 561.8515625 c 2
 560.251953125 533.700195312 l 1
 616.555664062 590.509765625 l 1
 588.149414062 618.662109375 l 2
 585.372070312 621.415039062 498.389648438 708.538085938 359.374023438 708.538085938 c 0
275.999023438 815.41796875 m 0
 275.999023438 839.71875 295.69921875 859.41796875 319.999023438 859.41796875 c 0
 344.298828125 859.41796875 363.999023438 839.71875 363.999023438 815.41796875 c 0
 363.999023438 791.118164062 344.298828125 771.418945312 319.999023438 771.418945312 c 0
 295.69921875 771.418945312 275.999023438 791.118164062 275.999023438 815.41796875 c 0
EndSplineSet
EndChar

StartChar: unie034
Encoding: 57396 57396 54
Width: 180
VWidth: 1188
GlyphClass: 1
Flags: HMW
LayerCount: 2
Fore
SplineSet
130 -11.4736328125 m 1
 130 708.526367188 l 1
 50 708.526367188 l 1
 50 -11.4736328125 l 1
 130 -11.4736328125 l 1
46 815.40625 m 0
 46 839.70703125 65.7001953125 859.40625 90 859.40625 c 0
 114.299804688 859.40625 134 839.70703125 134 815.40625 c 0
 134 791.106445312 114.299804688 771.407226562 90 771.407226562 c 0
 65.7001953125 771.407226562 46 791.106445312 46 815.40625 c 0
EndSplineSet
EndChar

StartChar: unie035
Encoding: 57397 57397 55
Width: 646
VWidth: 1161
GlyphClass: 1
Flags: HMW
LayerCount: 2
Fore
SplineSet
603 361.859375 m 1
 43 361.859375 l 1
 43 281.860351562 l 1
 603 281.860351562 l 1
 603 361.859375 l 1
279 788.739257812 m 0
 279 813.041015625 298.700195312 832.740234375 323 832.740234375 c 0
 347.299804688 832.740234375 367 813.041015625 367 788.739257812 c 0
 367 764.439453125 347.299804688 744.740234375 323 744.740234375 c 0
 298.700195312 744.740234375 279 764.439453125 279 788.739257812 c 0
EndSplineSet
EndChar

StartChar: unie036
Encoding: 57398 57398 56
Width: 643
VWidth: 1188
GlyphClass: 1
Flags: HMW
LayerCount: 2
Fore
SplineSet
42 -11.4736328125 m 1
 602 -11.4736328125 l 1
 602 68.52734375 l 1
 42 68.52734375 l 1
 42 -11.4736328125 l 1
602 708.526367188 m 1
 42 708.526367188 l 1
 42 628.526367188 l 1
 602 628.526367188 l 1
 602 708.526367188 l 1
278 815.40625 m 0
 278 839.70703125 297.700195312 859.40625 322 859.40625 c 0
 346.299804688 859.40625 366 839.70703125 366 815.40625 c 0
 366 791.106445312 346.299804688 771.407226562 322 771.407226562 c 0
 297.700195312 771.407226562 278 791.106445312 278 815.40625 c 0
EndSplineSet
EndChar

StartChar: unie037
Encoding: 57399 57399 57
Width: 636
VWidth: 1188
GlyphClass: 1
Flags: HMW
LayerCount: 2
Fore
SplineSet
275 815.40625 m 0
 275 839.70703125 294.700195312 859.40625 319 859.40625 c 0
 343.299804688 859.40625 363 839.70703125 363 815.40625 c 0
 363 791.106445312 343.299804688 771.407226562 319 771.407226562 c 0
 294.700195312 771.407226562 275 791.106445312 275 815.40625 c 0
359 68.52734375 m 1
 359 628.526367188 l 1
 599 628.526367188 l 1
 599 708.526367188 l 1
 359 708.526367188 l 1
 279 708.526367188 l 1
 39 708.526367188 l 1
 39 628.526367188 l 1
 279 628.526367188 l 1
 279 68.52734375 l 1
 39 68.52734375 l 1
 39 -11.4736328125 l 1
 279 -11.4736328125 l 1
 359 -11.4736328125 l 1
 599 -11.4736328125 l 1
 599 68.52734375 l 1
 359 68.52734375 l 1
EndSplineSet
EndChar

StartChar: unie038
Encoding: 57400 57400 58
Width: 654
VWidth: 1188
GlyphClass: 1
Flags: HMW
LayerCount: 2
Fore
SplineSet
245.489257812 628.526367188 m 1
 182.369140625 628.526367188 127.809570312 585.7265625 118.609375 528.92578125 c 0
 112.76953125 492.92578125 122.2890625 458.046875 145.489257812 430.766601562 c 0
 168.369140625 403.887695312 201.728515625 388.446289062 236.928710938 388.446289062 c 2
 525.80859375 388.446289062 l 1
 525.80859375 628.446289062 l 1
 245.489257812 628.446289062 l 1
 245.489257812 628.526367188 l 1
339.168945312 815.40625 m 0
 339.168945312 839.70703125 358.868164062 859.40625 383.168945312 859.40625 c 0
 407.46875 859.40625 427.169921875 839.70703125 427.169921875 815.40625 c 0
 427.169921875 791.106445312 407.46875 771.407226562 383.168945312 771.407226562 c 0
 358.868164062 771.407226562 339.168945312 791.106445312 339.168945312 815.40625 c 0
215.6484375 815.40625 m 0
 215.6484375 839.70703125 235.348632812 859.40625 259.6484375 859.40625 c 0
 283.950195312 859.40625 303.649414062 839.70703125 303.649414062 815.40625 c 0
 303.649414062 791.106445312 283.950195312 771.407226562 259.6484375 771.407226562 c 0
 235.348632812 771.407226562 215.6484375 791.106445312 215.6484375 815.40625 c 0
365.969726562 -11.4736328125 m 2
 45.8896484375 -11.4736328125 l 1
 45.8896484375 68.52734375 l 1
 366.048828125 68.52734375 l 2
 443.409179688 68.52734375 499.329101562 68.52734375 512.608398438 81.806640625 c 0
 525.889648438 95.0869140625 525.889648438 150.926757812 525.889648438 228.366210938 c 2
 523.96875 308.52734375 l 1
 237.009765625 308.52734375 l 2
 178.2890625 308.52734375 122.689453125 334.206054688 84.609375 379.006835938 c 0
 46.529296875 423.806640625 30.12890625 483.086914062 39.6494140625 541.806640625 c 0
 55.169921875 636.846679688 143.6484375 708.526367188 245.489257812 708.526367188 c 2
 605.80859375 708.526367188 l 1
 605.80859375 228.366210938 l 2
 605.80859375 6.5263671875 587.888671875 -11.4736328125 365.969726562 -11.4736328125 c 2
EndSplineSet
EndChar

StartChar: unie039
Encoding: 57401 57401 59
Width: 655
VWidth: 1188
GlyphClass: 1
Flags: HMW
LayerCount: 2
Fore
SplineSet
538.912109375 188.52734375 m 0
 538.912109375 114.481445312 473.821289062 68.52734375 410.311523438 68.52734375 c 2
 129.999023438 68.52734375 l 1
 129.999023438 68.52734375 129.999023438 308.52734375 131.874023438 308.52734375 c 0
 418.827148438 308.52734375 418.827148438 308.52734375 418.827148438 308.52734375 c 2
 485.154296875 308.52734375 538.912109375 254.79296875 538.912109375 188.52734375 c 0
410.311523438 -11.4736328125 m 2
 515.774414062 -11.4736328125 618.911132812 67.2841796875 618.911132812 188.52734375 c 0
 618.911132812 298.977539062 529.250976562 388.526367188 418.827148438 388.526367188 c 2
 131.874023438 388.526367188 l 2
 129.999023438 388.526367188 129.999023438 628.526367188 129.999023438 628.526367188 c 1
 572.264648438 628.526367188 l 1
 572.264648438 708.526367188 l 1
 50 708.526367188 l 1
 50 -11.4736328125 l 1
 410.311523438 -11.4736328125 l 2
352.211914062 815.40625 m 0
 352.211914062 839.70703125 371.911132812 859.40625 396.212890625 859.40625 c 0
 420.512695312 859.40625 440.212890625 839.70703125 440.212890625 815.40625 c 0
 440.212890625 791.106445312 420.512695312 771.407226562 396.212890625 771.407226562 c 0
 371.911132812 771.407226562 352.211914062 791.106445312 352.211914062 815.40625 c 0
228.692382812 815.40625 m 0
 228.692382812 839.70703125 248.392578125 859.40625 272.692382812 859.40625 c 0
 296.993164062 859.40625 316.692382812 839.70703125 316.692382812 815.40625 c 0
 316.692382812 791.106445312 296.993164062 771.407226562 272.692382812 771.407226562 c 0
 248.392578125 771.407226562 228.692382812 791.106445312 228.692382812 815.40625 c 0
EndSplineSet
EndChar

StartChar: unie03a
Encoding: 57402 57402 60
Width: 647
VWidth: 1188
GlyphClass: 1
Flags: HMW
LayerCount: 2
Fore
SplineSet
114.70703125 561.83984375 m 2
 122.579101562 570.120117188 190.573242188 628.526367188 287.181640625 628.526367188 c 0
 341.802734375 628.526367188 394.948242188 627.040039062 434.602539062 605.32421875 c 0
 480.80078125 580.024414062 526.556640625 520.255859375 526.556640625 348.526367188 c 0
 526.556640625 151.915039062 461.583007812 107.69140625 432.297851562 91.8056640625 c 0
 391.942382812 69.912109375 339.067382812 68.52734375 287.181640625 68.52734375 c 0
 188.41796875 68.52734375 114.447265625 139.766601562 114.447265625 139.766601562 c 1
 85.791015625 167.657226562 l 1
 30.00390625 110.33984375 l 1
 58.666015625 82.443359375 l 2
 63.169921875 78.060546875 156.751953125 -11.4736328125 287.181640625 -11.4736328125 c 0
 410.365234375 -11.4736328125 606.555664062 -6.142578125 606.555664062 348.526367188 c 0
 606.555664062 532.352539062 554.993164062 630.608398438 472.944335938 675.541992188 c 0
 404.57421875 712.984375 340.754882812 708.526367188 287.181640625 708.526367188 c 0
 148.166015625 708.526367188 61.18359375 621.403320312 58.40625 618.650390625 c 2
 30 590.498046875 l 1
 86.3037109375 533.688476562 l 1
 114.70703125 561.83984375 l 2
344.31640625 815.40625 m 0
 344.31640625 839.70703125 364.015625 859.40625 388.31640625 859.40625 c 0
 412.616210938 859.40625 432.317382812 839.70703125 432.317382812 815.40625 c 0
 432.317382812 791.106445312 412.616210938 771.407226562 388.31640625 771.407226562 c 0
 364.015625 771.407226562 344.31640625 791.106445312 344.31640625 815.40625 c 0
220.795898438 815.40625 m 0
 220.795898438 839.70703125 240.49609375 859.40625 264.795898438 859.40625 c 0
 289.09765625 859.40625 308.796875 839.70703125 308.796875 815.40625 c 0
 308.796875 791.106445312 289.09765625 771.407226562 264.795898438 771.407226562 c 0
 240.49609375 771.407226562 220.795898438 791.106445312 220.795898438 815.40625 c 0
EndSplineSet
EndChar

StartChar: unie03b
Encoding: 57403 57403 61
Width: 647
VWidth: 1188
GlyphClass: 1
Flags: HMW
LayerCount: 2
Fore
SplineSet
359.374023438 708.538085938 m 0
 238.278320312 708.538085938 40 708.538085938 40 348.538085938 c 0
 40 247.731445312 53.998046875 87.7353515625 176.193359375 21.447265625 c 0
 244.520507812 -15.6181640625 308.342773438 -11.4619140625 359.374023438 -11.4619140625 c 0
 419.461914062 -11.4619140625 470.83203125 7.361328125 509.244140625 27.5380859375 c 0
 557.348632812 52.806640625 586.088867188 80.701171875 587.889648438 82.455078125 c 2
 616.551757812 110.3515625 l 1
 560.764648438 167.668945312 l 1
 532.108398438 139.778320312 l 1
 532.108398438 139.778320312 458.137695312 68.5390625 359.374023438 68.5390625 c 0
 257.958007812 68.5390625 182.849609375 75.947265625 144.215820312 179.2109375 c 0
 129.681640625 218.05859375 119.999023438 272.8984375 119.999023438 348.538085938 c 0
 119.999023438 520.267578125 165.754882812 580.036132812 211.953125 605.3359375 c 0
 251.607421875 627.051757812 304.752929688 628.538085938 359.374023438 628.538085938 c 0
 455.966796875 628.538085938 523.961914062 570.146484375 531.848632812 561.8515625 c 2
 560.251953125 533.700195312 l 1
 616.555664062 590.509765625 l 1
 588.149414062 618.662109375 l 2
 585.372070312 621.415039062 498.389648438 708.538085938 359.374023438 708.538085938 c 0
337.758789062 815.41796875 m 0
 337.758789062 839.71875 357.458007812 859.41796875 381.758789062 859.41796875 c 0
 406.059570312 859.41796875 425.759765625 839.71875 425.759765625 815.41796875 c 0
 425.759765625 791.118164062 406.059570312 771.418945312 381.758789062 771.418945312 c 0
 357.458007812 771.418945312 337.758789062 791.118164062 337.758789062 815.41796875 c 0
214.23828125 815.41796875 m 0
 214.23828125 839.71875 233.938476562 859.41796875 258.239257812 859.41796875 c 0
 282.540039062 859.41796875 302.239257812 839.71875 302.239257812 815.41796875 c 0
 302.239257812 791.118164062 282.540039062 771.418945312 258.239257812 771.418945312 c 0
 233.938476562 771.418945312 214.23828125 791.118164062 214.23828125 815.41796875 c 0
EndSplineSet
EndChar

StartChar: unie03c
Encoding: 57404 57404 62
Width: 264
VWidth: 1188
GlyphClass: 1
Flags: HMW
LayerCount: 2
Fore
SplineSet
171.760742188 -11.4736328125 m 1
 171.760742188 708.526367188 l 1
 91.7607421875 708.526367188 l 1
 91.7607421875 -11.4736328125 l 1
 171.760742188 -11.4736328125 l 1
149.520507812 815.40625 m 0
 149.520507812 839.70703125 169.219726562 859.40625 193.520507812 859.40625 c 0
 217.821289062 859.40625 237.521484375 839.70703125 237.521484375 815.40625 c 0
 237.521484375 791.106445312 217.821289062 771.407226562 193.520507812 771.407226562 c 0
 169.219726562 771.407226562 149.520507812 791.106445312 149.520507812 815.40625 c 0
26 815.40625 m 0
 26 839.70703125 45.7001953125 859.40625 70.0009765625 859.40625 c 0
 94.3017578125 859.40625 114.000976562 839.70703125 114.000976562 815.40625 c 0
 114.000976562 791.106445312 94.3017578125 771.407226562 70.0009765625 771.407226562 c 0
 45.7001953125 771.407226562 26 791.106445312 26 815.40625 c 0
EndSplineSet
EndChar

StartChar: unie03d
Encoding: 57405 57405 63
Width: 646
VWidth: 1161
GlyphClass: 1
Flags: HMW
LayerCount: 2
Fore
SplineSet
603 361.859375 m 1
 43 361.859375 l 1
 43 281.860351562 l 1
 603 281.860351562 l 1
 603 361.859375 l 1
340.759765625 788.739257812 m 0
 340.759765625 813.041015625 360.458984375 832.740234375 384.759765625 832.740234375 c 0
 409.060546875 832.740234375 428.760742188 813.041015625 428.760742188 788.739257812 c 0
 428.760742188 764.439453125 409.060546875 744.740234375 384.759765625 744.740234375 c 0
 360.458984375 744.740234375 340.759765625 764.439453125 340.759765625 788.739257812 c 0
217.239257812 788.739257812 m 0
 217.239257812 813.041015625 236.939453125 832.740234375 261.240234375 832.740234375 c 0
 285.541015625 832.740234375 305.240234375 813.041015625 305.240234375 788.739257812 c 0
 305.240234375 764.439453125 285.541015625 744.740234375 261.240234375 744.740234375 c 0
 236.939453125 744.740234375 217.239257812 764.439453125 217.239257812 788.739257812 c 0
EndSplineSet
EndChar

StartChar: unie03e
Encoding: 57406 57406 64
Width: 643
VWidth: 1188
GlyphClass: 1
Flags: HMW
LayerCount: 2
Fore
SplineSet
42 -11.4736328125 m 1
 602 -11.4736328125 l 1
 602 68.52734375 l 1
 42 68.52734375 l 1
 42 -11.4736328125 l 1
602 708.526367188 m 1
 42 708.526367188 l 1
 42 628.526367188 l 1
 602 628.526367188 l 1
 602 708.526367188 l 1
339.759765625 815.40625 m 0
 339.759765625 839.70703125 359.458984375 859.40625 383.759765625 859.40625 c 0
 408.060546875 859.40625 427.760742188 839.70703125 427.760742188 815.40625 c 0
 427.760742188 791.106445312 408.060546875 771.407226562 383.759765625 771.407226562 c 0
 359.458984375 771.407226562 339.759765625 791.106445312 339.759765625 815.40625 c 0
216.239257812 815.40625 m 0
 216.239257812 839.70703125 235.939453125 859.40625 260.240234375 859.40625 c 0
 284.541015625 859.40625 304.240234375 839.70703125 304.240234375 815.40625 c 0
 304.240234375 791.106445312 284.541015625 771.407226562 260.240234375 771.407226562 c 0
 235.939453125 771.407226562 216.239257812 791.106445312 216.239257812 815.40625 c 0
EndSplineSet
EndChar

StartChar: unie03f
Encoding: 57407 57407 65
Width: 636
VWidth: 1188
GlyphClass: 1
Flags: HMW
LayerCount: 2
Fore
SplineSet
336.759765625 815.40625 m 0
 336.759765625 839.70703125 356.458984375 859.40625 380.759765625 859.40625 c 0
 405.060546875 859.40625 424.760742188 839.70703125 424.760742188 815.40625 c 0
 424.760742188 791.106445312 405.060546875 771.407226562 380.759765625 771.407226562 c 0
 356.458984375 771.407226562 336.759765625 791.106445312 336.759765625 815.40625 c 0
213.239257812 815.40625 m 0
 213.239257812 839.70703125 232.939453125 859.40625 257.240234375 859.40625 c 0
 281.541015625 859.40625 301.240234375 839.70703125 301.240234375 815.40625 c 0
 301.240234375 791.106445312 281.541015625 771.407226562 257.240234375 771.407226562 c 0
 232.939453125 771.407226562 213.239257812 791.106445312 213.239257812 815.40625 c 0
359 68.52734375 m 1
 359 628.526367188 l 1
 599 628.526367188 l 1
 599 708.526367188 l 1
 359 708.526367188 l 1
 279 708.526367188 l 1
 39 708.526367188 l 1
 39 628.526367188 l 1
 279 628.526367188 l 1
 279 68.52734375 l 1
 39 68.52734375 l 1
 39 -11.4736328125 l 1
 279 -11.4736328125 l 1
 359 -11.4736328125 l 1
 599 -11.4736328125 l 1
 599 68.52734375 l 1
 359 68.52734375 l 1
EndSplineSet
EndChar

StartChar: unie040
Encoding: 57408 57408 66
Width: 654
VWidth: 1189
GlyphClass: 1
Flags: HMW
LayerCount: 2
Fore
SplineSet
245.489257812 629.8125 m 1
 182.369140625 629.8125 127.809570312 587.013671875 118.609375 530.212890625 c 0
 112.76953125 494.212890625 122.2890625 459.333007812 145.489257812 432.052734375 c 0
 168.369140625 405.173828125 201.728515625 389.733398438 236.928710938 389.733398438 c 2
 525.80859375 389.733398438 l 1
 525.80859375 629.733398438 l 1
 245.489257812 629.733398438 l 1
 245.489257812 629.8125 l 1
217.008789062 788.1328125 m 1
 217.008789062 845.252929688 l 1
 425.729492188 845.252929688 l 1
 425.729492188 788.1328125 l 1
 217.008789062 788.1328125 l 1
365.969726562 -10.1865234375 m 2
 45.8896484375 -10.1865234375 l 1
 45.8896484375 69.8134765625 l 1
 366.048828125 69.8134765625 l 2
 443.409179688 69.8134765625 499.329101562 69.8134765625 512.608398438 83.09375 c 0
 525.889648438 96.373046875 525.889648438 152.212890625 525.889648438 229.65234375 c 2
 523.96875 309.813476562 l 1
 237.009765625 309.813476562 l 2
 178.2890625 309.813476562 122.689453125 335.493164062 84.609375 380.293945312 c 0
 46.529296875 425.09375 30.12890625 484.374023438 39.6494140625 543.092773438 c 0
 55.169921875 638.1328125 143.6484375 709.813476562 245.489257812 709.813476562 c 2
 605.80859375 709.813476562 l 1
 605.80859375 229.65234375 l 2
 605.80859375 7.8134765625 587.888671875 -10.1865234375 365.969726562 -10.1865234375 c 2
EndSplineSet
EndChar

StartChar: unie041
Encoding: 57409 57409 67
Width: 655
VWidth: 1189
GlyphClass: 1
Flags: HMW
LayerCount: 2
Fore
SplineSet
538.912109375 189.813476562 m 0
 538.912109375 115.767578125 473.821289062 69.8134765625 410.311523438 69.8134765625 c 2
 129.999023438 69.8134765625 l 1
 129.999023438 69.8134765625 129.999023438 309.813476562 131.874023438 309.813476562 c 0
 418.827148438 309.813476562 418.827148438 309.813476562 418.827148438 309.813476562 c 2
 485.154296875 309.813476562 538.912109375 256.080078125 538.912109375 189.813476562 c 0
410.311523438 -10.1865234375 m 2
 515.774414062 -10.1865234375 618.911132812 68.5703125 618.911132812 189.813476562 c 0
 618.911132812 300.263671875 529.250976562 389.8125 418.827148438 389.8125 c 2
 131.874023438 389.8125 l 2
 129.999023438 389.8125 129.999023438 629.8125 129.999023438 629.8125 c 1
 572.264648438 629.8125 l 1
 572.264648438 709.813476562 l 1
 50 709.813476562 l 1
 50 -10.1865234375 l 1
 410.311523438 -10.1865234375 l 2
230.052734375 788.1328125 m 1
 230.052734375 845.252929688 l 1
 438.772460938 845.252929688 l 1
 438.772460938 788.1328125 l 1
 230.052734375 788.1328125 l 1
EndSplineSet
EndChar

StartChar: unie042
Encoding: 57410 57410 68
Width: 647
VWidth: 1189
GlyphClass: 1
Flags: HMW
LayerCount: 2
Fore
SplineSet
114.70703125 563.125976562 m 2
 122.579101562 571.40625 190.573242188 629.8125 287.181640625 629.8125 c 0
 341.802734375 629.8125 394.948242188 628.327148438 434.602539062 606.611328125 c 0
 480.80078125 581.311523438 526.556640625 521.541992188 526.556640625 349.813476562 c 0
 526.556640625 153.202148438 461.583007812 108.977539062 432.297851562 93.091796875 c 0
 391.942382812 71.19921875 339.067382812 69.8134765625 287.181640625 69.8134765625 c 0
 188.41796875 69.8134765625 114.447265625 141.053710938 114.447265625 141.053710938 c 1
 85.791015625 168.944335938 l 1
 30.00390625 111.625976562 l 1
 58.666015625 83.7294921875 l 2
 63.169921875 79.3466796875 156.751953125 -10.1865234375 287.181640625 -10.1865234375 c 0
 410.365234375 -10.1865234375 606.555664062 -4.85546875 606.555664062 349.813476562 c 0
 606.555664062 533.639648438 554.993164062 631.895507812 472.944335938 676.828125 c 0
 404.57421875 714.271484375 340.754882812 709.813476562 287.181640625 709.813476562 c 0
 148.166015625 709.813476562 61.18359375 622.690429688 58.40625 619.9375 c 2
 30 591.784179688 l 1
 86.3037109375 534.975585938 l 1
 114.70703125 563.125976562 l 2
222.15625 788.1328125 m 1
 222.15625 845.252929688 l 1
 430.876953125 845.252929688 l 1
 430.876953125 788.1328125 l 1
 222.15625 788.1328125 l 1
EndSplineSet
EndChar

StartChar: unie043
Encoding: 57411 57411 69
Width: 647
VWidth: 1189
GlyphClass: 1
Flags: HMW
LayerCount: 2
Fore
SplineSet
359.374023438 709.825195312 m 0
 238.278320312 709.825195312 40 709.825195312 40 349.825195312 c 0
 40 249.017578125 53.998046875 89.021484375 176.193359375 22.7333984375 c 0
 244.520507812 -14.33203125 308.342773438 -10.1748046875 359.374023438 -10.1748046875 c 0
 419.461914062 -10.1748046875 470.83203125 8.6474609375 509.244140625 28.8251953125 c 0
 557.348632812 54.0927734375 586.088867188 81.98828125 587.889648438 83.7412109375 c 2
 616.551757812 111.637695312 l 1
 560.764648438 168.955078125 l 1
 532.108398438 141.064453125 l 1
 532.108398438 141.064453125 458.137695312 69.8251953125 359.374023438 69.8251953125 c 0
 257.958007812 69.8251953125 182.849609375 77.234375 144.215820312 180.497070312 c 0
 129.681640625 219.344726562 119.999023438 274.185546875 119.999023438 349.825195312 c 0
 119.999023438 521.553710938 165.754882812 581.323242188 211.953125 606.623046875 c 0
 251.607421875 628.338867188 304.752929688 629.82421875 359.374023438 629.82421875 c 0
 455.966796875 629.82421875 523.961914062 571.43359375 531.848632812 563.137695312 c 2
 560.251953125 534.987304688 l 1
 616.555664062 591.795898438 l 1
 588.149414062 619.94921875 l 2
 585.372070312 622.702148438 498.389648438 709.825195312 359.374023438 709.825195312 c 0
215.598632812 788.14453125 m 1
 215.598632812 845.264648438 l 1
 424.319335938 845.264648438 l 1
 424.319335938 788.14453125 l 1
 215.598632812 788.14453125 l 1
EndSplineSet
EndChar

StartChar: unie044
Encoding: 57412 57412 70
Width: 261
VWidth: 1189
GlyphClass: 1
Flags: HMW
LayerCount: 2
Fore
SplineSet
170.399414062 -10.1865234375 m 1
 170.399414062 709.813476562 l 1
 90.400390625 709.813476562 l 1
 90.400390625 -10.1865234375 l 1
 170.399414062 -10.1865234375 l 1
26 788.1328125 m 1
 26 845.252929688 l 1
 234.720703125 845.252929688 l 1
 234.720703125 788.1328125 l 1
 26 788.1328125 l 1
EndSplineSet
EndChar

StartChar: unie045
Encoding: 57413 57413 71
Width: 646
VWidth: 1163
GlyphClass: 1
Flags: HMW
LayerCount: 2
Fore
SplineSet
603 363.146484375 m 1
 43 363.146484375 l 1
 43 283.147460938 l 1
 603 283.147460938 l 1
 603 363.146484375 l 1
218.599609375 761.466796875 m 1
 218.599609375 818.5859375 l 1
 427.3203125 818.5859375 l 1
 427.3203125 761.466796875 l 1
 218.599609375 761.466796875 l 1
EndSplineSet
EndChar

StartChar: unie046
Encoding: 57414 57414 72
Width: 643
VWidth: 1189
GlyphClass: 1
Flags: HMW
LayerCount: 2
Fore
SplineSet
42 -10.1865234375 m 1
 602 -10.1865234375 l 1
 602 69.8134765625 l 1
 42 69.8134765625 l 1
 42 -10.1865234375 l 1
602 709.813476562 m 1
 42 709.813476562 l 1
 42 629.8125 l 1
 602 629.8125 l 1
 602 709.813476562 l 1
217.599609375 788.1328125 m 1
 217.599609375 845.252929688 l 1
 426.3203125 845.252929688 l 1
 426.3203125 788.1328125 l 1
 217.599609375 788.1328125 l 1
EndSplineSet
EndChar

StartChar: unie047
Encoding: 57415 57415 73
Width: 636
VWidth: 1189
GlyphClass: 1
Flags: HMW
LayerCount: 2
Fore
SplineSet
214.599609375 788.1328125 m 1
 214.599609375 845.252929688 l 1
 423.3203125 845.252929688 l 1
 423.3203125 788.1328125 l 1
 214.599609375 788.1328125 l 1
359 69.8134765625 m 1
 359 629.8125 l 1
 599 629.8125 l 1
 599 709.813476562 l 1
 359 709.813476562 l 1
 279 709.813476562 l 1
 39 709.813476562 l 1
 39 629.8125 l 1
 279 629.8125 l 1
 279 69.8134765625 l 1
 39 69.8134765625 l 1
 39 -10.1865234375 l 1
 279 -10.1865234375 l 1
 359 -10.1865234375 l 1
 599 -10.1865234375 l 1
 599 69.8134765625 l 1
 359 69.8134765625 l 1
EndSplineSet
EndChar

StartChar: unie048
Encoding: 57416 57416 74
Width: 654
VWidth: 1188
GlyphClass: 1
Flags: HMW
LayerCount: 2
Fore
SplineSet
245.489257812 628.526367188 m 1
 182.369140625 628.526367188 127.809570312 585.7265625 118.609375 528.92578125 c 0
 112.76953125 492.92578125 122.2890625 458.046875 145.489257812 430.766601562 c 0
 168.369140625 403.887695312 201.728515625 388.446289062 236.928710938 388.446289062 c 2
 525.80859375 388.446289062 l 1
 525.80859375 628.446289062 l 1
 245.489257812 628.446289062 l 1
 245.489257812 628.526367188 l 1
395.249023438 815.40625 m 0
 395.249023438 839.70703125 414.948242188 859.40625 439.249023438 859.40625 c 0
 463.548828125 859.40625 483.248046875 839.70703125 483.248046875 815.40625 c 0
 483.248046875 791.106445312 463.548828125 771.407226562 439.249023438 771.407226562 c 0
 414.948242188 771.407226562 395.249023438 791.106445312 395.249023438 815.40625 c 0
277.408203125 815.40625 m 0
 277.408203125 839.70703125 297.109375 859.40625 321.409179688 859.40625 c 0
 345.708984375 859.40625 365.409179688 839.70703125 365.409179688 815.40625 c 0
 365.409179688 791.106445312 345.708984375 771.407226562 321.409179688 771.407226562 c 0
 297.109375 771.407226562 277.408203125 791.106445312 277.408203125 815.40625 c 0
159.569335938 815.40625 m 0
 159.569335938 839.70703125 179.268554688 859.40625 203.568359375 859.40625 c 0
 227.870117188 859.40625 247.569335938 839.70703125 247.569335938 815.40625 c 0
 247.569335938 791.106445312 227.870117188 771.407226562 203.568359375 771.407226562 c 0
 179.268554688 771.407226562 159.569335938 791.106445312 159.569335938 815.40625 c 0
365.969726562 -11.4736328125 m 2
 45.8896484375 -11.4736328125 l 1
 45.8896484375 68.52734375 l 1
 366.048828125 68.52734375 l 2
 443.409179688 68.52734375 499.329101562 68.52734375 512.608398438 81.806640625 c 0
 525.889648438 95.0869140625 525.889648438 150.926757812 525.889648438 228.366210938 c 2
 523.96875 308.52734375 l 1
 237.009765625 308.52734375 l 2
 178.2890625 308.52734375 122.689453125 334.206054688 84.609375 379.006835938 c 0
 46.529296875 423.806640625 30.12890625 483.086914062 39.6494140625 541.806640625 c 0
 55.169921875 636.846679688 143.6484375 708.526367188 245.489257812 708.526367188 c 2
 605.80859375 708.526367188 l 1
 605.80859375 228.366210938 l 2
 605.80859375 6.5263671875 587.888671875 -11.4736328125 365.969726562 -11.4736328125 c 2
EndSplineSet
EndChar

StartChar: unie049
Encoding: 57417 57417 75
Width: 655
VWidth: 1188
GlyphClass: 1
Flags: HMW
LayerCount: 2
Fore
SplineSet
538.912109375 188.52734375 m 0
 538.912109375 114.481445312 473.821289062 68.52734375 410.311523438 68.52734375 c 2
 129.999023438 68.52734375 l 1
 129.999023438 68.52734375 129.999023438 308.52734375 131.874023438 308.52734375 c 0
 418.827148438 308.52734375 418.827148438 308.52734375 418.827148438 308.52734375 c 2
 485.154296875 308.52734375 538.912109375 254.79296875 538.912109375 188.52734375 c 0
410.311523438 -11.4736328125 m 2
 515.774414062 -11.4736328125 618.911132812 67.2841796875 618.911132812 188.52734375 c 0
 618.911132812 298.977539062 529.250976562 388.526367188 418.827148438 388.526367188 c 2
 131.874023438 388.526367188 l 2
 129.999023438 388.526367188 129.999023438 628.526367188 129.999023438 628.526367188 c 1
 572.264648438 628.526367188 l 1
 572.264648438 708.526367188 l 1
 50 708.526367188 l 1
 50 -11.4736328125 l 1
 410.311523438 -11.4736328125 l 2
408.291992188 815.40625 m 0
 408.291992188 839.70703125 427.991210938 859.40625 452.29296875 859.40625 c 0
 476.592773438 859.40625 496.291992188 839.70703125 496.291992188 815.40625 c 0
 496.291992188 791.106445312 476.592773438 771.407226562 452.29296875 771.407226562 c 0
 427.991210938 771.407226562 408.291992188 791.106445312 408.291992188 815.40625 c 0
290.452148438 815.40625 m 0
 290.452148438 839.70703125 310.15234375 859.40625 334.452148438 859.40625 c 0
 358.752929688 859.40625 378.453125 839.70703125 378.453125 815.40625 c 0
 378.453125 791.106445312 358.752929688 771.407226562 334.452148438 771.407226562 c 0
 310.15234375 771.407226562 290.452148438 791.106445312 290.452148438 815.40625 c 0
172.61328125 815.40625 m 0
 172.61328125 839.70703125 192.3125 859.40625 216.612304688 859.40625 c 0
 240.913085938 859.40625 260.612304688 839.70703125 260.612304688 815.40625 c 0
 260.612304688 791.106445312 240.913085938 771.407226562 216.612304688 771.407226562 c 0
 192.3125 771.407226562 172.61328125 791.106445312 172.61328125 815.40625 c 0
EndSplineSet
EndChar

StartChar: unie04a
Encoding: 57418 57418 76
Width: 647
VWidth: 1188
GlyphClass: 1
Flags: HMW
LayerCount: 2
Fore
SplineSet
114.70703125 561.83984375 m 2
 122.579101562 570.120117188 190.573242188 628.526367188 287.181640625 628.526367188 c 0
 341.802734375 628.526367188 394.948242188 627.040039062 434.602539062 605.32421875 c 0
 480.80078125 580.024414062 526.556640625 520.255859375 526.556640625 348.526367188 c 0
 526.556640625 151.915039062 461.583007812 107.69140625 432.297851562 91.8056640625 c 0
 391.942382812 69.912109375 339.067382812 68.52734375 287.181640625 68.52734375 c 0
 188.41796875 68.52734375 114.447265625 139.766601562 114.447265625 139.766601562 c 1
 85.791015625 167.657226562 l 1
 30.00390625 110.33984375 l 1
 58.666015625 82.443359375 l 2
 63.169921875 78.060546875 156.751953125 -11.4736328125 287.181640625 -11.4736328125 c 0
 410.365234375 -11.4736328125 606.555664062 -6.142578125 606.555664062 348.526367188 c 0
 606.555664062 532.352539062 554.993164062 630.608398438 472.944335938 675.541992188 c 0
 404.57421875 712.984375 340.754882812 708.526367188 287.181640625 708.526367188 c 0
 148.166015625 708.526367188 61.18359375 621.403320312 58.40625 618.650390625 c 2
 30 590.498046875 l 1
 86.3037109375 533.688476562 l 1
 114.70703125 561.83984375 l 2
400.396484375 815.40625 m 0
 400.396484375 839.70703125 420.095703125 859.40625 444.396484375 859.40625 c 0
 468.696289062 859.40625 488.395507812 839.70703125 488.395507812 815.40625 c 0
 488.395507812 791.106445312 468.696289062 771.407226562 444.396484375 771.407226562 c 0
 420.095703125 771.407226562 400.396484375 791.106445312 400.396484375 815.40625 c 0
282.555664062 815.40625 m 0
 282.555664062 839.70703125 302.256835938 859.40625 326.556640625 859.40625 c 0
 350.856445312 859.40625 370.556640625 839.70703125 370.556640625 815.40625 c 0
 370.556640625 791.106445312 350.856445312 771.407226562 326.556640625 771.407226562 c 0
 302.256835938 771.407226562 282.555664062 791.106445312 282.555664062 815.40625 c 0
164.716796875 815.40625 m 0
 164.716796875 839.70703125 184.416015625 859.40625 208.715820312 859.40625 c 0
 233.017578125 859.40625 252.716796875 839.70703125 252.716796875 815.40625 c 0
 252.716796875 791.106445312 233.017578125 771.407226562 208.715820312 771.407226562 c 0
 184.416015625 771.407226562 164.716796875 791.106445312 164.716796875 815.40625 c 0
EndSplineSet
EndChar

StartChar: unie04b
Encoding: 57419 57419 77
Width: 647
VWidth: 1188
GlyphClass: 1
Flags: HMW
LayerCount: 2
Fore
SplineSet
359.374023438 708.538085938 m 0
 238.278320312 708.538085938 40 708.538085938 40 348.538085938 c 0
 40 247.731445312 53.998046875 87.7353515625 176.193359375 21.447265625 c 0
 244.520507812 -15.6181640625 308.342773438 -11.4619140625 359.374023438 -11.4619140625 c 0
 419.461914062 -11.4619140625 470.83203125 7.361328125 509.244140625 27.5380859375 c 0
 557.348632812 52.806640625 586.088867188 80.701171875 587.889648438 82.455078125 c 2
 616.551757812 110.3515625 l 1
 560.764648438 167.668945312 l 1
 532.108398438 139.778320312 l 1
 532.108398438 139.778320312 458.137695312 68.5390625 359.374023438 68.5390625 c 0
 257.958007812 68.5390625 182.849609375 75.947265625 144.215820312 179.2109375 c 0
 129.681640625 218.05859375 119.999023438 272.8984375 119.999023438 348.538085938 c 0
 119.999023438 520.267578125 165.754882812 580.036132812 211.953125 605.3359375 c 0
 251.607421875 627.051757812 304.752929688 628.538085938 359.374023438 628.538085938 c 0
 455.966796875 628.538085938 523.961914062 570.146484375 531.848632812 561.8515625 c 2
 560.251953125 533.700195312 l 1
 616.555664062 590.509765625 l 1
 588.149414062 618.662109375 l 2
 585.372070312 621.415039062 498.389648438 708.538085938 359.374023438 708.538085938 c 0
393.838867188 815.41796875 m 0
 393.838867188 839.71875 413.538085938 859.41796875 437.838867188 859.41796875 c 0
 462.139648438 859.41796875 481.838867188 839.71875 481.838867188 815.41796875 c 0
 481.838867188 791.118164062 462.139648438 771.418945312 437.838867188 771.418945312 c 0
 413.538085938 771.418945312 393.838867188 791.118164062 393.838867188 815.41796875 c 0
275.999023438 815.41796875 m 0
 275.999023438 839.71875 295.69921875 859.41796875 319.999023438 859.41796875 c 0
 344.298828125 859.41796875 363.999023438 839.71875 363.999023438 815.41796875 c 0
 363.999023438 791.118164062 344.298828125 771.418945312 319.999023438 771.418945312 c 0
 295.69921875 771.418945312 275.999023438 791.118164062 275.999023438 815.41796875 c 0
158.16015625 815.41796875 m 0
 158.16015625 839.71875 177.859375 859.41796875 202.159179688 859.41796875 c 0
 226.459960938 859.41796875 246.159179688 839.71875 246.159179688 815.41796875 c 0
 246.159179688 791.118164062 226.459960938 771.418945312 202.159179688 771.418945312 c 0
 177.859375 771.418945312 158.16015625 791.118164062 158.16015625 815.41796875 c 0
EndSplineSet
EndChar

StartChar: unie04c
Encoding: 57420 57420 78
Width: 376
VWidth: 1188
GlyphClass: 1
Flags: HMW
LayerCount: 2
Fore
SplineSet
227.83984375 -11.4736328125 m 1
 227.83984375 708.526367188 l 1
 147.83984375 708.526367188 l 1
 147.83984375 -11.4736328125 l 1
 227.83984375 -11.4736328125 l 1
261.6796875 815.40625 m 0
 261.6796875 839.70703125 281.37890625 859.40625 305.6796875 859.40625 c 0
 329.98046875 859.40625 349.6796875 839.70703125 349.6796875 815.40625 c 0
 349.6796875 791.106445312 329.98046875 771.407226562 305.6796875 771.407226562 c 0
 281.37890625 771.407226562 261.6796875 791.106445312 261.6796875 815.40625 c 0
143.83984375 815.40625 m 0
 143.83984375 839.70703125 163.540039062 859.40625 187.83984375 859.40625 c 0
 212.139648438 859.40625 231.83984375 839.70703125 231.83984375 815.40625 c 0
 231.83984375 791.106445312 212.139648438 771.407226562 187.83984375 771.407226562 c 0
 163.540039062 771.407226562 143.83984375 791.106445312 143.83984375 815.40625 c 0
26 815.40625 m 0
 26 839.70703125 45.69921875 859.40625 70 859.40625 c 0
 94.30078125 859.40625 114 839.70703125 114 815.40625 c 0
 114 791.106445312 94.30078125 771.407226562 70 771.407226562 c 0
 45.69921875 771.407226562 26 791.106445312 26 815.40625 c 0
EndSplineSet
EndChar

StartChar: unie04d
Encoding: 57421 57421 79
Width: 646
VWidth: 1161
GlyphClass: 1
Flags: HMW
LayerCount: 2
Fore
SplineSet
603 361.859375 m 1
 43 361.859375 l 1
 43 281.860351562 l 1
 603 281.860351562 l 1
 603 361.859375 l 1
396.83984375 788.739257812 m 0
 396.83984375 813.041015625 416.5390625 832.740234375 440.83984375 832.740234375 c 0
 465.140625 832.740234375 484.83984375 813.041015625 484.83984375 788.739257812 c 0
 484.83984375 764.439453125 465.140625 744.740234375 440.83984375 744.740234375 c 0
 416.5390625 744.740234375 396.83984375 764.439453125 396.83984375 788.739257812 c 0
279 788.739257812 m 0
 279 813.041015625 298.700195312 832.740234375 323 832.740234375 c 0
 347.299804688 832.740234375 367 813.041015625 367 788.739257812 c 0
 367 764.439453125 347.299804688 744.740234375 323 744.740234375 c 0
 298.700195312 744.740234375 279 764.439453125 279 788.739257812 c 0
161.16015625 788.739257812 m 0
 161.16015625 813.041015625 180.859375 832.740234375 205.16015625 832.740234375 c 0
 229.4609375 832.740234375 249.16015625 813.041015625 249.16015625 788.739257812 c 0
 249.16015625 764.439453125 229.4609375 744.740234375 205.16015625 744.740234375 c 0
 180.859375 744.740234375 161.16015625 764.439453125 161.16015625 788.739257812 c 0
EndSplineSet
EndChar

StartChar: unie04e
Encoding: 57422 57422 80
Width: 643
VWidth: 1188
GlyphClass: 1
Flags: HMW
LayerCount: 2
Fore
SplineSet
42 -11.4736328125 m 1
 602 -11.4736328125 l 1
 602 68.52734375 l 1
 42 68.52734375 l 1
 42 -11.4736328125 l 1
602 708.526367188 m 1
 42 708.526367188 l 1
 42 628.526367188 l 1
 602 628.526367188 l 1
 602 708.526367188 l 1
395.83984375 815.40625 m 0
 395.83984375 839.70703125 415.5390625 859.40625 439.83984375 859.40625 c 0
 464.140625 859.40625 483.83984375 839.70703125 483.83984375 815.40625 c 0
 483.83984375 791.106445312 464.140625 771.407226562 439.83984375 771.407226562 c 0
 415.5390625 771.407226562 395.83984375 791.106445312 395.83984375 815.40625 c 0
278 815.40625 m 0
 278 839.70703125 297.700195312 859.40625 322 859.40625 c 0
 346.299804688 859.40625 366 839.70703125 366 815.40625 c 0
 366 791.106445312 346.299804688 771.407226562 322 771.407226562 c 0
 297.700195312 771.407226562 278 791.106445312 278 815.40625 c 0
160.16015625 815.40625 m 0
 160.16015625 839.70703125 179.859375 859.40625 204.16015625 859.40625 c 0
 228.4609375 859.40625 248.16015625 839.70703125 248.16015625 815.40625 c 0
 248.16015625 791.106445312 228.4609375 771.407226562 204.16015625 771.407226562 c 0
 179.859375 771.407226562 160.16015625 791.106445312 160.16015625 815.40625 c 0
EndSplineSet
EndChar

StartChar: unie04f
Encoding: 57423 57423 81
Width: 636
VWidth: 1188
GlyphClass: 1
Flags: HMW
LayerCount: 2
Fore
SplineSet
392.83984375 815.40625 m 0
 392.83984375 839.70703125 412.5390625 859.40625 436.83984375 859.40625 c 0
 461.140625 859.40625 480.83984375 839.70703125 480.83984375 815.40625 c 0
 480.83984375 791.106445312 461.140625 771.407226562 436.83984375 771.407226562 c 0
 412.5390625 771.407226562 392.83984375 791.106445312 392.83984375 815.40625 c 0
275 815.40625 m 0
 275 839.70703125 294.700195312 859.40625 319 859.40625 c 0
 343.299804688 859.40625 363 839.70703125 363 815.40625 c 0
 363 791.106445312 343.299804688 771.407226562 319 771.407226562 c 0
 294.700195312 771.407226562 275 791.106445312 275 815.40625 c 0
157.16015625 815.40625 m 0
 157.16015625 839.70703125 176.859375 859.40625 201.16015625 859.40625 c 0
 225.4609375 859.40625 245.16015625 839.70703125 245.16015625 815.40625 c 0
 245.16015625 791.106445312 225.4609375 771.407226562 201.16015625 771.407226562 c 0
 176.859375 771.407226562 157.16015625 791.106445312 157.16015625 815.40625 c 0
359 68.52734375 m 1
 359 628.526367188 l 1
 599 628.526367188 l 1
 599 708.526367188 l 1
 359 708.526367188 l 1
 279 708.526367188 l 1
 39 708.526367188 l 1
 39 628.526367188 l 1
 279 628.526367188 l 1
 279 68.52734375 l 1
 39 68.52734375 l 1
 39 -11.4736328125 l 1
 279 -11.4736328125 l 1
 359 -11.4736328125 l 1
 599 -11.4736328125 l 1
 599 68.52734375 l 1
 359 68.52734375 l 1
EndSplineSet
EndChar

StartChar: uniE100
Encoding: 57600 57600 82
Width: 1000
GlyphClass: 2
Flags: MW
HStem: -152.6 83.0996 159 98.9004
VStem: 184.2 82.8994 314.7 81.5 463.2 83 774.8 83.2002
LayerCount: 2
Fore
SplineSet
755.799804688 217.599609375 m 0
 816.700195312 184 857.900390625 119.200195312 858 44.7998046875 c 0
 858 -64.2001953125 769.599609375 -152.599609375 660.599609375 -152.599609375 c 0
 551.599609375 -152.599609375 463.200195312 -64.2001953125 463.200195312 44.7998046875 c 0
 463.200195312 90.2001953125 478.599609375 132 504.400390625 165.400390625 c 1
 417.900390625 143.400390625 341.200195312 84.900390625 299 -1.599609375 c 0
 284 -32.2001953125 274.200195312 -65 269.799804688 -98.599609375 c 0
 267.799804688 -111.5 267.099609375 -124.099609375 267.099609375 -136.799804688 c 2
 267.099609375 -139.400390625 l 1
 184.200195312 -139.400390625 l 1
 184.200195312 -136.799804688 l 2
 184.200195312 159.099609375 228.200195312 453.400390625 314.700195312 736.400390625 c 1
 396.200195312 711.400390625 l 1
 337.299804688 518.700195312 298.700195312 320.599609375 280.900390625 120.299804688 c 1
 353.799804688 204.599609375 461.5 257.900390625 581.599609375 257.900390625 c 0
 629.099609375 257.900390625 676.200195312 249.299804688 720.5 232.799804688 c 0
 732.599609375 228.900390625 744.200195312 223.900390625 755.200195312 217.900390625 c 0
 755.400390625 217.799804688 755.599609375 217.700195312 755.799804688 217.599609375 c 0
660.5 -69.5 m 0
 723.599609375 -69.5 774.799804688 -18.400390625 774.799804688 44.7001953125 c 0
 774.799804688 88.7998046875 749.799804688 127.099609375 713.200195312 146.099609375 c 0
 708.099609375 148.5 703 150.700195312 697.900390625 152.700195312 c 0
 686.200195312 156.799804688 673.599609375 159 660.5 159 c 0
 597.400390625 159 546.200195312 107.900390625 546.200195312 44.7998046875 c 0
 546.200195312 -18.2998046875 597.400390625 -69.5 660.5 -69.5 c 0
EndSplineSet
EndChar

StartChar: uniE101
Encoding: 57601 57601 83
Width: 1000
GlyphClass: 2
Flags: MW
VStem: 179 82.9004 304.5 81.5996
LayerCount: 2
Fore
SplineSet
750.5 217.599609375 m 0
 834.700195312 171.400390625 874.700195312 69.2001953125 840.5 -23.5 c 0
 802.799804688 -125.799804688 689.299804688 -178.099609375 587 -140.299804688 c 0
 571.200195312 -134.5 556.299804688 -126.700195312 542.5 -117.099609375 c 1
 589.599609375 -49.5 l 1
 641.700195312 -85.7998046875 713.400390625 -73 749.700195312 -20.900390625 c 0
 786 31.2001953125 773.200195312 102.900390625 721.099609375 139.200195312 c 0
 718.900390625 140.700195312 716.700195312 142.099609375 714.400390625 143.5 c 0
 558.200195312 219.599609375 369.900390625 154.599609375 293.700195312 -1.5 c 0
 272.799804688 -44.5 261.900390625 -91.599609375 261.900390625 -139.400390625 c 1
 179 -139.400390625 l 1
 179 -136.799804688 l 2
 179 159.400390625 217.799804688 453.900390625 304.5 737.099609375 c 1
 386.099609375 712.099609375 l 1
 326.400390625 517 287.5 316.299804688 269.900390625 113.5 c 1
 342.700195312 201.700195312 453 257.900390625 576.299804688 257.900390625 c 0
 626.799804688 257.900390625 676.900390625 248.5 723.599609375 229.900390625 c 0
 732.700195312 226.5 741.400390625 222.599609375 749.599609375 218.099609375 c 0
 749.900390625 217.900390625 750.200195312 217.799804688 750.5 217.599609375 c 0
EndSplineSet
EndChar

StartChar: uniE102
Encoding: 57602 57602 84
Width: 1000
GlyphClass: 2
Flags: MW
HStem: -152.7 83.1006 159 83.0996
VStem: 31.5996 83 303.6 85.9004
LayerCount: 2
Fore
SplineSet
918.5 18.599609375 m 1
 978 -42.7001953125 l 1
 820.200195312 -195.700195312 568.299804688 -191.700195312 415.400390625 -33.900390625 c 0
 414.200195312 -32.599609375 412.900390625 -31.2998046875 411.700195312 -30 c 1
 382.299804688 -102 311.599609375 -152.700195312 229 -152.700195312 c 0
 120 -152.700195312 31.599609375 -64.2998046875 31.599609375 44.7001953125 c 0
 31.599609375 153.700195312 120 242.099609375 229 242.099609375 c 0
 255.400390625 242.099609375 280.599609375 236.900390625 303.599609375 227.5 c 1
 303.5 229.400390625 303.400390625 231.299804688 303.400390625 233.200195312 c 2
 305.299804688 721.099609375 l 1
 389.5 721.099609375 l 1
 389.5 221.299804688 l 1
 400.900390625 55.5 541 -73.5 708.799804688 -69.400390625 c 0
 787.299804688 -67.400390625 862.099609375 -36 918.5 18.599609375 c 1
343.200195312 44.7001953125 m 0
 343.200195312 59.599609375 340.400390625 73.7998046875 335.099609375 86.7998046875 c 0
 334.599609375 88.2001953125 334 89.599609375 333.400390625 91 c 0
 315.700195312 131 275.599609375 159 228.900390625 159 c 0
 165.799804688 159 114.599609375 107.799804688 114.599609375 44.7001953125 c 0
 114.599609375 -18.400390625 165.799804688 -69.599609375 228.900390625 -69.599609375 c 0
 292 -69.599609375 343.200195312 -18.400390625 343.200195312 44.7001953125 c 0
EndSplineSet
EndChar

StartChar: uniE103
Encoding: 57603 57603 85
Width: 1000
GlyphClass: 2
Flags: MW
HStem: -73.5996 83 238 83.0996
VStem: 173.7 85.2998 304.5 81.5996 506.4 83.0996
LayerCount: 2
Fore
SplineSet
389.5 321.099609375 m 0
 499.900390625 321.099609375 589.5 232.799804688 589.5 123.799804688 c 0
 589.5 14.7998046875 500 -73.599609375 389.5 -73.599609375 c 0
 340.599609375 -73.599609375 295.799804688 -56.2998046875 261.099609375 -27.599609375 c 1
 259.700195312 -64 259 -100.400390625 259 -136.799804688 c 1
 173.700195312 -136.799804688 l 1
 173.700195312 159.299804688 217.799804688 453.900390625 304.5 737.099609375 c 1
 386.099609375 712.099609375 l 1
 344.299804688 575.700195312 312.700195312 436.5 291.5 295.799804688 c 1
 320.5 311.900390625 353.900390625 321.099609375 389.5 321.099609375 c 0
389.5 9.400390625 m 0
 454 9.400390625 506.400390625 60.599609375 506.400390625 123.700195312 c 0
 506.400390625 186.799804688 454.099609375 238 389.5 238 c 0
 324.900390625 238 272.599609375 186.799804688 272.599609375 123.700195312 c 0
 272.599609375 60.599609375 324.900390625 9.400390625 389.5 9.400390625 c 0
EndSplineSet
EndChar

StartChar: uniE104
Encoding: 57604 57604 86
Width: 1000
GlyphClass: 2
Flags: MW
HStem: -149.1 85.8994
VStem: 147.4 85.8994 779.1 85.5
LayerCount: 2
Fore
SplineSet
862.599609375 208 m 1
 949.5 161.799804688 991.099609375 57.2998046875 956.099609375 -37.7998046875 c 0
 917.799804688 -141.400390625 802.799804688 -194.400390625 699.200195312 -156.099609375 c 0
 673.700195312 -146.700195312 650.400390625 -132.200195312 630.799804688 -113.599609375 c 1
 581.200195312 -136 526.200195312 -148.599609375 468.299804688 -148.799804688 c 2
 440.599609375 -149.099609375 l 1
 278.799804688 -145.599609375 148.299804688 -13.7998046875 147.400390625 147.299804688 c 0
 147.400390625 346.299804688 177.200195312 544.099609375 235.900390625 734.200195312 c 1
 318 708.900390625 l 1
 262.400390625 528.799804688 233.900390625 341.400390625 233.299804688 153 c 0
 231.299804688 37.900390625 322.299804688 -57.5 436.599609375 -63.2001953125 c 1
 471.200195312 -63.2001953125 l 2
 639.599609375 -60.900390625 776.200195312 74.7998046875 779.099609375 243.599609375 c 1
 864.599609375 242.099609375 l 1
 864.400390625 230.599609375 863.799804688 219.200195312 862.599609375 208 c 1
841.5 -58.7998046875 m 0
 891.5 -18.5 899.200195312 54.7998046875 858.700195312 104.700195312 c 0
 854.099609375 110.400390625 848.900390625 115.700195312 843.299804688 120.400390625 c 1
 817.5 44.900390625 769.700195312 -20.2998046875 707.599609375 -67.599609375 c 1
 748.400390625 -92.5 802.200195312 -90.599609375 841.5 -58.7998046875 c 0
EndSplineSet
EndChar

StartChar: uniE105
Encoding: 57605 57605 87
Width: 1000
GlyphClass: 2
Flags: MW
HStem: -149.2 86 238 83<576.35 639.45>
VStem: 157.9 85.8994 410.5 83.0996 722.2 151.5 789.5 84.2002<-147.5 5.59961 5.59961 5.59961 -147.5 300>
LayerCount: 2
Fore
SplineSet
789.5 300 m 1xf4
 873.700195312 300 l 1
 873.700195312 -147.5 l 1
 789.5 -147.5 l 1
 789.5 5.599609375 l 1
 717 -88.099609375 603.599609375 -148.400390625 476.200195312 -148.900390625 c 2
 448.5 -149.200195312 l 1
 284.200195312 -145.599609375 155 -9.900390625 157.900390625 154.400390625 c 0
 158.599609375 350.900390625 188.400390625 546.299804688 246.400390625 734.099609375 c 1
 328.5 708.799804688 l 1
 272.400390625 526.900390625 243.799804688 337.700195312 243.799804688 147.299804688 c 0
 244.799804688 34.7001953125 332.099609375 -57.7001953125 444.5 -63.2001953125 c 1
 479.099609375 -63.2001953125 l 2
 496.799804688 -63 514.099609375 -61.2998046875 531 -58.2001953125 c 1
 460.200195312 -28.2998046875 410.5 41.900390625 410.5 123.599609375 c 0
 410.5 232.599609375 498.900390625 321 607.900390625 321 c 0
 685.400390625 321 752.5 276.299804688 784.799804688 211.299804688 c 1
 786.099609375 221.900390625 786.799804688 231.599609375 787 242.5 c 2
 789.5 300 l 1xf4
493.599609375 123.700195312 m 0
 493.599609375 60.599609375 544.799804688 9.400390625 607.900390625 9.400390625 c 0
 671 9.400390625 722.200195312 60.599609375 722.200195312 123.700195312 c 0xf8
 722.200195312 186.799804688 671 238 607.900390625 238 c 0
 544.799804688 238 493.599609375 186.799804688 493.599609375 123.700195312 c 0
EndSplineSet
EndChar

StartChar: uniE106
Encoding: 57606 57606 88
Width: 1000
GlyphClass: 2
Flags: MW
HStem: -149.1 85.8994
VStem: 147.4 85.8994 779 84.2002<-142.2 2.5 2.5 2.5 -142.2 243.7>
LayerCount: 2
Fore
SplineSet
864.5 242.200195312 m 1
 864.299804688 233.299804688 863.900390625 224.5 863.200195312 215.799804688 c 2
 863.200195312 -142.200195312 l 1
 779 -142.200195312 l 1
 779 2.5 l 1
 706.400390625 -89.400390625 594.099609375 -148.299804688 468.200195312 -148.799804688 c 2
 440.5 -149.099609375 l 1
 278.599609375 -145.599609375 148.299804688 -13.7998046875 147.400390625 147.299804688 c 0
 147.400390625 346.299804688 177.200195312 544.099609375 235.900390625 734.200195312 c 1
 318 708.900390625 l 1
 262.400390625 528.799804688 233.900390625 341.5 233.299804688 153 c 0
 231.299804688 37.900390625 322.099609375 -57.5 436.5 -63.2001953125 c 1
 471.099609375 -63.2001953125 l 2
 639.5 -60.7998046875 776 74.7998046875 779 243.700195312 c 1
 864.5 242.200195312 l 1
EndSplineSet
EndChar

StartChar: uniE107
Encoding: 57607 57607 89
Width: 1000
GlyphClass: 2
Flags: MW
HStem: 248.5 83.0996
VStem: 147.4 85.7998 394.6 83.2002 706.4 83 856.5 86.9004
LayerCount: 2
Fore
SplineSet
907 -29.099609375 m 0
 930.599609375 -62.5 943.299804688 -102.400390625 943.400390625 -143.400390625 c 1
 856.5 -143.599609375 l 1
 856.400390625 -81.7001953125 806.200195312 -31.7001953125 744.299804688 -31.7998046875 c 0
 721.200195312 -31.900390625 698.200195312 -38.2998046875 679.400390625 -51.599609375 c 2
 604.5 -104.099609375 l 1
 471.099609375 -187.299804688 294.400390625 -152.799804688 202.799804688 -22.7001953125 c 0
 167.700195312 27.2001953125 147.799804688 86.5 147.400390625 147.299804688 c 0
 147.400390625 346.299804688 177.200195312 544.099609375 235.900390625 734.200195312 c 1
 318 708.900390625 l 1
 263 530.900390625 234.5 345.900390625 233.200195312 159.700195312 c 0
 231.200195312 42.400390625 319.299804688 -56.7998046875 436.200195312 -62.5 c 0
 462.599609375 -63.7998046875 488.700195312 -60.099609375 513.400390625 -51.900390625 c 1
 443.5 -21.099609375 394.599609375 49.400390625 394.599609375 131.599609375 c 0
 394.599609375 242.099609375 483 331.599609375 592 331.599609375 c 0
 701 331.599609375 789.400390625 242.099609375 789.400390625 131.599609375 c 0
 789.400390625 103.700195312 783.799804688 77.099609375 773.599609375 53 c 1
 825.599609375 45.2998046875 874.400390625 17.2001953125 907 -29.099609375 c 0
477.799804688 131.599609375 m 0
 477.799804688 67 529 14.7001953125 592.099609375 14.7001953125 c 0
 608.900390625 14.7001953125 624.900390625 18.400390625 639.299804688 25.099609375 c 0
 644.400390625 28.2998046875 649.5 31.2001953125 654.700195312 33.7998046875 c 0
 685.799804688 54.7001953125 706.400390625 90.7001953125 706.400390625 131.599609375 c 0
 706.400390625 196.200195312 655.200195312 248.5 592.099609375 248.5 c 0
 529 248.5 477.799804688 196.200195312 477.799804688 131.599609375 c 0
EndSplineSet
EndChar

StartChar: uniE108
Encoding: 57608 57608 90
Width: 1000
GlyphClass: 2
Flags: MW
HStem: 127.439 76.8828 236.8 84.2002
VStem: 168.5 82.9004 299.3 81.6006 757.9 79 858.941 76.8828
LayerCount: 2
Fore
SplineSet
757.900390625 278.900390625 m 0
 757.900390625 302.151367188 775.584960938 321 797.400390625 321 c 0
 819.21484375 321 836.900390625 302.151367188 836.900390625 278.900390625 c 0
 836.900390625 255.6484375 819.21484375 236.799804688 797.400390625 236.799804688 c 0
 775.584960938 236.799804688 757.900390625 255.6484375 757.900390625 278.900390625 c 0
858.94140625 156.803710938 m 0
 853.927734375 178.034179688 867.075195312 199.30859375 888.305664062 204.322265625 c 0
 909.536132812 209.334960938 930.810546875 196.188476562 935.82421875 174.958007812 c 0
 940.836914062 153.7265625 927.690429688 132.452148438 906.459960938 127.439453125 c 0
 885.229492188 122.42578125 863.954101562 135.573242188 858.94140625 156.803710938 c 0
715.799804688 230.200195312 m 0
 819.599609375 192.900390625 873.099609375 79.599609375 835.299804688 -22.7998046875 c 0
 797.5 -125.200195312 682.700195312 -178 578.900390625 -140.700195312 c 0
 563.099609375 -135 548 -127.299804688 534.099609375 -117.900390625 c 1
 581.200195312 -50.2998046875 l 1
 634.900390625 -86 708 -72.5 744.599609375 -19.900390625 c 0
 781.200195312 32.5 767.299804688 104.099609375 713.599609375 139.799804688 c 0
 711.299804688 141.299804688 709 142.700195312 706.700195312 144 c 0
 549 219.599609375 359.200195312 153.900390625 283 -2.5 c 0
 268.200195312 -32.7998046875 258.5 -65.099609375 254.099609375 -98.2001953125 c 0
 252.299804688 -111.099609375 251.400390625 -123.900390625 251.400390625 -136.799804688 c 2
 251.400390625 -139.400390625 l 1
 168.5 -139.400390625 l 1
 168.5 -136.799804688 l 2
 168.5 159.299804688 212.599609375 453.900390625 299.299804688 737.099609375 c 1
 380.900390625 712.099609375 l 1
 321.700195312 519 283 320.400390625 265.099609375 119.599609375 c 1
 338.5 204.299804688 447.099609375 257.900390625 568.400390625 257.900390625 c 0
 618.900390625 257.900390625 669 248.599609375 715.799804688 230.200195312 c 0
EndSplineSet
EndChar

StartChar: uniE109
Encoding: 57609 57609 91
Width: 1000
GlyphClass: 2
Flags: MW
HStem: -147.4 84.2002 216.9 83.0996
VStem: 152.7 87.2998 516.9 83.0996
LayerCount: 2
Fore
SplineSet
915.799804688 -63.2001953125 m 1
 915.799804688 -147.400390625 l 1
 444.099609375 -147.400390625 l 2
 279.799804688 -143.799804688 149.799804688 -9.7998046875 152.700195312 154.5 c 0
 153.400390625 351 183.200195312 546.400390625 241.200195312 734.200195312 c 1
 323.299804688 708.900390625 l 1
 274.400390625 550.5 246.400390625 386.400390625 240 221 c 1
 276.5 269 334.599609375 300 400 300 c 0
 510.5 300 600 211.599609375 600 102.599609375 c 0
 600 33.099609375 563.5 -28 508.5 -63.2001953125 c 1
 915.799804688 -63.2001953125 l 1
400 216.900390625 m 0
 335.400390625 216.900390625 283.099609375 165.700195312 283.099609375 102.599609375 c 0
 283.099609375 39.5 335.400390625 -11.7001953125 400 -11.7001953125 c 0
 464.599609375 -11.7001953125 516.900390625 39.5 516.900390625 102.599609375 c 0
 516.900390625 165.700195312 464.599609375 216.900390625 400 216.900390625 c 0
EndSplineSet
EndChar

StartChar: uniE10A
Encoding: 57610 57610 92
Width: 1000
GlyphClass: 2
Flags: MW
HStem: -147.4 84.2002 216.9 83.0996 236.8 79
VStem: 158 87.2998 522.2 83.0996 668.4 79 805.2 79
LayerCount: 2
Fore
SplineSet
668.400390625 276.299804688 m 0xbe
 668.400390625 298.115234375 686.084960938 315.799804688 707.900390625 315.799804688 c 0
 729.71484375 315.799804688 747.400390625 298.115234375 747.400390625 276.299804688 c 0
 747.400390625 254.484375 729.71484375 236.799804688 707.900390625 236.799804688 c 0
 686.084960938 236.799804688 668.400390625 254.484375 668.400390625 276.299804688 c 0xbe
805.200195312 276.299804688 m 0
 805.200195312 298.115234375 822.884765625 315.799804688 844.700195312 315.799804688 c 0
 866.515625 315.799804688 884.200195312 298.115234375 884.200195312 276.299804688 c 0
 884.200195312 254.484375 866.515625 236.799804688 844.700195312 236.799804688 c 0
 822.884765625 236.799804688 805.200195312 254.484375 805.200195312 276.299804688 c 0
921.099609375 -63.2001953125 m 1
 921 -63.2001953125 l 1
 921 -147.400390625 l 1
 449.5 -147.400390625 l 2
 285.200195312 -143.799804688 155 -9.7998046875 158 154.5 c 0
 158.700195312 351 188.5 546.400390625 246.5 734.200195312 c 1
 328.599609375 708.900390625 l 1
 279.700195312 550.5 251.700195312 386.400390625 245.299804688 221 c 1
 281.799804688 269 339.900390625 300 405.299804688 300 c 0xde
 515.799804688 300 605.299804688 211.599609375 605.299804688 102.599609375 c 0
 605.299804688 33.099609375 568.799804688 -28 513.799804688 -63.2001953125 c 1
 921.099609375 -63.2001953125 l 1
405.299804688 216.900390625 m 0
 340.700195312 216.900390625 288.400390625 165.700195312 288.400390625 102.599609375 c 0
 288.400390625 39.5 340.700195312 -11.7001953125 405.299804688 -11.7001953125 c 0
 469.900390625 -11.7001953125 522.200195312 39.5 522.200195312 102.599609375 c 0
 522.200195312 165.700195312 469.900390625 216.900390625 405.299804688 216.900390625 c 0
EndSplineSet
EndChar

StartChar: uniE10B
Encoding: 57611 57611 93
Width: 1000
GlyphClass: 2
Flags: MW
HStem: -152.6 83 -78.9004 84.2002 159 83.2998<218.45 258.1> 236.8 84.2998
VStem: 52.5996 83.1006 305.3 84.2002 364.3 83.1006 542.1 84.2002 605.3 84.2002 857.9 84.1992
LayerCount: 2
Fore
SplineSet
742.099609375 321.099609375 m 0x1d40
 852.599609375 321.099609375 942.099609375 231.599609375 942.099609375 121.099609375 c 0
 942.099609375 10.599609375 852.599609375 -78.900390625 742.099609375 -78.900390625 c 0x5d40
 723.900390625 -78.900390625 706.299804688 -76.5 689.5 -71.900390625 c 1
 689.5 -147.299804688 l 1
 605.299804688 -147.299804688 l 1
 605.299804688 -29.2001953125 l 1
 446.599609375 62.400390625 l 1
 447.099609375 56.599609375 447.400390625 50.7001953125 447.400390625 44.7998046875 c 0
 447.400390625 -64.2001953125 359 -152.599609375 250 -152.599609375 c 0
 141 -152.599609375 52.599609375 -64.099609375 52.599609375 44.900390625 c 0
 52.599609375 153.900390625 141 242.299804688 250 242.299804688 c 0xaac0
 269.200195312 242.299804688 287.799804688 239.5 305.299804688 234.400390625 c 1
 305.299804688 721.200195312 l 1
 389.5 721.200195312 l 1
 389.5 194.200195312 l 1
 542.700195312 105.700195312 l 1
 542.299804688 110.799804688 542.099609375 115.900390625 542.099609375 121.099609375 c 0
 542.099609375 231.599609375 631.599609375 321.099609375 742.099609375 321.099609375 c 0x1d40
364.299804688 44.7001953125 m 0xaa40
 364.299804688 82.400390625 346 115.799804688 317.900390625 136.700195312 c 1
 295.5 149.599609375 l 2
 281.5 155.599609375 266.200195312 159 250 159 c 0
 186.900390625 159 135.700195312 107.799804688 135.700195312 44.7001953125 c 0
 135.700195312 -18.400390625 186.900390625 -69.599609375 250 -69.599609375 c 0
 313.099609375 -69.599609375 364.299804688 -18.400390625 364.299804688 44.7001953125 c 0xaa40
742.099609375 5.2998046875 m 0x5940
 806.099609375 5.2998046875 857.900390625 57 857.900390625 121 c 0
 857.900390625 185 806 236.799804688 742.099609375 236.799804688 c 0
 678.099609375 236.799804688 626.299804688 184.900390625 626.299804688 121 c 0
 626.299804688 87.2001953125 640.900390625 56.7998046875 664 35.599609375 c 1
 701.5 13.900390625 l 1
 700.900390625 12.7998046875 l 1
 713.700195312 8 727.599609375 5.2998046875 742.099609375 5.2998046875 c 0x5940
EndSplineSet
EndChar

StartChar: uniE10C
Encoding: 57612 57612 94
Width: 1000
GlyphClass: 2
Flags: MW
HStem: -152.6 83.0996 159 98.9004
VStem: 178.9 82.8994 309.8 81.6006 457.8 83.2002 769.6 83
LayerCount: 2
Fore
SplineSet
865.5 221.599609375 m 2
 875 216.099609375 878.299804688 203.900390625 872.799804688 194.400390625 c 0
 867.299804688 184.900390625 855.099609375 181.599609375 845.599609375 187.099609375 c 2
 707.799804688 266.700195312 l 2
 698.299804688 272.200195312 695 284.400390625 700.5 293.900390625 c 0
 706 303.400390625 718.200195312 306.700195312 727.700195312 301.200195312 c 2
 865.5 221.599609375 l 2
750.5 217.599609375 m 0
 811.400390625 184 852.599609375 119.200195312 852.599609375 44.7998046875 c 0
 852.599609375 -64.2001953125 764.200195312 -152.599609375 655.200195312 -152.599609375 c 0
 546.200195312 -152.599609375 457.799804688 -64.2001953125 457.799804688 44.7998046875 c 0
 457.799804688 90.2001953125 473.200195312 132 499 165.400390625 c 1
 412.5 143.400390625 335.799804688 84.900390625 293.599609375 -1.599609375 c 0
 278.700195312 -32 268.900390625 -64.599609375 264.5 -98 c 0
 262.200195312 -113.5 261.799804688 -123.799804688 261.799804688 -136.799804688 c 2
 261.799804688 -139.400390625 l 1
 178.900390625 -139.400390625 l 1
 178.900390625 -136.799804688 l 2
 178.900390625 159.400390625 223 453.900390625 309.799804688 737.200195312 c 1
 391.400390625 712.200195312 l 1
 332.299804688 519.299804688 293.599609375 321 275.700195312 120.5 c 1
 348.599609375 204.599609375 456.200195312 257.900390625 576.299804688 257.900390625 c 0
 623.799804688 257.900390625 670.900390625 249.299804688 715.200195312 232.799804688 c 0
 727.299804688 228.900390625 738.900390625 223.900390625 749.900390625 217.900390625 c 0
 750.099609375 217.799804688 750.299804688 217.700195312 750.5 217.599609375 c 0
655.299804688 -69.5 m 0
 718.400390625 -69.5 769.5 -18.400390625 769.599609375 44.7001953125 c 0
 769.599609375 88.7998046875 744.599609375 127.099609375 708 146.099609375 c 0
 702.900390625 148.5 697.799804688 150.700195312 692.700195312 152.700195312 c 0
 681 156.799804688 668.400390625 159 655.299804688 159 c 0
 592.200195312 159 541 107.900390625 541 44.7998046875 c 0
 541 -18.2998046875 592.200195312 -69.5 655.299804688 -69.5 c 0
EndSplineSet
EndChar

StartChar: uniE10D
Encoding: 57613 57613 95
Width: 1000
GlyphClass: 2
Flags: MW
VStem: 173.7 82.8994 299.3 81.6006
LayerCount: 2
Fore
SplineSet
852.799804688 221.599609375 m 2
 862.299804688 216.099609375 865.599609375 203.900390625 860.099609375 194.400390625 c 0
 854.599609375 184.900390625 842.400390625 181.599609375 832.900390625 187.099609375 c 2
 695.099609375 266.700195312 l 2
 685.599609375 272.200195312 682.299804688 284.400390625 687.799804688 293.900390625 c 0
 693.299804688 303.400390625 705.5 306.700195312 715 301.200195312 c 2
 852.799804688 221.599609375 l 2
745.200195312 217.599609375 m 0
 829.5 171.400390625 869.400390625 69.2001953125 835.200195312 -23.5 c 0
 797.5 -125.799804688 684 -178.099609375 581.700195312 -140.299804688 c 0
 565.900390625 -134.5 551 -126.700195312 537.200195312 -117.099609375 c 1
 584.299804688 -49.5 l 1
 636.400390625 -85.7998046875 708.099609375 -73 744.400390625 -20.900390625 c 0
 780.700195312 31.2001953125 767.900390625 102.900390625 715.799804688 139.200195312 c 0
 713.599609375 140.700195312 711.400390625 142.099609375 709.099609375 143.5 c 0
 552.900390625 219.599609375 364.599609375 154.599609375 288.400390625 -1.5 c 0
 267.5 -44.5 256.599609375 -91.599609375 256.599609375 -139.400390625 c 1
 173.700195312 -139.400390625 l 1
 173.700195312 -136.799804688 l 2
 173.700195312 159.299804688 212.599609375 453.900390625 299.299804688 737.099609375 c 1
 380.900390625 712.099609375 l 1
 321.099609375 517 282.200195312 316.299804688 264.599609375 113.5 c 1
 337.400390625 201.700195312 447.700195312 257.900390625 571 257.900390625 c 0
 621.5 257.900390625 671.599609375 248.5 718.299804688 229.900390625 c 0
 727.400390625 226.5 736.099609375 222.599609375 744.299804688 218.099609375 c 0
 744.599609375 217.900390625 744.900390625 217.799804688 745.200195312 217.599609375 c 0
EndSplineSet
EndChar

StartChar: uniE10E
Encoding: 57614 57614 96
Width: 1000
GlyphClass: 2
Flags: MW
HStem: -152.7 83.2002 159 83.0996 226.3 36.7998
VStem: 26.2998 83.1006 298.5 85.7002
LayerCount: 2
Fore
SplineSet
602.599609375 226.299804688 m 2xb8
 592.5 226.299804688 584.200195312 234.599609375 584.200195312 244.700195312 c 0
 584.200195312 254.900390625 592.400390625 263.099609375 602.599609375 263.099609375 c 2
 760.5 263.099609375 l 2
 770.700195312 263.099609375 778.900390625 254.900390625 778.900390625 244.700195312 c 0
 778.900390625 234.5 770.700195312 226.299804688 760.5 226.299804688 c 2
 602.599609375 226.299804688 l 2xb8
913.400390625 18.599609375 m 1
 973 -42.7998046875 l 1
 815.200195312 -195.799804688 563.299804688 -191.799804688 410.400390625 -34 c 0
 409.099609375 -32.599609375 407.799804688 -31.2998046875 406.5 -29.900390625 c 1
 377.099609375 -101.900390625 306.299804688 -152.700195312 223.700195312 -152.700195312 c 0
 114.700195312 -152.700195312 26.2998046875 -64.2998046875 26.2998046875 44.7001953125 c 0
 26.2998046875 153.700195312 114.700195312 242.099609375 223.700195312 242.099609375 c 0xd8
 250.099609375 242.099609375 275.400390625 236.900390625 298.5 227.400390625 c 1
 298.400390625 229.400390625 298.299804688 231.299804688 298.299804688 233.200195312 c 2
 300 721.099609375 l 1
 384.200195312 721.099609375 l 1
 384.200195312 224.400390625 l 1
 394 57.099609375 534.799804688 -73.599609375 703.700195312 -69.400390625 c 0
 782.200195312 -67.400390625 857 -36 913.400390625 18.599609375 c 1
223.700195312 -69.5 m 0
 286.799804688 -69.5 338 -18.400390625 338 44.7001953125 c 0
 338 107.799804688 286.799804688 159 223.700195312 159 c 0
 160.599609375 159 109.400390625 107.900390625 109.400390625 44.7998046875 c 0
 109.400390625 -18.2998046875 160.599609375 -69.5 223.700195312 -69.5 c 0
EndSplineSet
EndChar

StartChar: uniE10F
Encoding: 57615 57615 97
Width: 1000
GlyphClass: 2
Flags: MW
HStem: -72.5996 83 227.4 36.7998 239 83.0996
VStem: 168.4 85.2998 299.2 81.5996 501.1 83.1006
LayerCount: 2
Fore
SplineSet
834.200195312 264.200195312 m 2xdc
 844.400390625 264.200195312 852.599609375 255.900390625 852.700195312 245.799804688 c 0
 852.700195312 235.599609375 844.5 227.400390625 834.299804688 227.400390625 c 2
 671.099609375 227.400390625 l 2
 660.900390625 227.400390625 652.700195312 235.599609375 652.700195312 245.799804688 c 0
 652.700195312 256 660.900390625 264.200195312 671.099609375 264.200195312 c 2
 834.200195312 264.200195312 l 2xdc
384.200195312 322.099609375 m 0xbc
 494.700195312 322.099609375 584.200195312 233.799804688 584.200195312 124.799804688 c 0
 584.200195312 15.7998046875 494.700195312 -72.599609375 384.200195312 -72.599609375 c 0
 335.299804688 -72.599609375 290.5 -55.2998046875 255.799804688 -26.599609375 c 1
 254.400390625 -63 253.700195312 -99.400390625 253.700195312 -135.799804688 c 1
 168.400390625 -135.799804688 l 1
 168.400390625 160.299804688 212.5 454.900390625 299.200195312 738.099609375 c 1
 380.799804688 713.099609375 l 1
 339 576.700195312 307.400390625 437.5 286.200195312 296.799804688 c 1
 315.200195312 312.900390625 348.599609375 322.099609375 384.200195312 322.099609375 c 0xbc
384.200195312 10.400390625 m 0
 448.799804688 10.400390625 501.099609375 61.599609375 501.099609375 124.700195312 c 0
 501.099609375 187.799804688 448.799804688 239 384.200195312 239 c 0
 319.599609375 239 267.299804688 187.799804688 267.299804688 124.700195312 c 0
 267.299804688 61.599609375 319.599609375 10.400390625 384.200195312 10.400390625 c 0
EndSplineSet
EndChar

StartChar: uniE110
Encoding: 57616 57616 98
Width: 1000
GlyphClass: 2
Flags: MW
HStem: -149.1 86.0996 268.3 42.2002
VStem: 157.9 85.8994 789.6 84.2002
LayerCount: 2
Fore
SplineSet
868.400390625 310.5 m 2
 880 310.5 889.5 301.099609375 889.5 289.400390625 c 0
 889.5 277.700195312 880 268.299804688 868.400390625 268.299804688 c 2
 710.5 268.299804688 l 2
 698.799804688 268.299804688 689.400390625 277.700195312 689.400390625 289.400390625 c 0
 689.400390625 301.099609375 698.900390625 310.5 710.5 310.5 c 2
 868.400390625 310.5 l 2
790 243.700195312 m 1
 874 242.200195312 l 1
 873.799804688 231.200195312 873.900390625 220.599609375 873.799804688 209.700195312 c 2
 873.799804688 -142.200195312 l 1
 789.599609375 -142.200195312 l 1
 789.599609375 1.7998046875 l 1
 716.900390625 -89.7001953125 604.900390625 -148.299804688 479.299804688 -148.799804688 c 2
 451.599609375 -149.099609375 l 1
 289.700195312 -145.599609375 158.799804688 -13.7998046875 157.900390625 147.299804688 c 0
 157.900390625 346.299804688 187.700195312 544.099609375 246.400390625 734.200195312 c 1
 328.5 708.900390625 l 1
 272.900390625 528.799804688 244.400390625 341.400390625 243.799804688 153 c 0
 241.799804688 37.900390625 333.200195312 -57.5 447.599609375 -63 c 1
 482.200195312 -63 l 2
 645.900390625 -60.7998046875 779.5 67.5 789.5 229.700195312 c 2
 790 242.200195312 l 1
 790 243.700195312 l 1
EndSplineSet
EndChar

StartChar: uniE111
Encoding: 57617 57617 99
Width: 1000
GlyphClass: 2
Flags: MW
HStem: -152.6 83.0996 159 98.9004 379.4 89.5
VStem: 184.2 82.8994 229.2 86.5996 463.2 83 711 75.2998<664.8 688.5> 774.8 83.2002
LayerCount: 2
Fore
SplineSet
925.799804688 379.400390625 m 1xee
 315.799804688 379.400390625 l 1xee
 300.299804688 293.700195312 288.599609375 207.200195312 280.900390625 120.299804688 c 1
 353.799804688 204.599609375 461.5 257.900390625 581.599609375 257.900390625 c 0
 629.099609375 257.900390625 676.200195312 249.299804688 720.5 232.799804688 c 0
 732.599609375 228.900390625 744.200195312 223.900390625 755.200195312 217.900390625 c 0
 755.400390625 217.799804688 755.599609375 217.700195312 755.799804688 217.599609375 c 0
 816.700195312 184 857.900390625 119.200195312 858 44.7998046875 c 0
 858 -64.2001953125 769.599609375 -152.599609375 660.599609375 -152.599609375 c 0
 551.599609375 -152.599609375 463.200195312 -64.2001953125 463.200195312 44.7998046875 c 0
 463.200195312 90.2001953125 478.599609375 132 504.400390625 165.400390625 c 1
 417.900390625 143.400390625 341.200195312 84.900390625 299 -1.599609375 c 0
 284 -32.2001953125 274.200195312 -65 269.799804688 -98.599609375 c 0
 267.799804688 -111.5 267.099609375 -124.099609375 267.099609375 -136.799804688 c 2
 267.099609375 -139.400390625 l 1
 184.200195312 -139.400390625 l 1
 184.200195312 -136.799804688 l 2xf5
 184.200195312 36.400390625 199.299804688 209.200195312 229.200195312 379.400390625 c 1
 83.7001953125 379.400390625 l 1
 83.7001953125 468.900390625 l 1
 246.200195312 468.900390625 l 1
 264.799804688 559 287.700195312 648.200195312 314.599609375 736.400390625 c 1
 396.099609375 711.400390625 l 1
 371.700195312 631.400390625 350.700195312 550.5 333.299804688 468.900390625 c 1
 455.299804688 468.900390625 l 1
 574.599609375 487.299804688 674.299804688 571.799804688 711 688.5 c 1
 786.299804688 664.799804688 l 1
 761.299804688 585.200195312 712.700195312 517.599609375 649.5 468.900390625 c 1
 925.799804688 468.900390625 l 1
 925.799804688 379.400390625 l 1xee
660.5 159 m 0
 597.400390625 159 546.200195312 107.900390625 546.200195312 44.7998046875 c 0
 546.200195312 -18.2998046875 597.400390625 -69.5 660.5 -69.5 c 0
 723.599609375 -69.5 774.799804688 -18.400390625 774.799804688 44.7001953125 c 0xe5
 774.799804688 88.7998046875 749.799804688 127.099609375 713.200195312 146.099609375 c 0
 708.099609375 148.5 703 150.700195312 697.900390625 152.700195312 c 0
 686.200195312 156.799804688 673.599609375 159 660.5 159 c 0
EndSplineSet
EndChar

StartChar: uniE112
Encoding: 57618 57618 100
Width: 1000
GlyphClass: 2
Flags: MW
HStem: 379.4 89.5
VStem: 179 82.9004 220.7 84.7002 711 75.2998<664.8 688.5>
LayerCount: 2
Fore
SplineSet
925.799804688 379.400390625 m 1xb0
 305.400390625 379.400390625 l 1xb0
 289.5 291.400390625 277.599609375 202.700195312 269.900390625 113.5 c 1
 342.700195312 201.700195312 453 257.900390625 576.299804688 257.900390625 c 0
 626.799804688 257.900390625 676.900390625 248.5 723.599609375 229.900390625 c 0
 732.700195312 226.5 741.400390625 222.599609375 749.599609375 218.099609375 c 0
 749.900390625 217.900390625 750.200195312 217.799804688 750.5 217.599609375 c 0
 834.700195312 171.400390625 874.700195312 69.2001953125 840.5 -23.5 c 0
 802.799804688 -125.799804688 689.299804688 -178.099609375 587 -140.299804688 c 0
 571.200195312 -134.5 556.299804688 -126.700195312 542.5 -117.099609375 c 1
 589.599609375 -49.5 l 1
 641.700195312 -85.7998046875 713.400390625 -73 749.700195312 -20.900390625 c 0
 786 31.2001953125 773.200195312 102.900390625 721.099609375 139.200195312 c 0
 718.900390625 140.700195312 716.700195312 142.099609375 714.400390625 143.5 c 0
 558.200195312 219.599609375 369.900390625 154.599609375 293.700195312 -1.5 c 0
 272.799804688 -44.5 261.900390625 -91.599609375 261.900390625 -139.400390625 c 1
 179 -139.400390625 l 1
 179 -136.799804688 l 2xd0
 179 36.5 192.299804688 209.200195312 220.700195312 379.400390625 c 1
 83.7001953125 379.400390625 l 1
 83.7001953125 468.900390625 l 1
 237 468.900390625 l 1
 255 559.200195312 277.400390625 648.700195312 304.5 737.099609375 c 1
 386.099609375 712.099609375 l 1
 361.599609375 631.900390625 340.599609375 550.700195312 323.099609375 468.900390625 c 1
 455.299804688 468.900390625 l 1
 574.599609375 487.299804688 674.299804688 571.799804688 711 688.5 c 1
 786.299804688 664.799804688 l 1
 761.299804688 585.200195312 712.700195312 517.599609375 649.5 468.900390625 c 1
 925.799804688 468.900390625 l 1
 925.799804688 379.400390625 l 1xb0
EndSplineSet
EndChar

StartChar: uniE113
Encoding: 57619 57619 101
Width: 1000
GlyphClass: 2
Flags: MW
HStem: -152.7 83.1006 159 83.0996 379.4 89.5
VStem: 31.5996 83 303.6 85.9004 711 75.2998<664.8 688.5>
LayerCount: 2
Fore
SplineSet
918.5 18.599609375 m 1
 978 -42.7001953125 l 1
 820.200195312 -195.700195312 568.299804688 -191.700195312 415.400390625 -33.900390625 c 0
 414.200195312 -32.599609375 412.900390625 -31.2998046875 411.700195312 -30 c 1
 382.299804688 -102 311.599609375 -152.700195312 229 -152.700195312 c 0
 120 -152.700195312 31.599609375 -64.2998046875 31.599609375 44.7001953125 c 0
 31.599609375 153.700195312 120 242.099609375 229 242.099609375 c 0
 255.400390625 242.099609375 280.599609375 236.900390625 303.599609375 227.5 c 1
 303.5 229.400390625 303.400390625 231.299804688 303.400390625 233.200195312 c 2
 304 379.400390625 l 1
 83.7001953125 379.400390625 l 1
 83.7001953125 468.900390625 l 1
 304.200195312 468.900390625 l 1
 305.200195312 721.099609375 l 1
 389.400390625 721.099609375 l 1
 389.400390625 468.900390625 l 1
 455.299804688 468.900390625 l 1
 574.599609375 487.299804688 674.299804688 571.799804688 711 688.5 c 1
 786.299804688 664.799804688 l 1
 761.299804688 585.200195312 712.700195312 517.599609375 649.5 468.900390625 c 1
 925.799804688 468.900390625 l 1
 925.799804688 379.400390625 l 1
 389.5 379.400390625 l 1
 389.5 221.299804688 l 1
 400.900390625 55.5 541 -73.5 708.799804688 -69.400390625 c 0
 787.299804688 -67.400390625 862.099609375 -36 918.5 18.599609375 c 1
228.900390625 -69.599609375 m 0
 292 -69.599609375 343.200195312 -18.400390625 343.200195312 44.7001953125 c 0
 343.200195312 59.599609375 340.400390625 73.7998046875 335.099609375 86.7998046875 c 0
 334.599609375 88.2001953125 334 89.599609375 333.400390625 91 c 0
 315.700195312 131 275.599609375 159 228.900390625 159 c 0
 165.799804688 159 114.599609375 107.799804688 114.599609375 44.7001953125 c 0
 114.599609375 -18.400390625 165.799804688 -69.599609375 228.900390625 -69.599609375 c 0
EndSplineSet
EndChar

StartChar: uniE114
Encoding: 57620 57620 102
Width: 1000
GlyphClass: 2
Flags: MW
HStem: -73.5996 83 238 83.0996 379.4 89.5
VStem: 173.7 85.2998 506.4 83.0996 711 75.2998<664.8 688.5>
LayerCount: 2
Fore
SplineSet
925.799804688 379.400390625 m 1
 305.400390625 379.400390625 l 1
 300.299804688 351.599609375 295.700195312 323.700195312 291.5 295.799804688 c 1
 320.5 311.900390625 353.900390625 321.099609375 389.5 321.099609375 c 0
 499.900390625 321.099609375 589.5 232.799804688 589.5 123.799804688 c 0
 589.5 14.7998046875 500 -73.599609375 389.5 -73.599609375 c 0
 340.599609375 -73.599609375 295.799804688 -56.2998046875 261.099609375 -27.599609375 c 1
 259.700195312 -64 259 -100.400390625 259 -136.799804688 c 1
 173.700195312 -136.799804688 l 1
 173.700195312 36.400390625 188.799804688 209.200195312 218.700195312 379.400390625 c 1
 83.7001953125 379.400390625 l 1
 83.7001953125 468.900390625 l 1
 235.799804688 468.900390625 l 1
 254.5 559.200195312 277.400390625 648.700195312 304.5 737.099609375 c 1
 386.099609375 712.099609375 l 1
 361.5 631.900390625 340.5 550.799804688 323 468.900390625 c 1
 455.299804688 468.900390625 l 1
 574.599609375 487.299804688 674.299804688 571.799804688 711 688.5 c 1
 786.299804688 664.799804688 l 1
 761.299804688 585.200195312 712.700195312 517.599609375 649.5 468.900390625 c 1
 925.799804688 468.900390625 l 1
 925.799804688 379.400390625 l 1
389.5 238 m 0
 324.900390625 238 272.599609375 186.799804688 272.599609375 123.700195312 c 0
 272.599609375 60.599609375 324.900390625 9.400390625 389.5 9.400390625 c 0
 454 9.400390625 506.400390625 60.599609375 506.400390625 123.700195312 c 0
 506.400390625 186.799804688 454.099609375 238 389.5 238 c 0
EndSplineSet
EndChar

StartChar: uniE115
Encoding: 57621 57621 103
Width: 1000
GlyphClass: 2
Flags: MW
HStem: -149.1 85.8994 379.4 89.5
VStem: 147.4 85.8994 711 75.2998<664.8 688.5> 779.1 85.5
LayerCount: 2
Fore
SplineSet
862.599609375 208 m 1xe8
 949.5 161.799804688 991.099609375 57.2998046875 956.099609375 -37.7998046875 c 0
 917.799804688 -141.400390625 802.799804688 -194.400390625 699.200195312 -156.099609375 c 0
 673.700195312 -146.700195312 650.400390625 -132.200195312 630.799804688 -113.599609375 c 1
 581.200195312 -136 526.200195312 -148.599609375 468.299804688 -148.799804688 c 2
 440.599609375 -149.099609375 l 1
 278.799804688 -145.599609375 148.299804688 -13.7998046875 147.400390625 147.299804688 c 0
 147.400390625 224.900390625 152 302.5 161 379.400390625 c 1
 83.7001953125 379.400390625 l 1
 83.7001953125 468.900390625 l 1
 173.599609375 468.900390625 l 1
 188.200195312 558.5 209 647.200195312 235.900390625 734.200195312 c 1
 318 708.900390625 l 1
 293.700195312 630.099609375 274.599609375 549.900390625 260.700195312 468.900390625 c 1
 455.299804688 468.900390625 l 1
 574.599609375 487.299804688 674.299804688 571.799804688 711 688.5 c 1
 786.299804688 664.799804688 l 1xf0
 761.299804688 585.200195312 712.700195312 517.599609375 649.5 468.900390625 c 1
 925.799804688 468.900390625 l 1
 925.799804688 379.400390625 l 1
 247.5 379.400390625 l 1
 238.299804688 304.400390625 233.5 228.799804688 233.299804688 153 c 0
 231.299804688 37.900390625 322.299804688 -57.5 436.599609375 -63.2001953125 c 1
 471.200195312 -63.2001953125 l 2
 639.599609375 -60.900390625 776.200195312 74.7998046875 779.099609375 243.599609375 c 1
 864.599609375 242.099609375 l 1
 864.400390625 230.599609375 863.799804688 219.200195312 862.599609375 208 c 1xe8
841.5 -58.7998046875 m 0
 891.5 -18.5 899.200195312 54.7998046875 858.700195312 104.700195312 c 0
 854.099609375 110.400390625 848.900390625 115.700195312 843.299804688 120.400390625 c 1
 817.5 44.900390625 769.700195312 -20.2998046875 707.599609375 -67.599609375 c 1
 748.400390625 -92.5 802.200195312 -90.599609375 841.5 -58.7998046875 c 0
EndSplineSet
EndChar

StartChar: uniE116
Encoding: 57622 57622 104
Width: 1000
GlyphClass: 2
Flags: MW
HStem: -149.2 86 238 83<576.35 639.45> 379.4 89.5
VStem: 157.9 85.8994 410.5 83.0996 711 75.2998<664.8 688.5> 722.2 151.5 789.5 84.2002<-147.5 5.59961 5.59961 5.59961 -147.5 300>
LayerCount: 2
Fore
SplineSet
925.799804688 379.400390625 m 1xfd
 258 379.400390625 l 1
 248.599609375 302.5 243.799804688 225 243.799804688 147.299804688 c 0
 244.799804688 34.7001953125 332.099609375 -57.7001953125 444.5 -63.2001953125 c 1
 479.099609375 -63.2001953125 l 2
 496.799804688 -63 514.099609375 -61.2998046875 531 -58.2001953125 c 1
 460.200195312 -28.2998046875 410.5 41.900390625 410.5 123.599609375 c 0
 410.5 232.599609375 498.900390625 321 607.900390625 321 c 0
 685.400390625 321 752.5 276.299804688 784.799804688 211.299804688 c 1
 786.099609375 221.900390625 786.799804688 231.599609375 787 242.5 c 2
 789.5 300 l 1
 873.700195312 300 l 1
 873.700195312 -147.5 l 1
 789.5 -147.5 l 1
 789.5 5.599609375 l 1
 717 -88.099609375 603.599609375 -148.400390625 476.200195312 -148.900390625 c 2
 448.5 -149.200195312 l 1
 284.200195312 -145.599609375 155 -9.900390625 157.900390625 154.400390625 c 0
 158.200195312 229.700195312 162.700195312 304.799804688 171.5 379.400390625 c 1
 83.7001953125 379.400390625 l 1
 83.7001953125 468.900390625 l 1
 184.099609375 468.900390625 l 1
 198.700195312 558.5 219.5 647.099609375 246.400390625 734.099609375 c 1
 328.5 708.799804688 l 1
 304.200195312 630 285.099609375 549.900390625 271.200195312 468.900390625 c 1
 455.299804688 468.900390625 l 1
 574.599609375 487.299804688 674.299804688 571.799804688 711 688.5 c 1
 786.299804688 664.799804688 l 1
 761.299804688 585.200195312 712.700195312 517.599609375 649.5 468.900390625 c 1
 925.799804688 468.900390625 l 1
 925.799804688 379.400390625 l 1xfd
493.599609375 123.700195312 m 0
 493.599609375 60.599609375 544.799804688 9.400390625 607.900390625 9.400390625 c 0
 671 9.400390625 722.200195312 60.599609375 722.200195312 123.700195312 c 0xfa
 722.200195312 186.799804688 671 238 607.900390625 238 c 0
 544.799804688 238 493.599609375 186.799804688 493.599609375 123.700195312 c 0
EndSplineSet
EndChar

StartChar: uniE117
Encoding: 57623 57623 105
Width: 1000
GlyphClass: 2
Flags: MW
HStem: -149.1 85.8994 379.4 89.5
VStem: 147.4 85.8994 711 75.2998<664.8 688.5> 779 84.2002<-142.2 2.5 2.5 2.5 -142.2 243.7>
LayerCount: 2
Fore
SplineSet
247.5 379.400390625 m 1xf0
 238.299804688 304.400390625 233.5 228.799804688 233.299804688 153 c 0
 231.299804688 37.900390625 322.099609375 -57.5 436.5 -63.2001953125 c 1
 471.099609375 -63.2001953125 l 2
 639.5 -60.7998046875 776 74.7998046875 779 243.700195312 c 1
 864.5 242.200195312 l 1
 864.299804688 233.299804688 863.900390625 224.5 863.200195312 215.799804688 c 2
 863.200195312 -142.200195312 l 1
 779 -142.200195312 l 1
 779 2.5 l 1xe8
 706.400390625 -89.400390625 594.099609375 -148.299804688 468.200195312 -148.799804688 c 2
 440.5 -149.099609375 l 1
 278.599609375 -145.599609375 148.299804688 -13.7998046875 147.400390625 147.299804688 c 0
 147.400390625 224.900390625 152 302.5 161 379.400390625 c 1
 83.7001953125 379.400390625 l 1
 83.7001953125 468.900390625 l 1
 173.599609375 468.900390625 l 1
 188.200195312 558.5 209 647.200195312 235.900390625 734.200195312 c 1
 318 708.900390625 l 1
 293.700195312 630.099609375 274.599609375 549.900390625 260.700195312 468.900390625 c 1
 455.299804688 468.900390625 l 1
 574.599609375 487.299804688 674.299804688 571.799804688 711 688.5 c 1
 786.299804688 664.799804688 l 1
 761.299804688 585.200195312 712.700195312 517.599609375 649.5 468.900390625 c 1
 925.799804688 468.900390625 l 1
 925.799804688 379.400390625 l 1
 247.5 379.400390625 l 1xf0
EndSplineSet
EndChar

StartChar: uniE118
Encoding: 57624 57624 106
Width: 1000
GlyphClass: 2
Flags: MW
HStem: 248.5 83.0996 379.4 89.5
VStem: 147.4 85.7998 394.6 83.2002 706.4 83 856.5 86.9004
LayerCount: 2
Fore
SplineSet
907 -29.099609375 m 0
 930.599609375 -62.5 943.299804688 -102.400390625 943.400390625 -143.400390625 c 1
 856.5 -143.599609375 l 1
 856.400390625 -81.7001953125 806.200195312 -31.7001953125 744.299804688 -31.7998046875 c 0
 721.200195312 -31.900390625 698.200195312 -38.2998046875 679.400390625 -51.599609375 c 2
 604.5 -104.099609375 l 1
 471.099609375 -187.299804688 294.400390625 -152.799804688 202.799804688 -22.7001953125 c 0
 167.700195312 27.2001953125 147.799804688 86.5 147.400390625 147.299804688 c 0
 147.400390625 224.900390625 152 302.5 161 379.400390625 c 1
 83.7001953125 379.400390625 l 1
 83.7001953125 468.900390625 l 1
 173.599609375 468.900390625 l 1
 188.200195312 558.5 209 647.200195312 235.900390625 734.200195312 c 1
 318 708.900390625 l 1
 293.599609375 630.099609375 274.5 549.900390625 260.599609375 468.900390625 c 1
 455.299804688 468.900390625 l 1
 574.599609375 487.299804688 674.299804688 571.799804688 711 688.5 c 1
 786.299804688 664.799804688 l 1
 761.299804688 585.200195312 712.700195312 517.599609375 649.5 468.900390625 c 1
 925.799804688 468.900390625 l 1
 925.799804688 379.400390625 l 1
 247.400390625 379.400390625 l 1
 238.5 306.599609375 233.700195312 233.299804688 233.200195312 159.700195312 c 0
 231.200195312 42.400390625 319.299804688 -56.7998046875 436.200195312 -62.5 c 0
 462.599609375 -63.7998046875 488.700195312 -60.099609375 513.400390625 -51.900390625 c 1
 443.5 -21.099609375 394.599609375 49.400390625 394.599609375 131.599609375 c 0
 394.599609375 242.099609375 483 331.599609375 592 331.599609375 c 0
 701 331.599609375 789.400390625 242.099609375 789.400390625 131.599609375 c 0
 789.400390625 103.700195312 783.799804688 77.099609375 773.599609375 53 c 1
 825.599609375 45.2998046875 874.400390625 17.2001953125 907 -29.099609375 c 0
654.700195312 33.7998046875 m 0
 685.799804688 54.7001953125 706.400390625 90.7001953125 706.400390625 131.599609375 c 0
 706.400390625 196.200195312 655.200195312 248.5 592.099609375 248.5 c 0
 529 248.5 477.799804688 196.200195312 477.799804688 131.599609375 c 0
 477.799804688 67 529 14.7001953125 592.099609375 14.7001953125 c 0
 608.900390625 14.7001953125 624.900390625 18.400390625 639.299804688 25.099609375 c 0
 644.400390625 28.2998046875 649.5 31.2001953125 654.700195312 33.7998046875 c 0
EndSplineSet
EndChar

StartChar: uniE119
Encoding: 57625 57625 107
Width: 1000
GlyphClass: 2
Flags: MW
HStem: 126.43 78.9131 236.8 84.2002 379.4 89.5
VStem: 168.5 82.9004 213.5 86.5996 711 75.2998<664.8 688.5> 757.9 79 857.898 78.9131
LayerCount: 2
Fore
SplineSet
757.900390625 278.900390625 m 0xe3
 757.900390625 302.151367188 775.584960938 321 797.400390625 321 c 0
 819.21484375 321 836.900390625 302.151367188 836.900390625 278.900390625 c 0
 836.900390625 255.6484375 819.21484375 236.799804688 797.400390625 236.799804688 c 0
 775.584960938 236.799804688 757.900390625 255.6484375 757.900390625 278.900390625 c 0xe3
895.514648438 126.4296875 m 0
 873.723632812 127.4453125 856.881835938 145.934570312 857.8984375 167.7265625 c 0
 858.915039062 189.517578125 877.404296875 206.358398438 899.1953125 205.342773438 c 0
 920.986328125 204.326171875 937.828125 185.836914062 936.811523438 164.045898438 c 0
 935.794921875 142.25390625 917.305664062 125.413085938 895.514648438 126.4296875 c 0
715.799804688 230.200195312 m 0
 819.599609375 192.900390625 873.099609375 79.599609375 835.299804688 -22.7998046875 c 0
 797.5 -125.200195312 682.700195312 -178 578.900390625 -140.700195312 c 0
 563.099609375 -135 548 -127.299804688 534.099609375 -117.900390625 c 1
 581.200195312 -50.2998046875 l 1
 634.900390625 -86 708 -72.5 744.599609375 -19.900390625 c 0
 781.200195312 32.5 767.299804688 104.099609375 713.599609375 139.799804688 c 0
 711.299804688 141.299804688 709 142.700195312 706.700195312 144 c 0
 549 219.599609375 359.200195312 153.900390625 283 -2.5 c 0
 268.200195312 -32.7998046875 258.5 -65.099609375 254.099609375 -98.2001953125 c 0
 252.299804688 -111.099609375 251.400390625 -123.900390625 251.400390625 -136.799804688 c 2
 251.400390625 -139.400390625 l 1
 168.5 -139.400390625 l 1
 168.5 -136.799804688 l 2xf1
 168.5 36.400390625 183.599609375 209.200195312 213.5 379.400390625 c 1
 83.7001953125 379.400390625 l 1
 83.7001953125 468.900390625 l 1
 230.599609375 468.900390625 l 1
 249.299804688 559.200195312 272.200195312 648.700195312 299.299804688 737.099609375 c 1
 380.900390625 712.099609375 l 1
 356.299804688 631.900390625 335.299804688 550.700195312 317.799804688 468.900390625 c 1
 455.299804688 468.900390625 l 1
 574.599609375 487.299804688 674.299804688 571.799804688 711 688.5 c 1
 786.299804688 664.799804688 l 1
 761.299804688 585.200195312 712.700195312 517.599609375 649.5 468.900390625 c 1
 925.799804688 468.900390625 l 1
 925.799804688 379.400390625 l 1
 300.099609375 379.400390625 l 1xed
 284.599609375 293.400390625 272.900390625 206.700195312 265.099609375 119.599609375 c 1
 338.5 204.299804688 447.099609375 257.900390625 568.400390625 257.900390625 c 0
 618.900390625 257.900390625 669 248.599609375 715.799804688 230.200195312 c 0
EndSplineSet
EndChar

StartChar: uniE11A
Encoding: 57626 57626 108
Width: 1000
GlyphClass: 2
Flags: MW
HStem: -147.4 84.2002 216.9 83.0996 379.4 89.5
VStem: 152.7 87.2998 516.9 83.0996 711 75.2998<664.8 688.5>
LayerCount: 2
Fore
SplineSet
925.799804688 379.400390625 m 1
 252.799804688 379.400390625 l 1
 246.299804688 326.900390625 242.099609375 274 240 221 c 1
 276.5 269 334.599609375 300 400 300 c 0
 510.5 300 600 211.599609375 600 102.599609375 c 0
 600 33.099609375 563.5 -28 508.5 -63.2001953125 c 1
 915.799804688 -63.2001953125 l 1
 915.799804688 -147.400390625 l 1
 444.099609375 -147.400390625 l 2
 279.799804688 -143.799804688 149.799804688 -9.7998046875 152.700195312 154.5 c 0
 153 229.700195312 157.5 304.799804688 166.299804688 379.400390625 c 1
 83.7001953125 379.400390625 l 1
 83.7001953125 468.900390625 l 1
 178.799804688 468.900390625 l 1
 193.5 558.5 214.299804688 647.200195312 241.200195312 734.200195312 c 1
 323.299804688 708.900390625 l 1
 298.900390625 630.099609375 279.799804688 549.900390625 265.900390625 468.900390625 c 1
 455.299804688 468.900390625 l 1
 574.599609375 487.299804688 674.299804688 571.799804688 711 688.5 c 1
 786.299804688 664.799804688 l 1
 761.299804688 585.200195312 712.700195312 517.599609375 649.5 468.900390625 c 1
 925.799804688 468.900390625 l 1
 925.799804688 379.400390625 l 1
400 216.900390625 m 0
 335.400390625 216.900390625 283.099609375 165.700195312 283.099609375 102.599609375 c 0
 283.099609375 39.5 335.400390625 -11.7001953125 400 -11.7001953125 c 0
 464.599609375 -11.7001953125 516.900390625 39.5 516.900390625 102.599609375 c 0
 516.900390625 165.700195312 464.599609375 216.900390625 400 216.900390625 c 0
EndSplineSet
EndChar

StartChar: uniE11B
Encoding: 57627 57627 109
Width: 1000
GlyphClass: 2
Flags: MW
HStem: -147.4 84.2002 216.9 83.0996 236.8 79 379.4 89.5
VStem: 158 87.2998 522.2 83.0996 668.4 79 711 75.2998<664.8 688.5> 805.2 79
LayerCount: 2
Fore
SplineSet
668.400390625 276.299804688 m 0xbe80
 668.400390625 298.115234375 686.084960938 315.799804688 707.900390625 315.799804688 c 0
 729.71484375 315.799804688 747.400390625 298.115234375 747.400390625 276.299804688 c 0
 747.400390625 254.484375 729.71484375 236.799804688 707.900390625 236.799804688 c 0
 686.084960938 236.799804688 668.400390625 254.484375 668.400390625 276.299804688 c 0xbe80
805.200195312 276.299804688 m 0
 805.200195312 298.115234375 822.884765625 315.799804688 844.700195312 315.799804688 c 0
 866.515625 315.799804688 884.200195312 298.115234375 884.200195312 276.299804688 c 0
 884.200195312 254.484375 866.515625 236.799804688 844.700195312 236.799804688 c 0
 822.884765625 236.799804688 805.200195312 254.484375 805.200195312 276.299804688 c 0
925.799804688 468.900390625 m 1
 925.799804688 379.400390625 l 1
 258.099609375 379.400390625 l 1
 251.599609375 326.900390625 247.400390625 274 245.299804688 221 c 1
 281.799804688 269 339.900390625 300 405.299804688 300 c 0
 515.799804688 300 605.299804688 211.599609375 605.299804688 102.599609375 c 0
 605.299804688 33.099609375 568.799804688 -28 513.799804688 -63.2001953125 c 1
 921 -63.2001953125 l 1
 921 -147.400390625 l 1
 449.5 -147.400390625 l 2
 285.200195312 -143.799804688 155 -9.7998046875 158 154.5 c 0
 158.299804688 229.700195312 162.799804688 304.799804688 171.599609375 379.400390625 c 1
 83.7001953125 379.400390625 l 1
 83.7001953125 468.900390625 l 1
 184.099609375 468.900390625 l 1
 198.799804688 558.5 219.599609375 647.200195312 246.5 734.200195312 c 1
 328.599609375 708.900390625 l 1
 304.200195312 630.099609375 285.099609375 549.900390625 271.200195312 468.900390625 c 1
 455.299804688 468.900390625 l 1
 574.599609375 487.299804688 674.299804688 571.799804688 711 688.5 c 1
 786.299804688 664.799804688 l 1xdd80
 761.299804688 585.200195312 712.700195312 517.599609375 649.5 468.900390625 c 1
 925.799804688 468.900390625 l 1
405.299804688 216.900390625 m 0
 340.700195312 216.900390625 288.400390625 165.700195312 288.400390625 102.599609375 c 0
 288.400390625 39.5 340.700195312 -11.7001953125 405.299804688 -11.7001953125 c 0
 469.900390625 -11.7001953125 522.200195312 39.5 522.200195312 102.599609375 c 0
 522.200195312 165.700195312 469.900390625 216.900390625 405.299804688 216.900390625 c 0
EndSplineSet
EndChar

StartChar: uniE11C
Encoding: 57628 57628 110
Width: 1000
GlyphClass: 2
Flags: MW
HStem: -152.6 83 -78.9004 84.2002 159 83.2998<218.45 258.1> 236.8 84.2998 379.4 89.5
VStem: 52.5996 83.1006 305.2 84.2002 364.3 83.1006 542.1 84.2002 605.3 84.2002 711 75.2998<664.8 688.5> 857.9 84.1992
LayerCount: 2
Fore
SplineSet
742.099609375 321.099609375 m 0x1eb0
 852.599609375 321.099609375 942.099609375 231.599609375 942.099609375 121.099609375 c 0
 942.099609375 10.599609375 852.599609375 -78.900390625 742.099609375 -78.900390625 c 0x5eb0
 723.900390625 -78.900390625 706.299804688 -76.5 689.5 -71.900390625 c 1
 689.5 -147.299804688 l 1
 605.299804688 -147.299804688 l 1
 605.299804688 -29.2001953125 l 1
 446.599609375 62.400390625 l 1
 447.099609375 56.599609375 447.400390625 50.7001953125 447.400390625 44.7998046875 c 0
 447.400390625 -64.2001953125 359 -152.599609375 250 -152.599609375 c 0
 141 -152.599609375 52.599609375 -64.099609375 52.599609375 44.900390625 c 0
 52.599609375 153.900390625 141 242.299804688 250 242.299804688 c 0xad70
 269.200195312 242.299804688 287.799804688 239.5 305.299804688 234.400390625 c 1
 305.299804688 379.400390625 l 1
 83.7001953125 379.400390625 l 1
 83.7001953125 468.900390625 l 1
 305.200195312 468.900390625 l 1
 305.200195312 721.200195312 l 1
 389.400390625 721.200195312 l 1
 389.400390625 468.900390625 l 1
 455.299804688 468.900390625 l 1
 574.599609375 487.299804688 674.299804688 571.799804688 711 688.5 c 1
 786.299804688 664.799804688 l 1
 761.299804688 585.200195312 712.700195312 517.599609375 649.5 468.900390625 c 1
 925.799804688 468.900390625 l 1
 925.799804688 379.400390625 l 1
 389.5 379.400390625 l 1
 389.5 194.200195312 l 1
 542.700195312 105.700195312 l 1
 542.299804688 110.799804688 542.099609375 115.900390625 542.099609375 121.099609375 c 0
 542.099609375 231.599609375 631.599609375 321.099609375 742.099609375 321.099609375 c 0x1eb0
250 -69.599609375 m 0xad30
 313.099609375 -69.599609375 364.299804688 -18.400390625 364.299804688 44.7001953125 c 0
 364.299804688 82.400390625 346 115.799804688 317.900390625 136.700195312 c 1
 295.5 149.599609375 l 2
 281.5 155.599609375 266.200195312 159 250 159 c 0
 186.900390625 159 135.700195312 107.799804688 135.700195312 44.7001953125 c 0
 135.700195312 -18.400390625 186.900390625 -69.599609375 250 -69.599609375 c 0xad30
742.099609375 5.2998046875 m 0x5cb0
 806.099609375 5.2998046875 857.900390625 57 857.900390625 121 c 0
 857.900390625 185 806 236.799804688 742.099609375 236.799804688 c 0
 678.099609375 236.799804688 626.299804688 184.900390625 626.299804688 121 c 0
 626.299804688 87.2001953125 640.900390625 56.7998046875 664 35.599609375 c 1
 701.5 13.900390625 l 1
 700.900390625 12.7998046875 l 1
 713.700195312 8 727.599609375 5.2998046875 742.099609375 5.2998046875 c 0x5cb0
EndSplineSet
EndChar

StartChar: uniE11D
Encoding: 57629 57629 111
Width: 1000
GlyphClass: 2
Flags: MW
HStem: -152.6 83.0996 159 98.9004 379.4 89.5
VStem: 178.9 82.8994 223.9 86.6992 457.8 83.2002 711 75.2998<664.8 688.5> 769.6 83
LayerCount: 2
Fore
SplineSet
865.5 221.599609375 m 2xe4
 875 216.099609375 878.299804688 203.900390625 872.799804688 194.400390625 c 0
 867.299804688 184.900390625 855.099609375 181.599609375 845.599609375 187.099609375 c 2
 707.799804688 266.700195312 l 2
 698.299804688 272.200195312 695 284.400390625 700.5 293.900390625 c 0
 706 303.400390625 718.200195312 306.700195312 727.700195312 301.200195312 c 2
 865.5 221.599609375 l 2xe4
649.5 468.900390625 m 1
 925.799804688 468.900390625 l 1
 925.799804688 379.400390625 l 1
 310.599609375 379.400390625 l 1xee
 295.099609375 293.700195312 283.5 207.299804688 275.700195312 120.5 c 1
 348.599609375 204.599609375 456.200195312 257.900390625 576.299804688 257.900390625 c 0
 623.799804688 257.900390625 670.900390625 249.299804688 715.200195312 232.799804688 c 0
 727.299804688 228.900390625 738.900390625 223.900390625 749.900390625 217.900390625 c 0
 750.099609375 217.799804688 750.299804688 217.700195312 750.5 217.599609375 c 0
 811.400390625 184 852.599609375 119.200195312 852.599609375 44.7998046875 c 0
 852.599609375 -64.2001953125 764.200195312 -152.599609375 655.200195312 -152.599609375 c 0
 546.200195312 -152.599609375 457.799804688 -64.2001953125 457.799804688 44.7998046875 c 0
 457.799804688 90.2001953125 473.200195312 132 499 165.400390625 c 1
 412.5 143.400390625 335.799804688 84.900390625 293.599609375 -1.599609375 c 0
 278.700195312 -32 268.900390625 -64.599609375 264.5 -98 c 0
 262.200195312 -113.5 261.799804688 -123.799804688 261.799804688 -136.799804688 c 2
 261.799804688 -139.400390625 l 1
 178.900390625 -139.400390625 l 1
 178.900390625 -136.799804688 l 2xf5
 178.900390625 36.5 194 209.200195312 223.900390625 379.400390625 c 1
 83.7001953125 379.400390625 l 1
 83.7001953125 468.900390625 l 1
 241 468.900390625 l 1
 259.799804688 559.200195312 282.700195312 648.799804688 309.799804688 737.200195312 c 1
 391.400390625 712.200195312 l 1
 366.799804688 631.900390625 345.799804688 550.799804688 328.299804688 468.900390625 c 1
 455.299804688 468.900390625 l 1
 574.599609375 487.299804688 674.299804688 571.799804688 711 688.5 c 1
 786.299804688 664.799804688 l 1xee
 761.299804688 585.200195312 712.700195312 517.599609375 649.5 468.900390625 c 1
655.299804688 159 m 0
 592.200195312 159 541 107.900390625 541 44.7998046875 c 0
 541 -18.2998046875 592.200195312 -69.5 655.299804688 -69.5 c 0
 718.400390625 -69.5 769.5 -18.400390625 769.599609375 44.7001953125 c 0xe5
 769.599609375 88.7998046875 744.599609375 127.099609375 708 146.099609375 c 0
 702.900390625 148.5 697.799804688 150.700195312 692.700195312 152.700195312 c 0
 681 156.799804688 668.400390625 159 655.299804688 159 c 0
EndSplineSet
EndChar

StartChar: uniE11E
Encoding: 57630 57630 112
Width: 1000
GlyphClass: 2
Flags: MW
HStem: 379.4 89.5
VStem: 173.7 82.8994 215.4 84.6992 711 75.2998<664.8 688.5>
LayerCount: 2
Fore
SplineSet
852.799804688 221.599609375 m 2x90
 862.299804688 216.099609375 865.599609375 203.900390625 860.099609375 194.400390625 c 0
 854.599609375 184.900390625 842.400390625 181.599609375 832.900390625 187.099609375 c 2
 695.099609375 266.700195312 l 2
 685.599609375 272.200195312 682.299804688 284.400390625 687.799804688 293.900390625 c 0
 693.299804688 303.400390625 705.5 306.700195312 715 301.200195312 c 2
 852.799804688 221.599609375 l 2x90
649.5 468.900390625 m 1
 925.799804688 468.900390625 l 1
 925.799804688 379.400390625 l 1
 300.099609375 379.400390625 l 1xb0
 284.200195312 291.400390625 272.299804688 202.700195312 264.599609375 113.5 c 1
 337.400390625 201.700195312 447.700195312 257.900390625 571 257.900390625 c 0
 621.5 257.900390625 671.599609375 248.5 718.299804688 229.900390625 c 0
 727.400390625 226.5 736.099609375 222.599609375 744.299804688 218.099609375 c 0
 744.599609375 217.900390625 744.900390625 217.799804688 745.200195312 217.599609375 c 0
 829.5 171.400390625 869.400390625 69.2001953125 835.200195312 -23.5 c 0
 797.5 -125.799804688 684 -178.099609375 581.700195312 -140.299804688 c 0
 565.900390625 -134.5 551 -126.700195312 537.200195312 -117.099609375 c 1
 584.299804688 -49.5 l 1
 636.400390625 -85.7998046875 708.099609375 -73 744.400390625 -20.900390625 c 0
 780.700195312 31.2001953125 767.900390625 102.900390625 715.799804688 139.200195312 c 0
 713.599609375 140.700195312 711.400390625 142.099609375 709.099609375 143.5 c 0
 552.900390625 219.599609375 364.599609375 154.599609375 288.400390625 -1.5 c 0
 267.5 -44.5 256.599609375 -91.599609375 256.599609375 -139.400390625 c 1
 173.700195312 -139.400390625 l 1
 173.700195312 -136.799804688 l 2xd0
 173.700195312 36.400390625 187 209.200195312 215.400390625 379.400390625 c 1xb0
 83.7001953125 379.400390625 l 1
 83.7001953125 468.900390625 l 1
 231.799804688 468.900390625 l 1
 249.799804688 559.200195312 272.200195312 648.700195312 299.299804688 737.099609375 c 1
 380.900390625 712.099609375 l 1
 356.299804688 631.900390625 335.299804688 550.700195312 317.799804688 468.900390625 c 1
 455.299804688 468.900390625 l 1
 574.599609375 487.299804688 674.299804688 571.799804688 711 688.5 c 1
 786.299804688 664.799804688 l 1
 761.299804688 585.200195312 712.700195312 517.599609375 649.5 468.900390625 c 1
EndSplineSet
EndChar

StartChar: uniE11F
Encoding: 57631 57631 113
Width: 1000
GlyphClass: 2
Flags: MW
HStem: -152.7 83.2002 159 83.0996 226.3 36.7998 379.4 89.5
VStem: 26.2998 83.1006 298.3 85.9004 711 75.2998<664.8 688.5>
LayerCount: 2
Fore
SplineSet
602.599609375 263.099609375 m 2xbe
 760.5 263.099609375 l 2
 770.700195312 263.099609375 778.900390625 254.900390625 778.900390625 244.700195312 c 0
 778.900390625 234.5 770.700195312 226.299804688 760.5 226.299804688 c 2
 602.599609375 226.299804688 l 2
 592.5 226.299804688 584.200195312 234.599609375 584.200195312 244.700195312 c 0
 584.200195312 254.900390625 592.400390625 263.099609375 602.599609375 263.099609375 c 2xbe
913.400390625 18.599609375 m 1
 973 -42.7998046875 l 1
 815.200195312 -195.799804688 563.299804688 -191.799804688 410.400390625 -34 c 0
 409.099609375 -32.599609375 407.799804688 -31.2998046875 406.5 -29.900390625 c 1
 377.099609375 -101.900390625 306.299804688 -152.700195312 223.700195312 -152.700195312 c 0
 114.700195312 -152.700195312 26.2998046875 -64.2998046875 26.2998046875 44.7001953125 c 0
 26.2998046875 153.700195312 114.700195312 242.099609375 223.700195312 242.099609375 c 0xde
 250.099609375 242.099609375 275.400390625 236.900390625 298.5 227.400390625 c 1
 298.400390625 229.400390625 298.299804688 231.299804688 298.299804688 233.200195312 c 2
 298.799804688 379.400390625 l 1
 83.7001953125 379.400390625 l 1
 83.7001953125 468.900390625 l 1
 299.099609375 468.900390625 l 1
 300 721.099609375 l 1
 384.099609375 721.099609375 l 1
 384.099609375 468.900390625 l 1
 455.299804688 468.900390625 l 1
 574.599609375 487.299804688 674.299804688 571.799804688 711 688.5 c 1
 786.299804688 664.799804688 l 1
 761.299804688 585.200195312 712.700195312 517.599609375 649.5 468.900390625 c 1
 925.799804688 468.900390625 l 1
 925.799804688 379.400390625 l 1
 384.200195312 379.400390625 l 1
 384.200195312 224.400390625 l 1
 394 57.099609375 534.799804688 -73.599609375 703.700195312 -69.400390625 c 0
 782.200195312 -67.400390625 857 -36 913.400390625 18.599609375 c 1
223.700195312 -69.5 m 0
 286.799804688 -69.5 338 -18.400390625 338 44.7001953125 c 0
 338 107.799804688 286.799804688 159 223.700195312 159 c 0
 160.599609375 159 109.400390625 107.900390625 109.400390625 44.7998046875 c 0
 109.400390625 -18.2998046875 160.599609375 -69.5 223.700195312 -69.5 c 0
EndSplineSet
EndChar

StartChar: uniE120
Encoding: 57632 57632 114
Width: 1000
GlyphClass: 2
Flags: MW
HStem: -72.5996 83 227.4 36.7998 239 83.0996 379.4 89.5
VStem: 168.4 85.2998 501.1 83.1006 711 75.2998<664.8 688.5>
LayerCount: 2
Fore
SplineSet
834.200195312 264.200195312 m 2xde
 844.400390625 264.200195312 852.599609375 255.900390625 852.700195312 245.799804688 c 0
 852.700195312 235.599609375 844.5 227.400390625 834.299804688 227.400390625 c 2
 671.099609375 227.400390625 l 2
 660.900390625 227.400390625 652.700195312 235.599609375 652.700195312 245.799804688 c 0
 652.700195312 256 660.900390625 264.200195312 671.099609375 264.200195312 c 2
 834.200195312 264.200195312 l 2xde
649.5 468.900390625 m 1
 925.799804688 468.900390625 l 1
 925.799804688 379.400390625 l 1
 299.900390625 379.400390625 l 1
 294.900390625 352 290.400390625 324.400390625 286.200195312 296.799804688 c 1
 315.200195312 312.900390625 348.599609375 322.099609375 384.200195312 322.099609375 c 0xbe
 494.700195312 322.099609375 584.200195312 233.799804688 584.200195312 124.799804688 c 0
 584.200195312 15.7998046875 494.700195312 -72.599609375 384.200195312 -72.599609375 c 0
 335.299804688 -72.599609375 290.5 -55.2998046875 255.799804688 -26.599609375 c 1
 254.400390625 -63 253.700195312 -99.400390625 253.700195312 -135.799804688 c 1
 168.400390625 -135.799804688 l 1
 168.400390625 37.099609375 183.400390625 209.5 213.200195312 379.400390625 c 1
 83.7001953125 379.400390625 l 1
 83.7001953125 468.900390625 l 1
 230.299804688 468.900390625 l 1
 249.099609375 559.599609375 272 649.400390625 299.200195312 738.099609375 c 1
 380.799804688 713.099609375 l 1
 356.099609375 632.599609375 335 551.099609375 317.5 468.900390625 c 1
 455.299804688 468.900390625 l 1
 574.599609375 487.299804688 674.299804688 571.799804688 711 688.5 c 1
 786.299804688 664.799804688 l 1
 761.299804688 585.200195312 712.700195312 517.599609375 649.5 468.900390625 c 1
384.200195312 239 m 0
 319.599609375 239 267.299804688 187.799804688 267.299804688 124.700195312 c 0
 267.299804688 61.599609375 319.599609375 10.400390625 384.200195312 10.400390625 c 0
 448.799804688 10.400390625 501.099609375 61.599609375 501.099609375 124.700195312 c 0
 501.099609375 187.799804688 448.799804688 239 384.200195312 239 c 0
EndSplineSet
EndChar

StartChar: uniE121
Encoding: 57633 57633 115
Width: 1000
GlyphClass: 2
Flags: MW
HStem: -149.1 86.0996 268.3 42.2002 379.4 89.5
VStem: 157.9 85.8994 711 75.2998<664.8 688.5> 789.6 84.2002
LayerCount: 2
Fore
SplineSet
868.400390625 310.5 m 2
 880 310.5 889.5 301.099609375 889.5 289.400390625 c 0
 889.5 277.700195312 880 268.299804688 868.400390625 268.299804688 c 2
 710.5 268.299804688 l 2
 698.799804688 268.299804688 689.400390625 277.700195312 689.400390625 289.400390625 c 0
 689.400390625 301.099609375 698.900390625 310.5 710.5 310.5 c 2
 868.400390625 310.5 l 2
649.5 468.900390625 m 1
 925.799804688 468.900390625 l 1
 925.799804688 379.400390625 l 1
 258 379.400390625 l 1
 248.799804688 304.400390625 244 228.799804688 243.799804688 153 c 0
 241.799804688 37.900390625 333.200195312 -57.5 447.599609375 -63 c 1
 482.200195312 -63 l 2
 645.900390625 -60.7998046875 779.5 67.5 789.5 229.700195312 c 2
 790 242.200195312 l 1
 790 243.700195312 l 1
 874 242.200195312 l 1
 873.799804688 231.200195312 873.900390625 220.599609375 873.799804688 209.700195312 c 2
 873.799804688 -142.200195312 l 1
 789.599609375 -142.200195312 l 1
 789.599609375 1.7998046875 l 1
 716.900390625 -89.7001953125 604.900390625 -148.299804688 479.299804688 -148.799804688 c 2
 451.599609375 -149.099609375 l 1
 289.700195312 -145.599609375 158.799804688 -13.7998046875 157.900390625 147.299804688 c 0
 157.900390625 224.900390625 162.5 302.5 171.5 379.400390625 c 1
 83.7001953125 379.400390625 l 1
 83.7001953125 468.900390625 l 1
 184.099609375 468.900390625 l 1
 198.700195312 558.5 219.5 647.200195312 246.400390625 734.200195312 c 1
 328.5 708.900390625 l 1
 304.200195312 630.099609375 285.099609375 549.900390625 271.200195312 468.900390625 c 1
 455.299804688 468.900390625 l 1
 574.599609375 487.299804688 674.299804688 571.799804688 711 688.5 c 1
 786.299804688 664.799804688 l 1
 761.299804688 585.200195312 712.700195312 517.599609375 649.5 468.900390625 c 1
EndSplineSet
EndChar

StartChar: uniE122
Encoding: 57634 57634 116
Width: 1000
GlyphClass: 2
Flags: MW
HStem: -152.6 83.0996 159 98.9004 379.4 89.5 526.3 34.2002 628.9 34.1992
VStem: 184.2 82.8994 229.2 86.5996 463.2 83 711 75.2998<664.8 688.5> 774.8 83.2002 810.5 34.2002<585.25 604.15 585.25 613.6> 918.3 34.4004
LayerCount: 2
Fore
SplineSet
810.5 594.700195312 m 0xf930
 810.5 632.5 842.299804688 663.099609375 881.599609375 663.099609375 c 0
 920.799804688 663.099609375 952.700195312 632.5 952.700195312 594.700195312 c 0
 952.700195312 556.900390625 920.900390625 526.299804688 881.599609375 526.299804688 c 0
 842.299804688 526.299804688 810.5 556.900390625 810.5 594.700195312 c 0xf930
844.700195312 594.700195312 m 0
 844.700195312 575.799804688 861.200195312 560.5 881.5 560.5 c 0
 901.799804688 560.5 918.299804688 575.799804688 918.299804688 594.700195312 c 0
 918.299804688 613.599609375 901.799804688 628.900390625 881.5 628.900390625 c 0
 861.200195312 628.900390625 844.700195312 613.599609375 844.700195312 594.700195312 c 0
925.799804688 379.400390625 m 1
 315.799804688 379.400390625 l 1xfb90
 300.299804688 293.700195312 288.599609375 207.200195312 280.900390625 120.299804688 c 1
 353.799804688 204.599609375 461.5 257.900390625 581.599609375 257.900390625 c 0
 629.099609375 257.900390625 676.200195312 249.299804688 720.5 232.799804688 c 0
 732.599609375 228.900390625 744.200195312 223.900390625 755.200195312 217.900390625 c 0
 755.400390625 217.799804688 755.599609375 217.700195312 755.799804688 217.599609375 c 0
 816.700195312 184 857.900390625 119.200195312 858 44.7998046875 c 0
 858 -64.2001953125 769.599609375 -152.599609375 660.599609375 -152.599609375 c 0
 551.599609375 -152.599609375 463.200195312 -64.2001953125 463.200195312 44.7998046875 c 0
 463.200195312 90.2001953125 478.599609375 132 504.400390625 165.400390625 c 1
 417.900390625 143.400390625 341.200195312 84.900390625 299 -1.599609375 c 0
 284 -32.2001953125 274.200195312 -65 269.799804688 -98.599609375 c 0
 267.799804688 -111.5 267.099609375 -124.099609375 267.099609375 -136.799804688 c 2
 267.099609375 -139.400390625 l 1
 184.200195312 -139.400390625 l 1
 184.200195312 -136.799804688 l 2xfd50
 184.200195312 36.400390625 199.299804688 209.200195312 229.200195312 379.400390625 c 1
 83.7001953125 379.400390625 l 1
 83.7001953125 468.900390625 l 1
 246.200195312 468.900390625 l 1
 264.799804688 559 287.700195312 648.200195312 314.599609375 736.400390625 c 1
 396.099609375 711.400390625 l 1
 371.700195312 631.400390625 350.700195312 550.5 333.299804688 468.900390625 c 1
 455.299804688 468.900390625 l 1
 574.599609375 487.299804688 674.299804688 571.799804688 711 688.5 c 1
 786.299804688 664.799804688 l 1xfb90
 761.299804688 585.200195312 712.700195312 517.599609375 649.5 468.900390625 c 1
 925.799804688 468.900390625 l 1
 925.799804688 379.400390625 l 1
660.5 159 m 0
 597.400390625 159 546.200195312 107.900390625 546.200195312 44.7998046875 c 0
 546.200195312 -18.2998046875 597.400390625 -69.5 660.5 -69.5 c 0
 723.599609375 -69.5 774.799804688 -18.400390625 774.799804688 44.7001953125 c 0xf950
 774.799804688 88.7998046875 749.799804688 127.099609375 713.200195312 146.099609375 c 0
 708.099609375 148.5 703 150.700195312 697.900390625 152.700195312 c 0
 686.200195312 156.799804688 673.599609375 159 660.5 159 c 0
EndSplineSet
EndChar

StartChar: uniE123
Encoding: 57635 57635 117
Width: 1000
GlyphClass: 2
Flags: MW
HStem: 379.4 89.5 526.3 34.2002 628.9 34.1992
VStem: 179 82.9004 220.7 84.7002 711 75.2998<664.8 688.5> 810.5 34.2002<585.25 604.15 585.25 613.6> 918.3 34.4004
LayerCount: 2
Fore
SplineSet
810.5 594.700195312 m 0xe7
 810.5 632.5 842.299804688 663.099609375 881.599609375 663.099609375 c 0
 920.799804688 663.099609375 952.700195312 632.5 952.700195312 594.700195312 c 0
 952.700195312 556.900390625 920.900390625 526.299804688 881.599609375 526.299804688 c 0
 842.299804688 526.299804688 810.5 556.900390625 810.5 594.700195312 c 0xe7
844.700195312 594.700195312 m 0
 844.700195312 575.799804688 861.200195312 560.5 881.5 560.5 c 0
 901.799804688 560.5 918.299804688 575.799804688 918.299804688 594.700195312 c 0
 918.299804688 613.599609375 901.799804688 628.900390625 881.5 628.900390625 c 0
 861.200195312 628.900390625 844.700195312 613.599609375 844.700195312 594.700195312 c 0
925.799804688 379.400390625 m 1
 305.400390625 379.400390625 l 1xef
 289.5 291.400390625 277.599609375 202.700195312 269.900390625 113.5 c 1
 342.700195312 201.700195312 453 257.900390625 576.299804688 257.900390625 c 0
 626.799804688 257.900390625 676.900390625 248.5 723.599609375 229.900390625 c 0
 732.700195312 226.5 741.400390625 222.599609375 749.599609375 218.099609375 c 0
 749.900390625 217.900390625 750.200195312 217.799804688 750.5 217.599609375 c 0
 834.700195312 171.400390625 874.700195312 69.2001953125 840.5 -23.5 c 0
 802.799804688 -125.799804688 689.299804688 -178.099609375 587 -140.299804688 c 0
 571.200195312 -134.5 556.299804688 -126.700195312 542.5 -117.099609375 c 1
 589.599609375 -49.5 l 1
 641.700195312 -85.7998046875 713.400390625 -73 749.700195312 -20.900390625 c 0
 786 31.2001953125 773.200195312 102.900390625 721.099609375 139.200195312 c 0
 718.900390625 140.700195312 716.700195312 142.099609375 714.400390625 143.5 c 0
 558.200195312 219.599609375 369.900390625 154.599609375 293.700195312 -1.5 c 0
 272.799804688 -44.5 261.900390625 -91.599609375 261.900390625 -139.400390625 c 1
 179 -139.400390625 l 1
 179 -136.799804688 l 2xf7
 179 36.5 192.299804688 209.200195312 220.700195312 379.400390625 c 1xef
 83.7001953125 379.400390625 l 1
 83.7001953125 468.900390625 l 1
 237 468.900390625 l 1
 255 559.200195312 277.400390625 648.700195312 304.5 737.099609375 c 1
 386.099609375 712.099609375 l 1
 361.599609375 631.900390625 340.599609375 550.700195312 323.099609375 468.900390625 c 1
 455.299804688 468.900390625 l 1
 574.599609375 487.299804688 674.299804688 571.799804688 711 688.5 c 1
 786.299804688 664.799804688 l 1
 761.299804688 585.200195312 712.700195312 517.599609375 649.5 468.900390625 c 1
 925.799804688 468.900390625 l 1
 925.799804688 379.400390625 l 1
EndSplineSet
EndChar

StartChar: uniE124
Encoding: 57636 57636 118
Width: 1000
GlyphClass: 2
Flags: MW
HStem: -152.7 83.1006 159 83.0996 379.4 89.5 526.3 34.2002 628.9 34.1992
VStem: 31.5996 83 303.6 85.9004 711 75.2998<664.8 688.5> 810.5 34.2002<585.25 604.15 585.25 613.6> 918.3 34.4004
LayerCount: 2
Fore
SplineSet
810.5 594.700195312 m 0
 810.5 632.5 842.299804688 663.099609375 881.599609375 663.099609375 c 0
 920.799804688 663.099609375 952.700195312 632.5 952.700195312 594.700195312 c 0
 952.700195312 556.900390625 920.900390625 526.299804688 881.599609375 526.299804688 c 0
 842.299804688 526.299804688 810.5 556.900390625 810.5 594.700195312 c 0
844.700195312 594.700195312 m 0
 844.700195312 575.799804688 861.200195312 560.5 881.5 560.5 c 0
 901.799804688 560.5 918.299804688 575.799804688 918.299804688 594.700195312 c 0
 918.299804688 613.599609375 901.799804688 628.900390625 881.5 628.900390625 c 0
 861.200195312 628.900390625 844.700195312 613.599609375 844.700195312 594.700195312 c 0
918.5 18.599609375 m 1
 978 -42.7001953125 l 1
 820.200195312 -195.700195312 568.299804688 -191.700195312 415.400390625 -33.900390625 c 0
 414.200195312 -32.599609375 412.900390625 -31.2998046875 411.700195312 -30 c 1
 382.299804688 -102 311.599609375 -152.700195312 229 -152.700195312 c 0
 120 -152.700195312 31.599609375 -64.2998046875 31.599609375 44.7001953125 c 0
 31.599609375 153.700195312 120 242.099609375 229 242.099609375 c 0
 255.400390625 242.099609375 280.599609375 236.900390625 303.599609375 227.5 c 1
 303.5 229.400390625 303.400390625 231.299804688 303.400390625 233.200195312 c 2
 304 379.400390625 l 1
 83.7001953125 379.400390625 l 1
 83.7001953125 468.900390625 l 1
 304.200195312 468.900390625 l 1
 305.200195312 721.099609375 l 1
 389.400390625 721.099609375 l 1
 389.400390625 468.900390625 l 1
 455.299804688 468.900390625 l 1
 574.599609375 487.299804688 674.299804688 571.799804688 711 688.5 c 1
 786.299804688 664.799804688 l 1
 761.299804688 585.200195312 712.700195312 517.599609375 649.5 468.900390625 c 1
 925.799804688 468.900390625 l 1
 925.799804688 379.400390625 l 1
 389.5 379.400390625 l 1
 389.5 221.299804688 l 1
 400.900390625 55.5 541 -73.5 708.799804688 -69.400390625 c 0
 787.299804688 -67.400390625 862.099609375 -36 918.5 18.599609375 c 1
228.900390625 -69.599609375 m 0
 292 -69.599609375 343.200195312 -18.400390625 343.200195312 44.7001953125 c 0
 343.200195312 59.599609375 340.400390625 73.7998046875 335.099609375 86.7998046875 c 0
 334.599609375 88.2001953125 334 89.599609375 333.400390625 91 c 0
 315.700195312 131 275.599609375 159 228.900390625 159 c 0
 165.799804688 159 114.599609375 107.799804688 114.599609375 44.7001953125 c 0
 114.599609375 -18.400390625 165.799804688 -69.599609375 228.900390625 -69.599609375 c 0
EndSplineSet
EndChar

StartChar: uniE125
Encoding: 57637 57637 119
Width: 1000
GlyphClass: 2
Flags: MW
HStem: -73.5996 83 238 83.0996 379.4 89.5 526.3 34.2002 628.9 34.1992
VStem: 173.7 85.2998 506.4 83.0996 711 75.2998<664.8 688.5> 810.5 34.2002<585.25 604.15 585.25 613.6> 918.3 34.4004
LayerCount: 2
Fore
SplineSet
810.5 594.700195312 m 0
 810.5 632.5 842.299804688 663.099609375 881.599609375 663.099609375 c 0
 920.799804688 663.099609375 952.700195312 632.5 952.700195312 594.700195312 c 0
 952.700195312 556.900390625 920.900390625 526.299804688 881.599609375 526.299804688 c 0
 842.299804688 526.299804688 810.5 556.900390625 810.5 594.700195312 c 0
844.700195312 594.700195312 m 0
 844.700195312 575.799804688 861.200195312 560.5 881.5 560.5 c 0
 901.799804688 560.5 918.299804688 575.799804688 918.299804688 594.700195312 c 0
 918.299804688 613.599609375 901.799804688 628.900390625 881.5 628.900390625 c 0
 861.200195312 628.900390625 844.700195312 613.599609375 844.700195312 594.700195312 c 0
925.799804688 379.400390625 m 1
 305.400390625 379.400390625 l 1
 300.299804688 351.599609375 295.700195312 323.700195312 291.5 295.799804688 c 1
 320.5 311.900390625 353.900390625 321.099609375 389.5 321.099609375 c 0
 499.900390625 321.099609375 589.5 232.799804688 589.5 123.799804688 c 0
 589.5 14.7998046875 500 -73.599609375 389.5 -73.599609375 c 0
 340.599609375 -73.599609375 295.799804688 -56.2998046875 261.099609375 -27.599609375 c 1
 259.700195312 -64 259 -100.400390625 259 -136.799804688 c 1
 173.700195312 -136.799804688 l 1
 173.700195312 36.400390625 188.799804688 209.200195312 218.700195312 379.400390625 c 1
 83.7001953125 379.400390625 l 1
 83.7001953125 468.900390625 l 1
 235.799804688 468.900390625 l 1
 254.5 559.200195312 277.400390625 648.700195312 304.5 737.099609375 c 1
 386.099609375 712.099609375 l 1
 361.5 631.900390625 340.5 550.799804688 323 468.900390625 c 1
 455.299804688 468.900390625 l 1
 574.599609375 487.299804688 674.299804688 571.799804688 711 688.5 c 1
 786.299804688 664.799804688 l 1
 761.299804688 585.200195312 712.700195312 517.599609375 649.5 468.900390625 c 1
 925.799804688 468.900390625 l 1
 925.799804688 379.400390625 l 1
389.5 238 m 0
 324.900390625 238 272.599609375 186.799804688 272.599609375 123.700195312 c 0
 272.599609375 60.599609375 324.900390625 9.400390625 389.5 9.400390625 c 0
 454 9.400390625 506.400390625 60.599609375 506.400390625 123.700195312 c 0
 506.400390625 186.799804688 454.099609375 238 389.5 238 c 0
EndSplineSet
EndChar

StartChar: uniE126
Encoding: 57638 57638 120
Width: 1000
GlyphClass: 2
Flags: MW
HStem: -149.1 85.8994 379.4 89.5 526.3 34.2002 628.9 34.1992
VStem: 147.4 85.8994 711 75.2998<664.8 688.5> 779.1 85.5 810.5 34.2002<585.25 604.15 585.25 613.6> 918.3 34.4004
LayerCount: 2
Fore
SplineSet
810.5 594.700195312 m 0xf980
 810.5 632.5 842.299804688 663.099609375 881.599609375 663.099609375 c 0
 920.799804688 663.099609375 952.700195312 632.5 952.700195312 594.700195312 c 0
 952.700195312 556.900390625 920.900390625 526.299804688 881.599609375 526.299804688 c 0
 842.299804688 526.299804688 810.5 556.900390625 810.5 594.700195312 c 0xf980
844.700195312 594.700195312 m 0
 844.700195312 575.799804688 861.200195312 560.5 881.5 560.5 c 0
 901.799804688 560.5 918.299804688 575.799804688 918.299804688 594.700195312 c 0
 918.299804688 613.599609375 901.799804688 628.900390625 881.5 628.900390625 c 0
 861.200195312 628.900390625 844.700195312 613.599609375 844.700195312 594.700195312 c 0
862.599609375 208 m 1
 949.5 161.799804688 991.099609375 57.2998046875 956.099609375 -37.7998046875 c 0
 917.799804688 -141.400390625 802.799804688 -194.400390625 699.200195312 -156.099609375 c 0
 673.700195312 -146.700195312 650.400390625 -132.200195312 630.799804688 -113.599609375 c 1
 581.200195312 -136 526.200195312 -148.599609375 468.299804688 -148.799804688 c 2
 440.599609375 -149.099609375 l 1
 278.799804688 -145.599609375 148.299804688 -13.7998046875 147.400390625 147.299804688 c 0
 147.400390625 224.900390625 152 302.5 161 379.400390625 c 1
 83.7001953125 379.400390625 l 1
 83.7001953125 468.900390625 l 1
 173.599609375 468.900390625 l 1
 188.200195312 558.5 209 647.200195312 235.900390625 734.200195312 c 1
 318 708.900390625 l 1
 293.700195312 630.099609375 274.599609375 549.900390625 260.700195312 468.900390625 c 1
 455.299804688 468.900390625 l 1
 574.599609375 487.299804688 674.299804688 571.799804688 711 688.5 c 1
 786.299804688 664.799804688 l 1xfc80
 761.299804688 585.200195312 712.700195312 517.599609375 649.5 468.900390625 c 1
 925.799804688 468.900390625 l 1
 925.799804688 379.400390625 l 1
 247.5 379.400390625 l 1
 238.299804688 304.400390625 233.5 228.799804688 233.299804688 153 c 0
 231.299804688 37.900390625 322.299804688 -57.5 436.599609375 -63.2001953125 c 1
 471.200195312 -63.2001953125 l 2
 639.599609375 -60.900390625 776.200195312 74.7998046875 779.099609375 243.599609375 c 1
 864.599609375 242.099609375 l 1xfa80
 864.400390625 230.599609375 863.799804688 219.200195312 862.599609375 208 c 1
841.5 -58.7998046875 m 0
 891.5 -18.5 899.200195312 54.7998046875 858.700195312 104.700195312 c 0
 854.099609375 110.400390625 848.900390625 115.700195312 843.299804688 120.400390625 c 1
 817.5 44.900390625 769.700195312 -20.2998046875 707.599609375 -67.599609375 c 1
 748.400390625 -92.5 802.200195312 -90.599609375 841.5 -58.7998046875 c 0
EndSplineSet
EndChar

StartChar: uniE127
Encoding: 57639 57639 121
Width: 1000
GlyphClass: 2
Flags: MW
HStem: -149.2 86 238 83<576.35 639.45> 379.4 89.5 526.3 34.2002 628.9 34.1992
VStem: 157.9 85.8994 410.5 83.0996 711 75.2998<664.8 688.5> 722.2 151.5 789.5 84.2002<-147.5 5.59961 5.59961 5.59961 -147.5 300> 810.5 34.2002<585.25 604.15 585.25 613.6> 918.3 34.4004
LayerCount: 2
Fore
SplineSet
810.5 594.700195312 m 0xfe30
 810.5 632.5 842.299804688 663.099609375 881.599609375 663.099609375 c 0
 920.799804688 663.099609375 952.700195312 632.5 952.700195312 594.700195312 c 0
 952.700195312 556.900390625 920.900390625 526.299804688 881.599609375 526.299804688 c 0
 842.299804688 526.299804688 810.5 556.900390625 810.5 594.700195312 c 0xfe30
844.700195312 594.700195312 m 0
 844.700195312 575.799804688 861.200195312 560.5 881.5 560.5 c 0
 901.799804688 560.5 918.299804688 575.799804688 918.299804688 594.700195312 c 0
 918.299804688 613.599609375 901.799804688 628.900390625 881.5 628.900390625 c 0
 861.200195312 628.900390625 844.700195312 613.599609375 844.700195312 594.700195312 c 0
925.799804688 379.400390625 m 1
 258 379.400390625 l 1
 248.599609375 302.5 243.799804688 225 243.799804688 147.299804688 c 0
 244.799804688 34.7001953125 332.099609375 -57.7001953125 444.5 -63.2001953125 c 1
 479.099609375 -63.2001953125 l 2
 496.799804688 -63 514.099609375 -61.2998046875 531 -58.2001953125 c 1
 460.200195312 -28.2998046875 410.5 41.900390625 410.5 123.599609375 c 0
 410.5 232.599609375 498.900390625 321 607.900390625 321 c 0
 685.400390625 321 752.5 276.299804688 784.799804688 211.299804688 c 1
 786.099609375 221.900390625 786.799804688 231.599609375 787 242.5 c 2
 789.5 300 l 1
 873.700195312 300 l 1
 873.700195312 -147.5 l 1
 789.5 -147.5 l 1
 789.5 5.599609375 l 1
 717 -88.099609375 603.599609375 -148.400390625 476.200195312 -148.900390625 c 2
 448.5 -149.200195312 l 1
 284.200195312 -145.599609375 155 -9.900390625 157.900390625 154.400390625 c 0
 158.200195312 229.700195312 162.700195312 304.799804688 171.5 379.400390625 c 1
 83.7001953125 379.400390625 l 1
 83.7001953125 468.900390625 l 1
 184.099609375 468.900390625 l 1
 198.700195312 558.5 219.5 647.099609375 246.400390625 734.099609375 c 1
 328.5 708.799804688 l 1
 304.200195312 630 285.099609375 549.900390625 271.200195312 468.900390625 c 1
 455.299804688 468.900390625 l 1
 574.599609375 487.299804688 674.299804688 571.799804688 711 688.5 c 1
 786.299804688 664.799804688 l 1xff50
 761.299804688 585.200195312 712.700195312 517.599609375 649.5 468.900390625 c 1
 925.799804688 468.900390625 l 1
 925.799804688 379.400390625 l 1
493.599609375 123.700195312 m 0
 493.599609375 60.599609375 544.799804688 9.400390625 607.900390625 9.400390625 c 0
 671 9.400390625 722.200195312 60.599609375 722.200195312 123.700195312 c 0xfe90
 722.200195312 186.799804688 671 238 607.900390625 238 c 0
 544.799804688 238 493.599609375 186.799804688 493.599609375 123.700195312 c 0
EndSplineSet
EndChar

StartChar: uniE128
Encoding: 57640 57640 122
Width: 1000
GlyphClass: 2
Flags: MW
HStem: -149.1 85.8994 379.4 89.5 526.3 34.2002 628.9 34.1992
VStem: 147.4 85.8994 711 75.2998<664.8 688.5> 779 84.2002<-142.2 2.5 2.5 2.5 -142.2 243.7> 810.5 34.2002<585.25 604.15 585.25 613.6> 918.3 34.4004
LayerCount: 2
Fore
SplineSet
810.5 594.700195312 m 0xf980
 810.5 632.5 842.299804688 663.099609375 881.599609375 663.099609375 c 0
 920.799804688 663.099609375 952.700195312 632.5 952.700195312 594.700195312 c 0
 952.700195312 556.900390625 920.900390625 526.299804688 881.599609375 526.299804688 c 0
 842.299804688 526.299804688 810.5 556.900390625 810.5 594.700195312 c 0xf980
844.700195312 594.700195312 m 0
 844.700195312 575.799804688 861.200195312 560.5 881.5 560.5 c 0
 901.799804688 560.5 918.299804688 575.799804688 918.299804688 594.700195312 c 0
 918.299804688 613.599609375 901.799804688 628.900390625 881.5 628.900390625 c 0
 861.200195312 628.900390625 844.700195312 613.599609375 844.700195312 594.700195312 c 0
247.5 379.400390625 m 1
 238.299804688 304.400390625 233.5 228.799804688 233.299804688 153 c 0
 231.299804688 37.900390625 322.099609375 -57.5 436.5 -63.2001953125 c 1
 471.099609375 -63.2001953125 l 2
 639.5 -60.7998046875 776 74.7998046875 779 243.700195312 c 1
 864.5 242.200195312 l 1
 864.299804688 233.299804688 863.900390625 224.5 863.200195312 215.799804688 c 2
 863.200195312 -142.200195312 l 1
 779 -142.200195312 l 1
 779 2.5 l 1xfa80
 706.400390625 -89.400390625 594.099609375 -148.299804688 468.200195312 -148.799804688 c 2
 440.5 -149.099609375 l 1
 278.599609375 -145.599609375 148.299804688 -13.7998046875 147.400390625 147.299804688 c 0
 147.400390625 224.900390625 152 302.5 161 379.400390625 c 1
 83.7001953125 379.400390625 l 1
 83.7001953125 468.900390625 l 1
 173.599609375 468.900390625 l 1
 188.200195312 558.5 209 647.200195312 235.900390625 734.200195312 c 1
 318 708.900390625 l 1
 293.700195312 630.099609375 274.599609375 549.900390625 260.700195312 468.900390625 c 1
 455.299804688 468.900390625 l 1
 574.599609375 487.299804688 674.299804688 571.799804688 711 688.5 c 1
 786.299804688 664.799804688 l 1xfc80
 761.299804688 585.200195312 712.700195312 517.599609375 649.5 468.900390625 c 1
 925.799804688 468.900390625 l 1
 925.799804688 379.400390625 l 1
 247.5 379.400390625 l 1
EndSplineSet
EndChar

